<?xml version="1.0" standalone="no"?>
<!DOCTYPE svg PUBLIC "-//W3C//DTD SVG 1.1//EN" "http://www.w3.org/Graphics/SVG/1.1/DTD/svg11.dtd" >
<svg>
<metadata>
Created by FontForge 20090914 at Wed Aug  2 15:30:50 2017
 By www-data
Copyright (c) 2016 by Misti's Fonts. All rights reserved.
</metadata>
<defs>
<font id="RequitedScriptDemo" horiz-adv-x="542" >
  <font-face 
    font-family="Requited Script Demo"
    font-weight="400"
    font-stretch="normal"
    units-per-em="1000"
    panose-1="0 0 0 0 0 0 0 0 0 0"
    ascent="800"
    descent="-200"
    x-height="565.994"
    cap-height="929.001"
    bbox="-407.001 -428.143 2067 1173"
    underline-thickness="50"
    underline-position="-50"
    unicode-range="U+000D-U+FB00"
  />
<missing-glyph horiz-adv-x="500" 
 />
    <glyph glyph-name="ff" unicode="ff" horiz-adv-x="1078" 
d="M880 226c-12 0 -25.001 0.485352 -39.001 1.48535s-28.667 2.16699 -44 3.5c-17.333 1.33301 -35.166 3.16602 -53.499 5.49902s-37.166 5.16602 -56.499 8.49902l-54 -175.5l-55 -174.5c40 -11.333 79.5 -23.666 118.5 -36.999s73.5 -24.666 103.5 -33.999
c42.667 -14 83.834 -26 123.501 -36s75.667 -17.167 108 -21.5s60.333 -5 84 -2s41.167 10.833 52.5 23.5c4 4 6.83301 9 8.5 15s2.66699 12 3 18s0.5 11.5 0.5 16.5v10.5c-0.666992 18.667 5 33.834 17 45.501s26.667 17.834 44 18.501s32.166 -5 44.499 -17
s18.833 -26.667 19.5 -44c0 -3.33301 -0.333008 -9.5 -1 -18.5s-2 -19 -4 -30s-4.66699 -22.333 -8 -34s-7.66602 -21.834 -12.999 -30.501c-20 -34 -45.667 -57.667 -77 -71s-66.333 -19.833 -105 -19.5s-79.667 5.83301 -123 16.5s-87.333 23.334 -132 38.001
c-50 16.667 -100.167 34.334 -150.5 53.001s-98.166 35.334 -143.499 50.001l-54 -156c-6 -17.333 -14.833 -31.666 -26.5 -42.999s-24.667 -19.833 -39 -25.5s-29.833 -8.5 -46.5 -8.5s-33.334 2.66699 -50.001 8c-18 6 -35.5 15 -52.5 27s-32.167 26.333 -45.5 43
s-24 35.334 -32 56.001s-12.333 42.334 -13 65.001c-17.333 6.66699 -34.166 12.667 -50.499 18l-48.5 16l-54 -156c-6 -17.333 -14.833 -31.666 -26.5 -42.999s-24.667 -19.833 -39 -25.5s-29.833 -8.5 -46.5 -8.5s-33.334 2.66699 -50.001 8
c-18.667 6 -36.5 15.167 -53.5 27.5s-32.167 27 -45.5 44s-24 36.167 -32 57.5s-12 43.666 -12 66.999c0 24.667 6 46.667 18 66s27.5 35.5 46.5 48.5s39.833 22.833 62.5 29.5s45 10 67 10c15.333 0 32 -1.16699 50 -3.5s36.667 -5.5 56 -9.5l30.5 102l30.5 106l29.5 105.5
l27.5 100.5c-26.667 0 -44.334 -1.66699 -53.001 -5s-13.334 -5.33301 -14.001 -6v-2c0 -11.333 -3.83301 -20.833 -11.5 -28.5s-17.167 -11.5 -28.5 -11.5s-20.833 3.83301 -28.5 11.5s-11.5 17.167 -11.5 28.5c0 26.667 10 48 30 64c18.667 15.333 47 24.666 85 27.999
c8 0.666992 16.667 1.16699 26 1.5s19.333 0.166016 30 -0.500977l61.5 200c21.667 67.333 47.834 130.333 78.501 189c6 11.333 13.833 24.333 23.5 39s21.334 28.5 35.001 41.5s29.167 24 46.5 33s37 13.5 59 13.5c18 0 34.667 -3.83301 50 -11.5
s28.833 -18.167 40.5 -31.5s21.334 -28.833 29.001 -46.5s13.167 -36.5 16.5 -56.5c4.66699 -27.333 6.33398 -55.666 5.00098 -84.999s-4.16602 -57.666 -8.49902 -84.999s-9.33301 -52.166 -15 -74.499s-10.5 -40.166 -14.5 -53.499
c-5.33301 -17.333 -15.333 -30.166 -30 -38.499s-30.334 -10.166 -47.001 -5.49902s-29.334 14.5 -38.001 29.5s-10.334 30.833 -5.00098 47.5v2c17.333 58 28.333 106 33 144s6 68 4 90s-6 37.333 -12 46s-11 13 -15 13c-2.66699 0 -9 -5.33301 -19 -16
s-23.333 -31 -40 -61s-36.334 -71.667 -59.001 -125s-47.667 -123 -75 -209c34 -5.33301 69.833 -11.333 107.5 -18s76.834 -14 117.501 -22l107 -21l33.5 116c11.667 40 24 79.667 37 119s27 78.166 42 116.499s31.5 74.833 49.5 109.5c6 11.333 13.833 24.333 23.5 39
s21.334 28.5 35.001 41.5s29.167 24 46.5 33s37 13.5 59 13.5c18 0 34.667 -3.83301 50 -11.5s28.833 -18.167 40.5 -31.5s21.334 -28.833 29.001 -46.5s13.167 -36.5 16.5 -56.5c4.66699 -27.333 6.33398 -55.666 5.00098 -84.999s-4.16602 -57.666 -8.49902 -84.999
s-9.33301 -52.166 -15 -74.499s-10.5 -40.166 -14.5 -53.499c-5.33301 -17.333 -15.333 -30.166 -30 -38.499s-30.334 -10.166 -47.001 -5.49902s-29.334 14.5 -38.001 29.5s-10.334 30.833 -5.00098 47.5v2c17.333 58 28.333 106 33 144s6 68 4 90s-6 37.333 -12 46
s-11 13 -15 13c-2.66699 0 -9.66699 -6.16699 -21 -18.5s-26.333 -36.166 -45 -71.499s-40.834 -85 -66.501 -149s-53.834 -147.333 -84.501 -250c33.333 -5.33301 64.666 -9.33301 93.999 -12s54.166 -4 74.499 -4s37 1 50 3s22.833 4.5 29.5 7.5s11.667 5.83301 15 8.5
c2.66699 1.33301 4.66699 3.16602 6 5.49902s2 6.16602 2 11.499c0 11.333 3.83301 20.833 11.5 28.5s17.167 11.5 28.5 11.5s20.833 -3.83301 28.5 -11.5s11.5 -17.167 11.5 -28.5c0 -32 -12.333 -58.333 -37 -79c-29.333 -24.667 -77.666 -37 -144.999 -37z
M486.999 281.985l-122.497 23c-39.667 7.33301 -76.834 13.333 -111.501 18v-1h1l-67 -214.5l-67 -212.5c17.333 -4.66699 34.666 -9.66699 51.999 -15l51 -16c19.333 22 43.666 38.5 72.999 49.5s58.333 16.5 87 16.5c15.333 0 32 -1.16699 50 -3.5s36.667 -5.5 56 -9.5
l51 171l49 174zM-78.998 -157.015c-13.333 0 -26.501 -1.3291 -39.501 -3.99609s-24.667 -6.83398 -35 -12.501s-18.833 -13 -25.5 -22s-10 -19.833 -10 -32.5c0 -20 6.33301 -39.333 19 -58s27.334 -33.334 44.001 -44.001s33 -15.834 49 -15.501s27 9.5 33 27.5
c7.33301 19.333 15 41.666 23 66.999l25 82c-31.333 8 -59 12 -83 12zM379.001 -157.011c-13.333 0 -26.501 -1.33008 -39.501 -3.99707s-24.667 -6.83398 -35 -12.501s-18.833 -13 -25.5 -22s-10 -19.833 -10 -32.5c0 -20 6.33301 -39.333 19 -58
s27.334 -33.334 44.001 -44.001s33 -15.834 49 -15.501s27 9.5 33 27.5l48 148c-16 4 -31 7.16699 -45 9.5s-26.667 3.5 -38 3.5z" />
    <glyph glyph-name="t_t" unicode="tt" horiz-adv-x="568" 
d="M-73 737c0.666992 24.667 8.33008 43.6621 22.9971 56.9951s32.667 22.666 54 27.999s44.833 8 70.5 8s50.167 -1.33301 73.5 -4l18 58c5.33301 16.667 15.5 29 30.5 37s30.833 9.33301 47.5 4s29.334 -15.833 38.001 -31.5s9.66699 -31.5 3 -47.5l-15 -36l78 -11.5
l72 -10.5l30 96c5.33301 16.667 15.5 29 30.5 37s30.833 9.33301 47.5 4s29.334 -15.833 38.001 -31.5s9.66699 -31.5 3 -47.5l-29 -73c48.667 -5.33301 91.667 -8.16602 129 -8.49902s68.833 2.66699 94.5 9s45 17 58 32s19.5 35.5 19.5 61.5c0 17.333 6 32.166 18 44.499
s26.667 18.833 44 19.5c17.333 0 32.166 -6 44.499 -18s18.5 -26.667 18.5 -44c0 -6.66699 -0.333008 -15 -1 -25s-2.33398 -20.667 -5.00098 -32s-6.83398 -23.5 -12.501 -36.5s-13.5 -25.833 -23.5 -38.5c-20 -24 -45 -42.167 -75 -54.5s-63.5 -20.333 -100.5 -24
s-76.667 -3.83398 -119 -0.500977s-85.166 8.66602 -128.499 15.999l-55 -148c-17.333 -48.667 -32.833 -95 -46.5 -139s-25.167 -84.833 -34.5 -122.5s-15.333 -70.167 -18 -97.5s-1.66699 -48.833 3 -64.5s14 -23.5 28 -23.5c13.333 0 27 5 41 15s27.667 23 41 39
s26.166 34 38.499 54s23.666 39.833 33.999 59.5s19.166 38.167 26.499 55.5s13 31.333 17 42c4.66699 12.667 12.334 21 23.001 25s20.334 4.33301 29.001 1c10.667 -3.33301 18.5 -10.333 23.5 -21s4.83301 -22 -0.5 -34l-27.5 -60.5
c-10.333 -22.333 -22 -45.166 -35 -68.499s-27.167 -46.166 -42.5 -68.499s-31.666 -42.166 -48.999 -59.499s-36 -31.333 -56 -42s-41 -16 -63 -16c-38 0 -65.667 10.833 -83 32.5s-27.666 50.834 -30.999 87.501c-23.333 -34 -49.166 -62.5 -77.499 -85.5
s-59.166 -34.5 -92.499 -34.5c-27.333 0 -49.333 6 -66 18s-29 28.5 -37 49.5s-12.333 46 -13 75s1.5 60.667 6.5 95s12 70.5 21 108.5s18.833 76.667 29.5 116c13.333 48.667 27.5 96.834 42.5 144.501l42.5 134.5c-34.667 3.33301 -62.167 4.33301 -82.5 3
s-30.5 -5.66602 -30.5 -12.999c0 -11.333 -4.16699 -20.666 -12.5 -27.999s-18.166 -10.666 -29.499 -9.99902c-10.667 1.33301 -19.834 6 -27.501 14s-11.167 18 -10.5 30zM93.9961 78.9951c18 0 36.6689 8.99805 56.002 26.998s37.5 39.833 54.5 65.5
s32.5 52.334 46.5 80.001s25 51.5 33 71.5c4.66699 22.667 10 45.667 16 69s12.333 46.666 19 69.999l35 119l35 113l-114 23l-20 3.5c-6 1 -12.333 2.16699 -19 3.5l-59.5 -157c-19 -52 -36.167 -101.833 -51.5 -149.5s-28.5 -92.167 -39.5 -133.5
s-18.333 -77.166 -22 -107.499s-3.33398 -54.166 0.999023 -71.499s14.166 -26 29.499 -26z" />
    <glyph glyph-name="g_g" unicode="gg" horiz-adv-x="930" 
d="M643 -351c-6 -17.333 -14.8301 -31.6738 -26.4971 -43.0068s-24.667 -19.833 -39 -25.5s-29.833 -8.5 -46.5 -8.5s-33.334 2.66699 -50.001 8c-18 6 -35.333 15 -52 27s-31.667 26.167 -45 42.5s-24.166 34.5 -32.499 54.5s-12.833 41.333 -13.5 64l-54 19.5
c-17.333 6.33301 -34.333 12.166 -51 17.499c-7.33301 -22.667 -15.5 -46.667 -24.5 -72l-30.5 -84c-6 -17.333 -14.833 -31.666 -26.5 -42.999s-24.667 -19.833 -39 -25.5s-29.833 -8.5 -46.5 -8.5s-33.334 2.66699 -50.001 8c-18.667 6 -36.5 15.167 -53.5 27.5
s-32.167 27 -45.5 44s-24 36.167 -32 57.5s-12 43.666 -12 66.999c0 24.667 6 46.667 18 66s27.5 35.5 46.5 48.5s39.833 22.833 62.5 29.5s45 10 67 10c14.667 0 30.167 -1 46.5 -3s33.5 -4.66699 51.5 -8l33 137c-19.333 -17.333 -40.5 -31.166 -63.5 -41.499
s-48.167 -15.166 -75.5 -14.499c-34 1.33301 -60.333 14.333 -79 39s-29 55.667 -31 93c-1.33301 30 2.33398 61.5 11.001 94.5s20 64.5 34 94.5c16 32.667 34.167 64 54.5 94s42.5 56.167 66.5 78.5s49 40.166 75 53.499s52.333 20 79 20c30 0 54.333 -4.5 73 -13.5
s33.167 -20.167 43.5 -33.5s17.333 -28.166 21 -44.499s5.5 -31.833 5.5 -46.5c0 -19.333 -7 -35.5 -21 -48.5s-30.333 -18.5 -49 -16.5c-17.333 2 -31.333 9.66699 -42 23s-15 28.666 -13 45.999c0.666992 4 1.5 7 2.5 9s-0.5 3.33301 -4.5 4
c-28 4.66699 -57.833 -4.5 -89.5 -27.5s-63.834 -62.167 -96.501 -117.5c-15.333 -26 -28 -52.167 -38 -78.5s-16.5 -50 -19.5 -71s-2.33301 -38 2 -51s12.833 -19.5 25.5 -19.5c22.667 0 44.334 8.5 65.001 25.5s39 37 55 60s29.667 46.5 41 70.5s19.666 43.333 24.999 58
c0 1.33301 0.666992 4 2 8c4.66699 17.333 14.334 30.333 29.001 39s30.667 11 48 7c16.667 -4.66699 29.667 -14.5 39 -29.5s11.333 -30.5 6 -46.5c-14.667 -43.333 -27.334 -82.333 -38.001 -117l-29.5 -96l-25 -84c-7.66699 -26.667 -15.834 -53.667 -24.501 -81
l54.5 -16c18.333 -5.33301 36.166 -11 53.499 -17c19.333 22.667 43.833 39.667 73.5 51s59.167 17 88.5 17c14.667 0 30.167 -1 46.5 -3s33.5 -4.66699 51.5 -8l33 137c-19.333 -17.333 -40.5 -31.166 -63.5 -41.499s-48.167 -15.166 -75.5 -14.499
c-34 1.33301 -60.333 14.333 -79 39s-29 55.667 -31 93c-1.33301 30 2.33398 61.5 11.001 94.5s20 64.5 34 94.5c16 32.667 34.167 64 54.5 94s42.5 56.167 66.5 78.5s49 40.166 75 53.499s52.333 20 79 20c30 0 54.333 -4.5 73 -13.5s33.167 -20.167 43.5 -33.5
s17.333 -28.166 21 -44.499s5.5 -31.833 5.5 -46.5c0 -19.333 -7 -35.5 -21 -48.5s-30.333 -18.5 -49 -16.5c-17.333 2 -31.333 9.66699 -42 23s-15 28.666 -13 45.999c0.666992 4 1.5 7 2.5 9s-0.5 3.33301 -4.5 4c-28 4.66699 -57.833 -4.5 -89.5 -27.5
s-63.834 -62.167 -96.501 -117.5c-15.333 -26 -28 -52.167 -38 -78.5s-16.5 -50 -19.5 -71s-2.33301 -38 2 -51s12.833 -19.5 25.5 -19.5c22.667 0 44.334 8.5 65.001 25.5s39 37 55 60s29.667 46.5 41 70.5s19.666 43.333 24.999 58c0 1.33301 0.666992 4 2 8
c4.66699 17.333 14.334 30.333 29.001 39s30.667 11 48 7c16.667 -4.66699 29.667 -14.5 39 -29.5s11.333 -30.5 6 -46.5c-14.667 -43.333 -27.334 -82.333 -38.001 -117l-29.5 -96l-25 -84c-7.66699 -26.667 -15.834 -53.667 -24.501 -81
c40 -11.333 79.5 -23.666 118.5 -36.999s73.5 -24.666 103.5 -33.999c42.667 -14 83.834 -26 123.501 -36s75.667 -17.167 108 -21.5s60.333 -5 84 -2s41.167 10.833 52.5 23.5c4 4 6.83301 9 8.5 15s2.66699 12 3 18s0.5 11.5 0.5 16.5v10.5
c-0.666992 18.667 5 33.834 17 45.501s26.667 17.834 44 18.501s32.166 -5 44.499 -17s18.833 -26.667 19.5 -44c0 -3.33301 -0.333008 -9.5 -1 -18.5s-2 -19 -4 -30s-4.66699 -22.333 -8 -34s-7.66602 -21.834 -12.999 -30.501c-20 -34 -45.667 -57.667 -77 -71
s-66.333 -19.833 -105 -19.5s-79.667 5.83301 -123 16.5s-87.333 23.334 -132 38.001c-50 16.667 -100.167 34.334 -150.5 53.001s-97.833 35.334 -142.5 50.001c-7.33301 -22.667 -15.5 -46.667 -24.5 -72zM63.0029 -157.008c-13.333 0 -26.501 -1.33008 -39.501 -3.99707
s-24.667 -6.83398 -35 -12.501s-18.833 -13 -25.5 -22s-10 -19.833 -10 -32.5c0 -20 6.33301 -39.333 19 -58s27.334 -33.334 44.001 -44.001s33 -15.834 49 -15.501s27 9.5 33 27.5c15.333 46 30.333 95.667 45 149c-31.333 8 -58 12 -80 12zM528.002 -157.005
c-13.333 0 -26.501 -1.33008 -39.501 -3.99707s-24.667 -6.83398 -35 -12.501s-18.833 -13 -25.5 -22s-10 -19.833 -10 -32.5c0 -20 6.33301 -39.333 19 -58s27.334 -33.334 44.001 -44.001s33 -15.834 49 -15.501s27 9.5 33 27.5c15.333 46 30.333 95.667 45 149
c-31.333 8 -58 12 -80 12z" />
    <glyph glyph-name="g_y" unicode="gy" horiz-adv-x="953" 
d="M568 79c16.667 0 33.6631 9.15918 50.9961 27.4922s33.833 40.333 49.5 66s29.834 52.5 42.501 80.5s22.667 52 30 72l51 195c4.66699 17.333 14.334 30.333 29.001 39s30.667 11 48 7c16.667 -4.66699 29.667 -14.5 39 -29.5s11.333 -30.5 6 -46.5l-96 -298.5
l-95 -296.5c40 -11.333 79.333 -23.666 118 -36.999s73 -24.666 103 -33.999c42.667 -14 83.834 -26 123.501 -36s75.667 -17.167 108 -21.5s60.333 -5 84 -2s41.167 10.833 52.5 23.5c4 4 6.83301 9 8.5 15s2.66699 12 3 18s0.5 11.5 0.5 16.5v10.5
c-0.666992 18.667 5 33.834 17 45.501s26.667 17.834 44 18.501s32.166 -5 44.499 -17s18.833 -26.667 19.5 -44c0 -3.33301 -0.333008 -9.5 -1 -18.5s-2 -19 -4 -30s-4.66699 -22.333 -8 -34s-7.66602 -21.834 -12.999 -30.501c-20 -34 -45.667 -57.667 -77 -71
s-66.333 -19.833 -105 -19.5s-79.667 5.83301 -123 16.5s-87.333 23.334 -132 38.001c-50 16.667 -100.167 34.334 -150.5 53.001s-97.833 35.334 -142.5 50.001l-27.5 -78l-27.5 -78c-6 -17.333 -14.833 -31.666 -26.5 -42.999s-24.667 -19.833 -39 -25.5
s-29.833 -8.5 -46.5 -8.5s-33.334 2.66699 -50.001 8c-18 6 -35.5 15 -52.5 27s-32 26.333 -45 43s-23.667 35.167 -32 55.5s-12.833 41.833 -13.5 64.5c-17.333 6.66699 -34.5 12.834 -51.5 18.501l-48.5 16.5c-7.33301 -22.667 -15.5 -46.667 -24.5 -72l-30.5 -84
c-6 -17.333 -14.833 -31.666 -26.5 -42.999s-24.667 -19.833 -39 -25.5s-29.833 -8.5 -46.5 -8.5s-33.334 2.66699 -50.001 8c-18.667 6 -36.5 15.167 -53.5 27.5s-32.167 27 -45.5 44s-24 36.167 -32 57.5s-12 43.666 -12 66.999c0 24.667 6 46.667 18 66
s27.5 35.5 46.5 48.5s39.833 22.833 62.5 29.5s45 10 67 10c14.667 0 30.167 -1 46.5 -3s33.5 -4.66699 51.5 -8l33 137c-19.333 -17.333 -40.5 -31.166 -63.5 -41.499s-48.167 -15.166 -75.5 -14.499c-34 1.33301 -60.333 14.333 -79 39s-29 55.667 -31 93
c-1.33301 30 2.33398 61.5 11.001 94.5s20 64.5 34 94.5c16 32.667 34.167 64 54.5 94s42.5 56.167 66.5 78.5s49 40.166 75 53.499s52.333 20 79 20c30 0 54.333 -4.5 73 -13.5s33.167 -20.167 43.5 -33.5s17.333 -28.166 21 -44.499s5.5 -31.833 5.5 -46.5
c0 -19.333 -7 -35.5 -21 -48.5s-30.333 -18.5 -49 -16.5c-17.333 2 -31.333 9.66699 -42 23s-15 28.666 -13 45.999c0.666992 4 1.5 7 2.5 9s-0.5 3.33301 -4.5 4c-28 4.66699 -57.833 -4.5 -89.5 -27.5s-63.834 -62.167 -96.501 -117.5c-15.333 -26 -28 -52.167 -38 -78.5
s-16.5 -50 -19.5 -71s-2.33301 -38 2 -51s12.833 -19.5 25.5 -19.5c22.667 0 44.334 8.5 65.001 25.5s39 37 55 60s29.667 46.5 41 70.5s19.666 43.333 24.999 58c0 1.33301 0.666992 4 2 8c4.66699 17.333 14.334 30.333 29.001 39s30.667 11 48 7
c16.667 -4.66699 29.667 -14.5 39 -29.5s11.333 -30.5 6 -46.5c-14.667 -43.333 -27.334 -82.333 -38.001 -117l-29.5 -96l-25 -84c-7.66699 -26.667 -15.834 -53.667 -24.501 -81l52.5 -16l51.5 -16c19.333 22 43.833 38.667 73.5 50s58.834 17 87.501 17
c15.333 0 31.5 -1.16699 48.5 -3.5s35.167 -5.16602 54.5 -8.49902l17 59.5c6 20.333 11.667 41.166 17 62.499c-14 -12.667 -29 -22.5 -45 -29.5s-33 -10.5 -51 -10.5c-22 0 -40.833 4.16699 -56.5 12.5s-28.167 20 -37.5 35s-16.166 32.333 -20.499 52
s-6.5 41.167 -6.5 64.5c0 30.667 2.5 63.167 7.5 97.5s11.167 67.666 18.5 99.999s14.833 62.833 22.5 91.5l19.5 72c4.66699 16.667 14.667 29 30 37s31.333 9.33301 48 4s29.334 -15.833 38.001 -31.5s9.66699 -31.5 3 -47.5c-11.333 -27.333 -22.5 -56.333 -33.5 -87
s-21 -61.167 -30 -91.5s-16.667 -59.333 -23 -87s-10 -52 -11 -73s0.833008 -37.833 5.5 -50.5s13.334 -19 26.001 -19zM522.996 -157.008c-13.333 0 -26.501 -1.3291 -39.501 -3.99609s-24.667 -6.83398 -35 -12.501s-18.833 -13 -25.5 -22s-10 -19.833 -10 -32.5
c0 -20 6.33301 -39.333 19 -58s27.334 -33.334 44.001 -44.001s33 -15.834 49 -15.501s27 9.5 33 27.5l22 67l25 82c-16 3.33301 -30.833 6.16602 -44.5 8.49902s-26.167 3.5 -37.5 3.5zM62.9951 -157.004c-13.333 0 -26.501 -1.33008 -39.501 -3.99707
s-24.667 -6.83398 -35 -12.501s-18.833 -13 -25.5 -22s-10 -19.833 -10 -32.5c0 -20 6.33301 -39.333 19 -58s27.334 -33.334 44.001 -44.001s33 -15.834 49 -15.501s27 9.5 33 27.5c15.333 46 30.333 95.667 45 149c-31.333 8 -58 12 -80 12z" />
    <glyph glyph-name="g_g_y" unicode="ggy" horiz-adv-x="1418" 
d="M1033 79c16.667 0 33.665 9.1582 50.998 27.4912s33.833 40.333 49.5 66s29.834 52.5 42.501 80.5s22.667 52 30 72l51 195c4.66699 17.333 14.334 30.333 29.001 39s30.667 11 48 7c16.667 -4.66699 29.667 -14.5 39 -29.5s11.333 -30.5 6 -46.5l-96 -298.5l-95 -296.5
c40 -11.333 79.333 -23.666 118 -36.999s73 -24.666 103 -33.999c42.667 -14 83.834 -26 123.501 -36s75.667 -17.167 108 -21.5s60.333 -5 84 -2s41.167 10.833 52.5 23.5c4 4 6.83301 9 8.5 15s2.66699 12 3 18s0.5 11.5 0.5 16.5v10.5
c-0.666992 18.667 5 33.834 17 45.501s26.667 17.834 44 18.501s32.166 -5 44.499 -17s18.833 -26.667 19.5 -44c0 -3.33301 -0.333008 -9.5 -1 -18.5s-2 -19 -4 -30s-4.66699 -22.333 -8 -34s-7.66602 -21.834 -12.999 -30.501c-20 -34 -45.667 -57.667 -77 -71
s-66.333 -19.833 -105 -19.5s-79.667 5.83301 -123 16.5s-87.333 23.334 -132 38.001c-50 16.667 -100.167 34.334 -150.5 53.001s-97.833 35.334 -142.5 50.001l-27.5 -78l-27.5 -78c-6 -17.333 -14.833 -31.666 -26.5 -42.999s-24.667 -19.833 -39 -25.5
s-29.833 -8.5 -46.5 -8.5s-33.334 2.66699 -50.001 8c-18 6 -35.5 15 -52.5 27s-32 26.333 -45 43s-23.667 35.167 -32 55.5s-12.833 41.833 -13.5 64.5c-17.333 6.66699 -34.5 12.834 -51.5 18.501l-48.5 16.5c-7.33301 -22.667 -15.5 -46.667 -24.5 -72l-30.5 -84
c-6 -17.333 -14.833 -31.666 -26.5 -42.999s-24.667 -19.833 -39 -25.5s-29.833 -8.5 -46.5 -8.5s-33.334 2.66699 -50.001 8c-18 6 -35.5 15 -52.5 27s-32 26.167 -45 42.5s-23.667 34.666 -32 54.999s-12.833 41.833 -13.5 64.5l-53 19l-51 17
c-7.33301 -22.667 -15.5 -46.667 -24.5 -72l-30.5 -84c-6 -17.333 -14.833 -31.666 -26.5 -42.999s-24.667 -19.833 -39 -25.5s-29.833 -8.5 -46.5 -8.5s-33.334 2.66699 -50.001 8c-18.667 6 -36.5 15.167 -53.5 27.5s-32.167 27 -45.5 44s-24 36.167 -32 57.5
s-12 43.666 -12 66.999c0 24.667 6 46.667 18 66s27.5 35.5 46.5 48.5s39.833 22.833 62.5 29.5s45 10 67 10c14.667 0 30.167 -1 46.5 -3s33.5 -4.66699 51.5 -8l33 137c-19.333 -17.333 -40.5 -31.166 -63.5 -41.499s-48.167 -15.166 -75.5 -14.499
c-34 1.33301 -60.333 14.333 -79 39s-29 55.667 -31 93c-1.33301 30 2.33398 61.5 11.001 94.5s20 64.5 34 94.5c16 32.667 34.167 64 54.5 94s42.5 56.167 66.5 78.5s49 40.166 75 53.499s52.333 20 79 20c30 0 54.333 -4.5 73 -13.5s33.167 -20.167 43.5 -33.5
s17.333 -28.166 21 -44.499s5.5 -31.833 5.5 -46.5c0 -19.333 -7 -35.5 -21 -48.5s-30.333 -18.5 -49 -16.5c-17.333 2 -31.333 9.66699 -42 23s-15 28.666 -13 45.999c0.666992 4 1.5 7 2.5 9s-0.5 3.33301 -4.5 4c-28 4.66699 -57.833 -4.5 -89.5 -27.5
s-63.834 -62.167 -96.501 -117.5c-15.333 -26 -28 -52.167 -38 -78.5s-16.5 -50 -19.5 -71s-2.33301 -38 2 -51s12.833 -19.5 25.5 -19.5c22.667 0 44.334 8.5 65.001 25.5s39 37 55 60s29.667 46.5 41 70.5s19.666 43.333 24.999 58c0 1.33301 0.666992 4 2 8
c4.66699 17.333 14.334 30.333 29.001 39s30.667 11 48 7c16.667 -4.66699 29.667 -14.5 39 -29.5s11.333 -30.5 6 -46.5c-14.667 -43.333 -27.334 -82.333 -38.001 -117l-29.5 -96l-25 -84c-7.66699 -26.667 -15.834 -53.667 -24.501 -81l54 -16.5l53 -16.5
c19.333 22.667 43.833 39.667 73.5 51s59.167 17 88.5 17c14.667 0 30.167 -1 46.5 -3s33.5 -4.66699 51.5 -8l33 137c-19.333 -17.333 -40.5 -31.166 -63.5 -41.499s-48.167 -15.166 -75.5 -14.499c-34 1.33301 -60.333 14.333 -79 39s-29 55.667 -31 93
c-1.33301 30 2.33398 61.5 11.001 94.5s20 64.5 34 94.5c16 32.667 34.167 64 54.5 94s42.5 56.167 66.5 78.5s49 40.166 75 53.499s52.333 20 79 20c30 0 54.333 -4.5 73 -13.5s33.167 -20.167 43.5 -33.5s17.333 -28.166 21 -44.499s5.5 -31.833 5.5 -46.5
c0 -19.333 -7 -35.5 -21 -48.5s-30.333 -18.5 -49 -16.5c-17.333 2 -31.333 9.66699 -42 23s-15 28.666 -13 45.999c0.666992 4 1.5 7 2.5 9s-0.5 3.33301 -4.5 4c-28 4.66699 -57.833 -4.5 -89.5 -27.5s-63.834 -62.167 -96.501 -117.5c-15.333 -26 -28 -52.167 -38 -78.5
s-16.5 -50 -19.5 -71s-2.33301 -38 2 -51s12.833 -19.5 25.5 -19.5c22.667 0 44.334 8.5 65.001 25.5s39 37 55 60s29.667 46.5 41 70.5s19.666 43.333 24.999 58c0 1.33301 0.666992 4 2 8c4.66699 17.333 14.334 30.333 29.001 39s30.667 11 48 7
c16.667 -4.66699 29.667 -14.5 39 -29.5s11.333 -30.5 6 -46.5c-14.667 -43.333 -27.334 -82.333 -38.001 -117l-29.5 -96l-25 -84c-7.66699 -26.667 -15.834 -53.667 -24.501 -81l52.5 -16l51.5 -16c19.333 22 43.833 38.667 73.5 50s58.834 17 87.501 17
c15.333 0 31.5 -1.16699 48.5 -3.5s35.167 -5.16602 54.5 -8.49902l17 59.5c6 20.333 11.667 41.166 17 62.499c-14 -12.667 -29 -22.5 -45 -29.5s-33 -10.5 -51 -10.5c-22 0 -40.833 4.16699 -56.5 12.5s-28.167 20 -37.5 35s-16.166 32.333 -20.499 52
s-6.5 41.167 -6.5 64.5c0 30.667 2.5 63.167 7.5 97.5s11.167 67.666 18.5 99.999s14.833 62.833 22.5 91.5l19.5 72c4.66699 16.667 14.667 29 30 37s31.333 9.33301 48 4s29.334 -15.833 38.001 -31.5s9.66699 -31.5 3 -47.5c-11.333 -27.333 -22.5 -56.333 -33.5 -87
s-21 -61.167 -30 -91.5s-16.667 -59.333 -23 -87s-10 -52 -11 -73s0.833008 -37.833 5.5 -50.5s13.334 -19 26.001 -19zM987.998 -157.009c-13.333 0 -26.501 -1.3291 -39.501 -3.99609s-24.667 -6.83398 -35 -12.501s-18.833 -13 -25.5 -22s-10 -19.833 -10 -32.5
c0 -20 6.33301 -39.333 19 -58s27.334 -33.334 44.001 -44.001s33 -15.834 49 -15.501s27 9.5 33 27.5l22 67l25 82c-16 3.33301 -30.833 6.16602 -44.5 8.49902s-26.167 3.5 -37.5 3.5zM527.997 -157.005c-13.333 0 -26.501 -1.33008 -39.501 -3.99707
s-24.667 -6.83398 -35 -12.501s-18.833 -13 -25.5 -22s-10 -19.833 -10 -32.5c0 -20 6.33301 -39.333 19 -58s27.334 -33.334 44.001 -44.001s33 -15.834 49 -15.501s27 9.5 33 27.5c15.333 46 30.333 95.667 45 149c-31.333 8 -58 12 -80 12zM63.9961 -157.002
c-13.333 0 -26.501 -1.33008 -39.501 -3.99707s-24.667 -6.83398 -35 -12.501s-18.833 -13 -25.5 -22s-10 -19.833 -10 -32.5c0 -20 6.33301 -39.333 19 -58s27.334 -33.334 44.001 -44.001s33 -15.834 49 -15.501s27 9.5 33 27.5c15.333 46 30.333 95.667 45 149
c-31.333 8 -58 12 -80 12z" />
    <glyph glyph-name="ff_y" unicode="ffy" horiz-adv-x="1566" 
d="M1181 79c16.667 0 33.6611 9.14844 50.9941 27.4814s33.833 40.333 49.5 66s29.834 52.5 42.501 80.5s22.667 52 30 72l51 195c4.66699 17.333 14.334 30.333 29.001 39s30.667 11 48 7c16.667 -4.66699 29.667 -14.5 39 -29.5s11.333 -30.5 6 -46.5l-96 -298.5
l-95 -296.5c40 -11.333 79.333 -23.666 118 -36.999s73 -24.666 103 -33.999c42.667 -14 83.834 -26 123.501 -36s75.667 -17.167 108 -21.5s60.333 -5 84 -2s41.167 10.833 52.5 23.5c4 4 6.83301 9 8.5 15s2.66699 12 3 18s0.5 11.5 0.5 16.5v10.5
c-0.666992 18.667 5 33.834 17 45.501s26.667 17.834 44 18.501s32.166 -5 44.499 -17s18.833 -26.667 19.5 -44c0 -3.33301 -0.333008 -9.5 -1 -18.5s-2 -19 -4 -30s-4.66699 -22.333 -8 -34s-7.66602 -21.834 -12.999 -30.501c-20 -34 -45.667 -57.667 -77 -71
s-66.333 -19.833 -105 -19.5s-79.667 5.83301 -123 16.5s-87.333 23.334 -132 38.001c-50 16.667 -100.167 34.334 -150.5 53.001s-97.833 35.334 -142.5 50.001l-27.5 -78l-27.5 -78c-6 -17.333 -14.833 -31.666 -26.5 -42.999s-24.667 -19.833 -39 -25.5
s-29.833 -8.5 -46.5 -8.5s-33.334 2.66699 -50.001 8c-20.667 6.66699 -40.167 17.167 -58.5 31.5s-34.166 31.166 -47.499 50.499c-23.333 5.33301 -46.833 11.5 -70.5 18.5l-70.5 21.5c-50 16.667 -100.167 34.334 -150.5 53.001s-98.166 35.334 -143.499 50.001l-54 -156
c-6 -17.333 -14.833 -31.666 -26.5 -42.999s-24.667 -19.833 -39 -25.5s-29.833 -8.5 -46.5 -8.5s-33.334 2.66699 -50.001 8c-18 6 -35.5 15 -52.5 27s-32.167 26.333 -45.5 43s-24 35.334 -32 56.001s-12.333 42.334 -13 65.001
c-17.333 6.66699 -34.166 12.667 -50.499 18l-48.5 16l-54 -156c-6 -17.333 -14.833 -31.666 -26.5 -42.999s-24.667 -19.833 -39 -25.5s-29.833 -8.5 -46.5 -8.5s-33.334 2.66699 -50.001 8c-18.667 6 -36.5 15.167 -53.5 27.5s-32.167 27 -45.5 44s-24 36.167 -32 57.5
s-12 43.666 -12 66.999c0 24.667 6 46.667 18 66s27.5 35.5 46.5 48.5s39.833 22.833 62.5 29.5s45 10 67 10c15.333 0 32 -1.16699 50 -3.5s36.667 -5.5 56 -9.5l30.5 102l30.5 106l29.5 105.5l27.5 100.5c-26.667 0 -44.334 -1.66699 -53.001 -5
s-13.334 -5.33301 -14.001 -6v-2c0 -11.333 -3.83301 -20.833 -11.5 -28.5s-17.167 -11.5 -28.5 -11.5s-20.833 3.83301 -28.5 11.5s-11.5 17.167 -11.5 28.5c0 26.667 10 48 30 64c18.667 15.333 47 24.666 85 27.999c8 0.666992 16.667 1.16699 26 1.5
s19.333 0.166016 30 -0.500977l61.5 200c21.667 67.333 47.834 130.333 78.501 189c6 11.333 13.833 24.333 23.5 39s21.334 28.5 35.001 41.5s29.167 24 46.5 33s37 13.5 59 13.5c18 0 34.667 -3.83301 50 -11.5s28.833 -18.167 40.5 -31.5s21.334 -28.833 29.001 -46.5
s13.167 -36.5 16.5 -56.5c4.66699 -27.333 6.33398 -55.666 5.00098 -84.999s-4.16602 -57.666 -8.49902 -84.999s-9.33301 -52.166 -15 -74.499s-10.5 -40.166 -14.5 -53.499c-5.33301 -17.333 -15.333 -30.166 -30 -38.499s-30.334 -10.166 -47.001 -5.49902
s-29.334 14.5 -38.001 29.5s-10.334 30.833 -5.00098 47.5v2c17.333 58 28.333 106 33 144s6 68 4 90s-6 37.333 -12 46s-11 13 -15 13c-2.66699 0 -9 -5.33301 -19 -16s-23.333 -31 -40 -61s-36.334 -71.667 -59.001 -125s-47.667 -123 -75 -209
c34 -5.33301 69.833 -11.333 107.5 -18s76.834 -14 117.501 -22l107 -21l33.5 116c11.667 40 24 79.667 37 119s27 78.166 42 116.499s31.5 74.833 49.5 109.5c6 11.333 13.833 24.333 23.5 39s21.334 28.5 35.001 41.5s29.167 24 46.5 33s37 13.5 59 13.5
c18 0 34.667 -3.83301 50 -11.5s28.833 -18.167 40.5 -31.5s21.334 -28.833 29.001 -46.5s13.167 -36.5 16.5 -56.5c4.66699 -27.333 6.33398 -55.666 5.00098 -84.999s-4.16602 -57.666 -8.49902 -84.999s-9.33301 -52.166 -15 -74.499s-10.5 -40.166 -14.5 -53.499
c-5.33301 -17.333 -15.333 -30.166 -30 -38.499s-30.334 -10.166 -47.001 -5.49902s-29.334 14.5 -38.001 29.5s-10.334 30.833 -5.00098 47.5v2c17.333 58 28.333 106 33 144s6 68 4 90s-6 37.333 -12 46s-11 13 -15 13c-2.66699 0 -9.66699 -6.16699 -21 -18.5
s-26.333 -36.166 -45 -71.499s-40.834 -85 -66.501 -149s-53.834 -147.333 -84.501 -250c33.333 -5.33301 64.666 -9.33301 93.999 -12s54.166 -4 74.499 -4s37 1 50 3s22.833 4.5 29.5 7.5s11.667 5.83301 15 8.5c2.66699 1.33301 4.66699 3.16602 6 5.49902
s2 6.16602 2 11.499c0 11.333 3.83301 20.833 11.5 28.5s17.167 11.5 28.5 11.5s20.833 -3.83301 28.5 -11.5s11.5 -17.167 11.5 -28.5c0 -32 -12.333 -58.333 -37 -79c-29.333 -24.667 -77.666 -37 -144.999 -37c-12 0 -25 0.5 -39 1.5s-28.667 2.16699 -44 3.5
c-17.333 1.33301 -35.166 3.16602 -53.499 5.49902s-37.166 5.16602 -56.499 8.49902l-54 -175.5l-55 -174.5c40 -11.333 79.5 -23.666 118.5 -36.999s73.5 -24.666 103.5 -33.999l74.5 -23c24.333 -7.33301 48.166 -13.666 71.499 -18.999
c0.666992 24 7.16699 45.167 19.5 63.5s27.833 33.833 46.5 46.5s39.334 22.167 62.001 28.5s44.667 9.5 66 9.5c15.333 0 31.5 -1.16699 48.5 -3.5s35.167 -5.16602 54.5 -8.49902l17 59.5c6 20.333 11.667 41.166 17 62.499c-14 -12.667 -29 -22.5 -45 -29.5
s-33 -10.5 -51 -10.5c-22 0 -40.833 4.16699 -56.5 12.5s-28.167 20 -37.5 35s-16.166 32.333 -20.499 52s-6.5 41.167 -6.5 64.5c0 30.667 2.5 63.167 7.5 97.5s11.167 67.666 18.5 99.999s14.833 62.833 22.5 91.5l19.5 72c4.66699 16.667 14.667 29 30 37
s31.333 9.33301 48 4s29.334 -15.833 38.001 -31.5s9.66699 -31.5 3 -47.5c-11.333 -27.333 -22.5 -56.333 -33.5 -87s-21 -61.167 -30 -91.5s-16.667 -59.333 -23 -87s-10 -52 -11 -73s0.833008 -37.833 5.5 -50.5s13.334 -19 26.001 -19zM486.994 281.981l-122.497 23
c-39.667 7.33301 -76.834 13.333 -111.501 18v-1h1l-67 -214.5l-67 -212.5c17.333 -4.66699 34.666 -9.66699 51.999 -15l51 -16c19.333 22 43.666 38.5 72.999 49.5s58.333 16.5 87 16.5c15.333 0 32 -1.16699 50 -3.5s36.667 -5.5 56 -9.5l51 171l49 174z
M-79.0029 -157.019c-13.333 0 -26.501 -1.3291 -39.501 -3.99609s-24.667 -6.83398 -35 -12.501s-18.833 -13 -25.5 -22s-10 -19.833 -10 -32.5c0 -20 6.33301 -39.333 19 -58s27.334 -33.334 44.001 -44.001s33 -15.834 49 -15.501s27 9.5 33 27.5
c7.33301 19.333 15 41.666 23 66.999l25 82c-31.333 8 -59 12 -83 12zM1136 -157.015c-13.333 0 -26.501 -1.3291 -39.501 -3.99609s-24.667 -6.83398 -35 -12.501s-18.833 -13 -25.5 -22s-10 -19.833 -10 -32.5c0 -20 6.33301 -39.333 19 -58
s27.334 -33.334 44.001 -44.001s33 -15.834 49 -15.501s27 9.5 33 27.5l22 67l25 82c-16 3.33301 -30.833 6.16602 -44.5 8.49902s-26.167 3.5 -37.5 3.5zM378.995 -157.011c-13.333 0 -26.501 -1.33008 -39.501 -3.99707s-24.667 -6.83398 -35 -12.501
s-18.833 -13 -25.5 -22s-10 -19.833 -10 -32.5c0 -20 6.33301 -39.333 19 -58s27.334 -33.334 44.001 -44.001s33 -15.834 49 -15.501s27 9.5 33 27.5l48 148c-16 4 -31 7.16699 -45 9.5s-26.667 3.5 -38 3.5z" />
    <glyph glyph-name="ff_g" unicode="ffg" horiz-adv-x="1543" 
d="M1365 433c0.666992 4 1.5 6.97754 2.5 8.97754s-0.5 3.33301 -4.5 4c-28 4.66699 -57.833 -4.5 -89.5 -27.5s-63.834 -62.167 -96.501 -117.5c-15.333 -26 -28 -52.167 -38 -78.5s-16.5 -50 -19.5 -71s-2.33301 -38 2 -51s12.833 -19.5 25.5 -19.5
c22.667 0 44.334 8.5 65.001 25.5s39 37 55 60s29.667 46.5 41 70.5s19.666 43.333 24.999 58c0 1.33301 0.666992 4 2 8c4.66699 17.333 14.334 30.333 29.001 39s30.667 11 48 7c16.667 -4.66699 29.667 -14.5 39 -29.5s11.333 -30.5 6 -46.5
c-14.667 -43.333 -27.334 -82.333 -38.001 -117l-29.5 -96l-25 -84c-7.66699 -26.667 -15.834 -53.667 -24.501 -81c40 -11.333 79.5 -23.666 118.5 -36.999s73.5 -24.666 103.5 -33.999c42.667 -14 83.834 -26 123.501 -36s75.667 -17.167 108 -21.5s60.333 -5 84 -2
s41.167 10.833 52.5 23.5c4 4 6.83301 9 8.5 15s2.66699 12 3 18s0.5 11.5 0.5 16.5v10.5c-0.666992 18.667 5 33.834 17 45.501s26.667 17.834 44 18.501s32.166 -5 44.499 -17s18.833 -26.667 19.5 -44c0 -3.33301 -0.333008 -9.5 -1 -18.5s-2 -19 -4 -30
s-4.66699 -22.333 -8 -34s-7.66602 -21.834 -12.999 -30.501c-20 -34 -45.667 -57.667 -77 -71s-66.333 -19.833 -105 -19.5s-79.667 5.83301 -123 16.5s-87.333 23.334 -132 38.001c-50 16.667 -100.167 34.334 -150.5 53.001s-97.833 35.334 -142.5 50.001
c-7.33301 -22.667 -15.5 -46.667 -24.5 -72l-30.5 -84c-6 -17.333 -14.833 -31.666 -26.5 -42.999s-24.667 -19.833 -39 -25.5s-29.833 -8.5 -46.5 -8.5s-33.334 2.66699 -50.001 8c-20 6.66699 -39.167 16.834 -57.5 30.501s-34.166 30.167 -47.499 49.5
c-24 5.33301 -48.333 11.666 -73 18.999l-74 23c-50 16.667 -100.167 34.334 -150.5 53.001s-98.166 35.334 -143.499 50.001l-54 -156c-6 -17.333 -14.833 -31.666 -26.5 -42.999s-24.667 -19.833 -39 -25.5s-29.833 -8.5 -46.5 -8.5s-33.334 2.66699 -50.001 8
c-18 6 -35.5 15 -52.5 27s-32.167 26.333 -45.5 43s-24 35.334 -32 56.001s-12.333 42.334 -13 65.001c-17.333 6.66699 -34.166 12.667 -50.499 18l-48.5 16l-54 -156c-6 -17.333 -14.833 -31.666 -26.5 -42.999s-24.667 -19.833 -39 -25.5s-29.833 -8.5 -46.5 -8.5
s-33.334 2.66699 -50.001 8c-18.667 6 -36.5 15.167 -53.5 27.5s-32.167 27 -45.5 44s-24 36.167 -32 57.5s-12 43.666 -12 66.999c0 24.667 6 46.667 18 66s27.5 35.5 46.5 48.5s39.833 22.833 62.5 29.5s45 10 67 10c15.333 0 32 -1.16699 50 -3.5s36.667 -5.5 56 -9.5
l30.5 102l30.5 106l29.5 105.5l27.5 100.5c-26.667 0 -44.334 -1.66699 -53.001 -5s-13.334 -5.33301 -14.001 -6v-2c0 -11.333 -3.83301 -20.833 -11.5 -28.5s-17.167 -11.5 -28.5 -11.5s-20.833 3.83301 -28.5 11.5s-11.5 17.167 -11.5 28.5c0 26.667 10 48 30 64
c18.667 15.333 47 24.666 85 27.999c8 0.666992 16.667 1.16699 26 1.5s19.333 0.166016 30 -0.500977l61.5 200c21.667 67.333 47.834 130.333 78.501 189c6 11.333 13.833 24.333 23.5 39s21.334 28.5 35.001 41.5s29.167 24 46.5 33s37 13.5 59 13.5
c18 0 34.667 -3.83301 50 -11.5s28.833 -18.167 40.5 -31.5s21.334 -28.833 29.001 -46.5s13.167 -36.5 16.5 -56.5c4.66699 -27.333 6.33398 -55.666 5.00098 -84.999s-4.16602 -57.666 -8.49902 -84.999s-9.33301 -52.166 -15 -74.499s-10.5 -40.166 -14.5 -53.499
c-5.33301 -17.333 -15.333 -30.166 -30 -38.499s-30.334 -10.166 -47.001 -5.49902s-29.334 14.5 -38.001 29.5s-10.334 30.833 -5.00098 47.5v2c17.333 58 28.333 106 33 144s6 68 4 90s-6 37.333 -12 46s-11 13 -15 13c-2.66699 0 -9 -5.33301 -19 -16
s-23.333 -31 -40 -61s-36.334 -71.667 -59.001 -125s-47.667 -123 -75 -209c34 -5.33301 69.833 -11.333 107.5 -18s76.834 -14 117.501 -22l107 -21l33.5 116c11.667 40 24 79.667 37 119s27 78.166 42 116.499s31.5 74.833 49.5 109.5c6 11.333 13.833 24.333 23.5 39
s21.334 28.5 35.001 41.5s29.167 24 46.5 33s37 13.5 59 13.5c18 0 34.667 -3.83301 50 -11.5s28.833 -18.167 40.5 -31.5s21.334 -28.833 29.001 -46.5s13.167 -36.5 16.5 -56.5c4.66699 -27.333 6.33398 -55.666 5.00098 -84.999s-4.16602 -57.666 -8.49902 -84.999
s-9.33301 -52.166 -15 -74.499s-10.5 -40.166 -14.5 -53.499c-5.33301 -17.333 -15.333 -30.166 -30 -38.499s-30.334 -10.166 -47.001 -5.49902s-29.334 14.5 -38.001 29.5s-10.334 30.833 -5.00098 47.5v2c17.333 58 28.333 106 33 144s6 68 4 90s-6 37.333 -12 46
s-11 13 -15 13c-2.66699 0 -9.66699 -6.16699 -21 -18.5s-26.333 -36.166 -45 -71.499s-40.834 -85 -66.501 -149s-53.834 -147.333 -84.501 -250c33.333 -5.33301 64.666 -9.33301 93.999 -12s54.166 -4 74.499 -4s37 1 50 3s22.833 4.5 29.5 7.5s11.667 5.83301 15 8.5
c2.66699 1.33301 4.66699 3.16602 6 5.49902s2 6.16602 2 11.499c0 11.333 3.83301 20.833 11.5 28.5s17.167 11.5 28.5 11.5s20.833 -3.83301 28.5 -11.5s11.5 -17.167 11.5 -28.5c0 -32 -12.333 -58.333 -37 -79c-29.333 -24.667 -77.666 -37 -144.999 -37
c-12 0 -25 0.5 -39 1.5s-28.667 2.16699 -44 3.5c-17.333 1.33301 -35.166 3.16602 -53.499 5.49902s-37.166 5.16602 -56.499 8.49902l-54 -175.5l-55 -174.5c40 -11.333 79.5 -23.666 118.5 -36.999s73.5 -24.666 103.5 -33.999c26.667 -8.66699 52.667 -16.667 78 -24
s49.666 -13.666 72.999 -18.999c0.666992 24 7.16699 45.333 19.5 64s27.833 34.334 46.5 47.001s39.334 22.167 62.001 28.5s44.667 9.5 66 9.5c14.667 0 30.167 -1 46.5 -3s33.5 -4.66699 51.5 -8l33 137c-19.333 -17.333 -40.5 -31.166 -63.5 -41.499
s-48.167 -15.166 -75.5 -14.499c-34 1.33301 -60.333 14.333 -79 39s-29 55.667 -31 93c-1.33301 30 2.33398 61.5 11.001 94.5s20 64.5 34 94.5c16 32.667 34.167 64 54.5 94s42.5 56.167 66.5 78.5s49 40.166 75 53.499s52.333 20 79 20c30 0 54.333 -4.5 73 -13.5
s33.167 -20.167 43.5 -33.5s17.333 -28.166 21 -44.499s5.5 -31.833 5.5 -46.5c0 -19.333 -7 -35.5 -21 -48.5s-30.333 -18.5 -49 -16.5c-17.333 2 -31.333 9.66699 -42 23s-15 28.666 -13 45.999zM487 281.978l-122.497 23c-39.667 7.33301 -76.834 13.333 -111.501 18v-1
h1l-67 -214.5l-67 -212.5c17.333 -4.66699 34.666 -9.66699 51.999 -15l51 -16c19.333 22 43.666 38.5 72.999 49.5s58.333 16.5 87 16.5c15.333 0 32 -1.16699 50 -3.5s36.667 -5.5 56 -9.5l51 171l49 174zM-78.9971 -157.022c-13.333 0 -26.501 -1.3291 -39.501 -3.99609
s-24.667 -6.83398 -35 -12.501s-18.833 -13 -25.5 -22s-10 -19.833 -10 -32.5c0 -20 6.33301 -39.333 19 -58s27.334 -33.334 44.001 -44.001s33 -15.834 49 -15.501s27 9.5 33 27.5c7.33301 19.333 15 41.666 23 66.999l25 82c-31.333 8 -59 12 -83 12zM379.002 -157.019
c-13.333 0 -26.501 -1.33008 -39.501 -3.99707s-24.667 -6.83398 -35 -12.501s-18.833 -13 -25.5 -22s-10 -19.833 -10 -32.5c0 -20 6.33301 -39.333 19 -58s27.334 -33.334 44.001 -44.001s33 -15.834 49 -15.501s27 9.5 33 27.5l48 148c-16 4 -31 7.16699 -45 9.5
s-26.667 3.5 -38 3.5zM1141 -157.016c-13.333 0 -26.501 -1.33008 -39.501 -3.99707s-24.667 -6.83398 -35 -12.501s-18.833 -13 -25.5 -22s-10 -19.833 -10 -32.5c0 -20 6.33301 -39.333 19 -58s27.334 -33.334 44.001 -44.001s33 -15.834 49 -15.501s27 9.5 33 27.5
c15.333 46 30.333 95.667 45 149c-31.333 8 -58 12 -80 12z" />
    <glyph glyph-name="p_p" unicode="pp" horiz-adv-x="854" 
d="M169 567c54 0 96.668 -11.6738 128.001 -35.0068s53.666 -52.333 66.999 -87c14 -36 19 -74.5 15 -115.5s-13 -81.167 -27 -120.5c-10 -28.667 -22 -55.667 -36 -81s-30 -47.5 -48 -66.5s-37.833 -34 -59.5 -45s-44.834 -16.5 -69.501 -16.5
c-19.333 0 -36.666 4.83301 -51.999 14.5s-28.666 22.167 -39.999 37.5l-47 -157c26 -7.33301 52 -15.333 78 -24c19.333 19.333 43 34 71 44s55.667 15 83 15c14.667 0 30.167 -1 46.5 -3s33.5 -4.66699 51.5 -8c17.333 68 33.666 136.833 48.999 206.5
s31.333 135.834 48 198.501c2.66699 10 7.16699 18.667 13.5 26s14.166 13 23.499 17c-12 4 -21.667 11.333 -29 22s-11.333 22.667 -12 36c-0.666992 22 4.16602 41.667 14.499 59s23.833 32.166 40.5 44.499s35.334 21.833 56.001 28.5s41.334 10 62.001 10
c54 0 96.667 -11.667 128 -35s53.666 -52.333 66.999 -87c14 -36 19 -74.5 15 -115.5s-13 -81.167 -27 -120.5c-10 -28.667 -22 -55.667 -36 -81s-30 -47.5 -48 -66.5s-37.833 -34 -59.5 -45s-44.834 -16.5 -69.501 -16.5c-19.333 0 -36.666 4.83301 -51.999 14.5
s-28.666 22.167 -39.999 37.5l-47 -157c40 -11.333 79.5 -23.666 118.5 -36.999s73.5 -24.666 103.5 -33.999c42.667 -14 83.834 -26 123.501 -36s75.667 -17.167 108 -21.5s60.333 -5 84 -2s41.167 10.833 52.5 23.5c4 4 6.83301 9 8.5 15s2.66699 12 3 18
s0.5 11.5 0.5 16.5v10.5c-0.666992 18.667 5 33.834 17 45.501s26.667 17.834 44 18.501s32.166 -5 44.499 -17s18.833 -26.667 19.5 -44c0 -3.33301 -0.333008 -9.5 -1 -18.5s-2 -19 -4 -30s-4.66699 -22.333 -8 -34s-7.66602 -21.834 -12.999 -30.501
c-20 -34 -45.667 -57.667 -77 -71s-66.333 -19.833 -105 -19.5s-79.667 5.83301 -123 16.5s-87.333 23.334 -132 38.001c-50 16.667 -100.167 34.334 -150.5 53.001s-97.833 35.334 -142.5 50.001l-25 -73c-8.66699 -25.333 -18.667 -53 -30 -83
c-6 -17.333 -14.833 -31.666 -26.5 -42.999s-24.667 -19.833 -39 -25.5s-29.833 -8.5 -46.5 -8.5s-33.334 2.66699 -50.001 8c-18.667 6 -36.5 15.167 -53.5 27.5s-32.167 27 -45.5 44s-24 36.167 -32 57.5s-12 43.666 -12 66.999v6l-33.5 12
c-11 4 -22.167 7.66699 -33.5 11c-7.33301 -23.333 -15.5 -47.666 -24.5 -72.999l-30.5 -83c-6 -17.333 -14.833 -31.666 -26.5 -42.999s-24.667 -19.833 -39 -25.5s-29.833 -8.5 -46.5 -8.5s-33.334 2.66699 -50.001 8c-18.667 6 -36.5 15.167 -53.5 27.5
s-32.167 27 -45.5 44s-24 36.167 -32 57.5s-12 43.666 -12 66.999c0 24.667 6 46.667 18 66s27.5 35.5 46.5 48.5s39.833 22.833 62.5 29.5s45 10 67 10c14.667 0 30.334 -1 47.001 -3s34 -4.66699 52 -8l48.5 206.5c15.667 69.667 31.5 135.834 47.5 198.501
c2.66699 10 7.16699 18.667 13.5 26s14.166 13 23.499 17c-12 4 -21.667 11.333 -29 22s-11.333 22.667 -12 36c-0.666992 22 4.16602 41.667 14.499 59s23.833 32.166 40.5 44.499s35.334 21.833 56.001 28.5s41.334 10 62.001 10zM550.001 293.993l-43.002 -133.003
l-33 -109c-12.667 18 -21.667 39.333 -27 64c-4 17.333 -5.66699 35.333 -5 54s2.33398 36.5 5.00098 53.5s6.16699 32.833 10.5 47.5s8.16602 26.667 11.499 36c3.33301 10.667 10 18.334 20 23.001s20.333 5.33398 31 2.00098s18.334 -10 23.001 -20
s5.33398 -20.333 2.00098 -31c-1.33301 -5.33301 -4.66602 -16.833 -9.99902 -34.5s-9 -36.834 -11 -57.501c-1.33301 -13.333 -1.5 -26.5 -0.5 -39.5s3.16699 -24.667 6.5 -35s8.16602 -18.666 14.499 -24.999s14.5 -9.5 24.5 -9.5c11.333 0 22.666 4.16699 33.999 12.5
s22 19.666 32 33.999s19.167 30.666 27.5 48.999s15.5 37.5 21.5 57.5c7.33301 25.333 12.5 50.833 15.5 76.5s2.33301 48.834 -2 69.501s-13 37.5 -26 50.5s-31.833 19.5 -56.5 19.5c-4.66699 0 -10.834 -0.5 -18.501 -1.5s-15.167 -2.5 -22.5 -4.5
s-13.666 -4.66699 -18.999 -8s-8 -7.33301 -8 -12c0 -11.333 -3.16699 -22.166 -9.5 -32.499s-15.166 -18.166 -26.499 -23.499c14.667 -6 26.167 -16 34.5 -30s9.83301 -28.333 4.5 -43zM122.999 293.99l-12.002 -36.0049c-0.666992 -0.666992 -1 -1.66699 -1 -3
c-13.333 -40 -25 -76.5 -35 -109.5l-28 -93.5c-12.667 18 -21.667 39.333 -27 64c-4 17.333 -5.66699 35.333 -5 54s2.33398 36.5 5.00098 53.5s6.16699 32.833 10.5 47.5s8.16602 26.667 11.499 36c3.33301 10.667 10 18.334 20 23.001s20.333 5.33398 31 2.00098
s18.334 -10 23.001 -20s5.33398 -20.333 2.00098 -31l-7 -23c-0.666992 -0.666992 -1 -1.66699 -1 -3c-2.66699 -9.33301 -5.16699 -19.666 -7.5 -30.999s-4.16602 -23 -5.49902 -35c-1.33301 -13.333 -1.5 -26.5 -0.5 -39.5s3.16699 -24.667 6.5 -35
s8.16602 -18.666 14.499 -24.999s14.5 -9.5 24.5 -9.5c11.333 0 22.666 4.16699 33.999 12.5s22 19.666 32 33.999s19.167 30.666 27.5 48.999s15.5 37.5 21.5 57.5c7.33301 25.333 12.5 50.833 15.5 76.5s2.33301 48.834 -2 69.501s-13 37.5 -26 50.5
s-31.833 19.5 -56.5 19.5c-4.66699 0 -10.834 -0.5 -18.501 -1.5s-15.167 -2.5 -22.5 -4.5s-13.666 -4.66699 -18.999 -8s-8 -7.33301 -8 -12c0 -11.333 -3.16699 -22.166 -9.5 -32.499s-15.166 -18.166 -26.499 -23.499c14.667 -6 26.167 -16 34.5 -30
s9.83301 -28.333 4.5 -43zM-199.003 -157.015c-13.333 0 -26.501 -1.33008 -39.501 -3.99707s-24.667 -6.83398 -35 -12.501s-18.833 -13 -25.5 -22s-10 -19.833 -10 -32.5c0 -20 6.33301 -39.333 19 -58s27.334 -33.334 44.001 -44.001s33 -15.834 49 -15.501
s27 9.5 33 27.5c8 23.333 15.667 47.5 23 72.5l22 76.5c-31.333 8 -58 12 -80 12zM227.996 -157.012c-13.333 0 -26.501 -1.33008 -39.501 -3.99707s-24.667 -6.83398 -35 -12.501s-18.833 -13 -25.5 -22s-10 -19.833 -10 -32.5c0 -20 6.33301 -39.333 19 -58
s27.334 -33.334 44.001 -44.001s33 -15.834 49 -15.501s27 9.5 33 27.5c8 23.333 15.667 47.5 23 72.5l22 76.5c-31.333 8 -58 12 -80 12z" />
    <glyph glyph-name="p_p_y" unicode="ppy" horiz-adv-x="1342" 
d="M169 567c54 0 96.6631 -11.6787 127.996 -35.0117s53.666 -52.333 66.999 -87c14 -36 19 -74.5 15 -115.5s-13 -81.167 -27 -120.5c-10 -28.667 -22 -55.667 -36 -81s-30 -47.5 -48 -66.5s-37.833 -34 -59.5 -45s-44.834 -16.5 -69.501 -16.5
c-19.333 0 -36.666 4.83301 -51.999 14.5s-28.666 22.167 -39.999 37.5l-47 -157c26 -7.33301 52 -15.333 78 -24c19.333 19.333 43 34 71 44s55.667 15 83 15c14.667 0 30.167 -1 46.5 -3s33.5 -4.66699 51.5 -8c17.333 68 33.666 136.833 48.999 206.5
s31.333 135.834 48 198.501c2.66699 10 7.16699 18.667 13.5 26s14.166 13 23.499 17c-12 4 -21.667 11.333 -29 22s-11.333 22.667 -12 36c-0.666992 22 4.16602 41.667 14.499 59s23.833 32.166 40.5 44.499s35.334 21.833 56.001 28.5s41.334 10 62.001 10
c54 0 96.667 -11.667 128 -35s53.666 -52.333 66.999 -87c14 -36 19 -74.5 15 -115.5s-13 -81.167 -27 -120.5c-10 -28.667 -22 -55.667 -36 -81s-30 -47.5 -48 -66.5s-37.833 -34 -59.5 -45s-44.834 -16.5 -69.501 -16.5c-19.333 0 -36.666 4.83301 -51.999 14.5
s-28.666 22.167 -39.999 37.5l-47 -157c40 -11.333 79.5 -23.666 118.5 -36.999s73.5 -24.666 103.5 -33.999l38 -11.5l37 -10.5c4 20.667 12.667 39 26 55s29 29.333 47 40s37.333 18.834 58 24.501s41 8.5 61 8.5c15.333 0 31.5 -1.16699 48.5 -3.5
s35.167 -5.16602 54.5 -8.49902l17 59.5c6 20.333 11.667 41.166 17 62.499c-14 -12.667 -29 -22.5 -45 -29.5s-33 -10.5 -51 -10.5c-22 0 -40.833 4.16699 -56.5 12.5s-28.167 20 -37.5 35s-16.166 32.333 -20.499 52s-6.5 41.167 -6.5 64.5c0 30.667 2.5 63.167 7.5 97.5
s11.167 67.666 18.5 99.999s14.833 62.833 22.5 91.5l19.5 72c4.66699 16.667 14.667 29 30 37s31.333 9.33301 48 4s29.334 -15.833 38.001 -31.5s9.66699 -31.5 3 -47.5c-11.333 -27.333 -22.5 -56.333 -33.5 -87s-21 -61.167 -30 -91.5s-16.667 -59.333 -23 -87
s-10 -52 -11 -73s0.833008 -37.833 5.5 -50.5s13.334 -19 26.001 -19c16.667 0 33.667 9.16699 51 27.5s33.833 40.333 49.5 66s29.834 52.5 42.501 80.5s22.667 52 30 72l51 195c4.66699 17.333 14.334 30.333 29.001 39s30.667 11 48 7
c16.667 -4.66699 29.667 -14.5 39 -29.5s11.333 -30.5 6 -46.5l-96 -298.5l-95 -296.5c40 -11.333 79.333 -23.666 118 -36.999s73 -24.666 103 -33.999c42.667 -14 83.834 -26 123.501 -36s75.667 -17.167 108 -21.5s60.333 -5 84 -2s41.167 10.833 52.5 23.5
c4 4 6.83301 9 8.5 15s2.66699 12 3 18s0.5 11.5 0.5 16.5v10.5c-0.666992 18.667 5 33.834 17 45.501s26.667 17.834 44 18.501s32.166 -5 44.499 -17s18.833 -26.667 19.5 -44c0 -3.33301 -0.333008 -9.5 -1 -18.5s-2 -19 -4 -30s-4.66699 -22.333 -8 -34
s-7.66602 -21.834 -12.999 -30.501c-20 -34 -45.667 -57.667 -77 -71s-66.333 -19.833 -105 -19.5s-79.667 5.83301 -123 16.5s-87.333 23.334 -132 38.001c-50 16.667 -100.167 34.334 -150.5 53.001s-97.833 35.334 -142.5 50.001l-27.5 -78l-27.5 -78
c-6 -17.333 -14.833 -31.666 -26.5 -42.999s-24.667 -19.833 -39 -25.5s-29.833 -8.5 -46.5 -8.5s-33.334 2.66699 -50.001 8c-24 8 -46.667 21 -68 39s-38.666 39.667 -51.999 65l-54 18c-50 16.667 -100.167 34.334 -150.5 53.001s-97.833 35.334 -142.5 50.001l-25 -73
c-8.66699 -25.333 -18.667 -53 -30 -83c-6 -17.333 -14.833 -31.666 -26.5 -42.999s-24.667 -19.833 -39 -25.5s-29.833 -8.5 -46.5 -8.5s-33.334 2.66699 -50.001 8c-18.667 6 -36.5 15.167 -53.5 27.5s-32.167 27 -45.5 44s-24 36.167 -32 57.5s-12 43.666 -12 66.999v6
l-33.5 12c-11 4 -22.167 7.66699 -33.5 11c-7.33301 -23.333 -15.5 -47.666 -24.5 -72.999l-30.5 -83c-6 -17.333 -14.833 -31.666 -26.5 -42.999s-24.667 -19.833 -39 -25.5s-29.833 -8.5 -46.5 -8.5s-33.334 2.66699 -50.001 8c-18.667 6 -36.5 15.167 -53.5 27.5
s-32.167 27 -45.5 44s-24 36.167 -32 57.5s-12 43.666 -12 66.999c0 24.667 6 46.667 18 66s27.5 35.5 46.5 48.5s39.833 22.833 62.5 29.5s45 10 67 10c14.667 0 30.334 -1 47.001 -3s34 -4.66699 52 -8l48.5 206.5c15.667 69.667 31.5 135.834 47.5 198.501
c2.66699 10 7.16699 18.667 13.5 26s14.166 13 23.499 17c-12 4 -21.667 11.333 -29 22s-11.333 22.667 -12 36c-0.666992 22 4.16602 41.667 14.499 59s23.833 32.166 40.5 44.499s35.334 21.833 56.001 28.5s41.334 10 62.001 10zM549.996 293.988l-43.002 -133.003
l-33 -109c-12.667 18 -21.667 39.333 -27 64c-4 17.333 -5.66699 35.333 -5 54s2.33398 36.5 5.00098 53.5s6.16699 32.833 10.5 47.5s8.16602 26.667 11.499 36c3.33301 10.667 10 18.334 20 23.001s20.333 5.33398 31 2.00098s18.334 -10 23.001 -20
s5.33398 -20.333 2.00098 -31c-1.33301 -5.33301 -4.66602 -16.833 -9.99902 -34.5s-9 -36.834 -11 -57.501c-1.33301 -13.333 -1.5 -26.5 -0.5 -39.5s3.16699 -24.667 6.5 -35s8.16602 -18.666 14.499 -24.999s14.5 -9.5 24.5 -9.5c11.333 0 22.666 4.16699 33.999 12.5
s22 19.666 32 33.999s19.167 30.666 27.5 48.999s15.5 37.5 21.5 57.5c7.33301 25.333 12.5 50.833 15.5 76.5s2.33301 48.834 -2 69.501s-13 37.5 -26 50.5s-31.833 19.5 -56.5 19.5c-4.66699 0 -10.834 -0.5 -18.501 -1.5s-15.167 -2.5 -22.5 -4.5
s-13.666 -4.66699 -18.999 -8s-8 -7.33301 -8 -12c0 -11.333 -3.16699 -22.166 -9.5 -32.499s-15.166 -18.166 -26.499 -23.499c14.667 -6 26.167 -16 34.5 -30s9.83301 -28.333 4.5 -43zM122.994 293.985l-12.002 -36.0049c-0.666992 -0.666992 -1 -1.66699 -1 -3
c-13.333 -40 -25 -76.5 -35 -109.5l-28 -93.5c-12.667 18 -21.667 39.333 -27 64c-4 17.333 -5.66699 35.333 -5 54s2.33398 36.5 5.00098 53.5s6.16699 32.833 10.5 47.5s8.16602 26.667 11.499 36c3.33301 10.667 10 18.334 20 23.001s20.333 5.33398 31 2.00098
s18.334 -10 23.001 -20s5.33398 -20.333 2.00098 -31l-7 -23c-0.666992 -0.666992 -1 -1.66699 -1 -3c-2.66699 -9.33301 -5.16699 -19.666 -7.5 -30.999s-4.16602 -23 -5.49902 -35c-1.33301 -13.333 -1.5 -26.5 -0.5 -39.5s3.16699 -24.667 6.5 -35
s8.16602 -18.666 14.499 -24.999s14.5 -9.5 24.5 -9.5c11.333 0 22.666 4.16699 33.999 12.5s22 19.666 32 33.999s19.167 30.666 27.5 48.999s15.5 37.5 21.5 57.5c7.33301 25.333 12.5 50.833 15.5 76.5s2.33301 48.834 -2 69.501s-13 37.5 -26 50.5
s-31.833 19.5 -56.5 19.5c-4.66699 0 -10.834 -0.5 -18.501 -1.5s-15.167 -2.5 -22.5 -4.5s-13.666 -4.66699 -18.999 -8s-8 -7.33301 -8 -12c0 -11.333 -3.16699 -22.166 -9.5 -32.499s-15.166 -18.166 -26.499 -23.499c14.667 -6 26.167 -16 34.5 -30
s9.83301 -28.333 4.5 -43zM911.992 -157.02c-13.333 0 -26.501 -1.3291 -39.501 -3.99609s-24.667 -6.83398 -35 -12.501s-18.833 -13 -25.5 -22s-10 -19.833 -10 -32.5c0 -20 6.33301 -39.333 19 -58s27.334 -33.334 44.001 -44.001s33 -15.834 49 -15.501s27 9.5 33 27.5
l22 67l25 82c-16 3.33301 -30.833 6.16602 -44.5 8.49902s-26.167 3.5 -37.5 3.5zM-199.009 -157.016c-13.333 0 -26.501 -1.33008 -39.501 -3.99707s-24.667 -6.83398 -35 -12.501s-18.833 -13 -25.5 -22s-10 -19.833 -10 -32.5c0 -20 6.33301 -39.333 19 -58
s27.334 -33.334 44.001 -44.001s33 -15.834 49 -15.501s27 9.5 33 27.5c8 23.333 15.667 47.5 23 72.5l22 76.5c-31.333 8 -58 12 -80 12zM227.99 -157.013c-13.333 0 -26.501 -1.33008 -39.501 -3.99707s-24.667 -6.83398 -35 -12.501s-18.833 -13 -25.5 -22
s-10 -19.833 -10 -32.5c0 -20 6.33301 -39.333 19 -58s27.334 -33.334 44.001 -44.001s33 -15.834 49 -15.501s27 9.5 33 27.5c8 23.333 15.667 47.5 23 72.5l22 76.5c-31.333 8 -58 12 -80 12z" />
    <glyph glyph-name="p_y" unicode="py" horiz-adv-x="915" 
d="M169 567c54 0 96.6621 -11.6777 127.995 -35.0107s53.666 -52.333 66.999 -87c14 -36 19 -74.5 15 -115.5s-13 -81.167 -27 -120.5c-10 -28.667 -22 -55.667 -36 -81s-30 -47.5 -48 -66.5s-37.833 -34 -59.5 -45s-44.834 -16.5 -69.501 -16.5
c-19.333 0 -36.666 4.83301 -51.999 14.5s-28.666 22.167 -39.999 37.5l-47 -157c40 -11.333 79.5 -23.666 118.5 -36.999s73.5 -24.666 103.5 -33.999l75 -22c4 20.667 12.667 39 26 55s29 29.333 47 40s37.333 18.834 58 24.501s41 8.5 61 8.5
c15.333 0 31.5 -1.16699 48.5 -3.5s35.167 -5.16602 54.5 -8.49902l17 59.5c6 20.333 11.667 41.166 17 62.499c-14 -12.667 -29 -22.5 -45 -29.5s-33 -10.5 -51 -10.5c-22 0 -40.833 4.16699 -56.5 12.5s-28.167 20 -37.5 35s-16.166 32.333 -20.499 52
s-6.5 41.167 -6.5 64.5c0 30.667 2.5 63.167 7.5 97.5s11.167 67.666 18.5 99.999s14.833 62.833 22.5 91.5l19.5 72c4.66699 16.667 14.667 29 30 37s31.333 9.33301 48 4s29.334 -15.833 38.001 -31.5s9.66699 -31.5 3 -47.5c-11.333 -27.333 -22.5 -56.333 -33.5 -87
s-21 -61.167 -30 -91.5s-16.667 -59.333 -23 -87s-10 -52 -11 -73s0.833008 -37.833 5.5 -50.5s13.334 -19 26.001 -19c16.667 0 33.667 9.16699 51 27.5s33.833 40.333 49.5 66s29.834 52.5 42.501 80.5s22.667 52 30 72l51 195c4.66699 17.333 14.334 30.333 29.001 39
s30.667 11 48 7c16.667 -4.66699 29.667 -14.5 39 -29.5s11.333 -30.5 6 -46.5l-96 -298.5l-95 -296.5c40 -11.333 79.333 -23.666 118 -36.999s73 -24.666 103 -33.999c42.667 -14 83.834 -26 123.501 -36s75.667 -17.167 108 -21.5s60.333 -5 84 -2
s41.167 10.833 52.5 23.5c4 4 6.83301 9 8.5 15s2.66699 12 3 18s0.5 11.5 0.5 16.5v10.5c-0.666992 18.667 5 33.834 17 45.501s26.667 17.834 44 18.501s32.166 -5 44.499 -17s18.833 -26.667 19.5 -44c0 -3.33301 -0.333008 -9.5 -1 -18.5s-2 -19 -4 -30
s-4.66699 -22.333 -8 -34s-7.66602 -21.834 -12.999 -30.501c-20 -34 -45.667 -57.667 -77 -71s-66.333 -19.833 -105 -19.5s-79.667 5.83301 -123 16.5s-87.333 23.334 -132 38.001c-50 16.667 -100.167 34.334 -150.5 53.001s-97.833 35.334 -142.5 50.001l-27.5 -78
l-27.5 -78c-6 -17.333 -14.833 -31.666 -26.5 -42.999s-24.667 -19.833 -39 -25.5s-29.833 -8.5 -46.5 -8.5s-33.334 2.66699 -50.001 8c-24 8 -46.833 21.167 -68.5 39.5s-39.167 40.166 -52.5 65.499l-53 17c-50 16.667 -100.167 34.334 -150.5 53.001
s-97.833 35.334 -142.5 50.001c-7.33301 -23.333 -15.5 -47.666 -24.5 -72.999l-30.5 -83c-6 -17.333 -14.833 -31.666 -26.5 -42.999s-24.667 -19.833 -39 -25.5s-29.833 -8.5 -46.5 -8.5s-33.334 2.66699 -50.001 8c-18.667 6 -36.5 15.167 -53.5 27.5
s-32.167 27 -45.5 44s-24 36.167 -32 57.5s-12 43.666 -12 66.999c0 24.667 6 46.667 18 66s27.5 35.5 46.5 48.5s39.833 22.833 62.5 29.5s45 10 67 10c14.667 0 30.334 -1 47.001 -3s34 -4.66699 52 -8l48.5 206.5c15.667 69.667 31.5 135.834 47.5 198.501
c2.66699 10 7.16699 18.667 13.5 26s14.166 13 23.499 17c-12 4 -21.667 11.333 -29 22s-11.333 22.667 -12 36c-0.666992 22 4.16602 41.667 14.499 59s23.833 32.166 40.5 44.499s35.334 21.833 56.001 28.5s41.334 10 62.001 10zM122.995 293.989l-12.002 -36.0049
c-0.666992 -0.666992 -1 -1.66699 -1 -3c-13.333 -40 -25 -76.5 -35 -109.5l-28 -93.5c-12.667 18 -21.667 39.333 -27 64c-4 17.333 -5.66699 35.333 -5 54s2.33398 36.5 5.00098 53.5s6.16699 32.833 10.5 47.5s8.16602 26.667 11.499 36
c3.33301 10.667 10 18.334 20 23.001s20.333 5.33398 31 2.00098s18.334 -10 23.001 -20s5.33398 -20.333 2.00098 -31l-7 -23c-0.666992 -0.666992 -1 -1.66699 -1 -3c-2.66699 -9.33301 -5.16699 -19.666 -7.5 -30.999s-4.16602 -23 -5.49902 -35
c-1.33301 -13.333 -1.5 -26.5 -0.5 -39.5s3.16699 -24.667 6.5 -35s8.16602 -18.666 14.499 -24.999s14.5 -9.5 24.5 -9.5c11.333 0 22.666 4.16699 33.999 12.5s22 19.666 32 33.999s19.167 30.666 27.5 48.999s15.5 37.5 21.5 57.5c7.33301 25.333 12.5 50.833 15.5 76.5
s2.33301 48.834 -2 69.501s-13 37.5 -26 50.5s-31.833 19.5 -56.5 19.5c-4.66699 0 -10.834 -0.5 -18.501 -1.5s-15.167 -2.5 -22.5 -4.5s-13.666 -4.66699 -18.999 -8s-8 -7.33301 -8 -12c0 -11.333 -3.16699 -22.166 -9.5 -32.499s-15.166 -18.166 -26.499 -23.499
c14.667 -6 26.167 -16 34.5 -30s9.83301 -28.333 4.5 -43zM484.993 -157.016c-13.333 0 -26.501 -1.3291 -39.501 -3.99609s-24.667 -6.83398 -35 -12.501s-18.833 -13 -25.5 -22s-10 -19.833 -10 -32.5c0 -20 6.33301 -39.333 19 -58s27.334 -33.334 44.001 -44.001
s33 -15.834 49 -15.501s27 9.5 33 27.5l22 67l25 82c-16 3.33301 -30.833 6.16602 -44.5 8.49902s-26.167 3.5 -37.5 3.5zM-199.008 -157.012c-13.333 0 -26.501 -1.33008 -39.501 -3.99707s-24.667 -6.83398 -35 -12.501s-18.833 -13 -25.5 -22s-10 -19.833 -10 -32.5
c0 -20 6.33301 -39.333 19 -58s27.334 -33.334 44.001 -44.001s33 -15.834 49 -15.501s27 9.5 33 27.5c8 23.333 15.667 47.5 23 72.5l22 76.5c-30 8 -56.667 12 -80 12z" />
    <glyph glyph-name=".notdef" horiz-adv-x="500" 
 />
    <glyph glyph-name="NULL" horiz-adv-x="0" 
 />
    <glyph glyph-name="NULL" horiz-adv-x="0" 
 />
    <glyph glyph-name="nonmarkingreturn" unicode="&#xd;" horiz-adv-x="500" 
 />
    <glyph glyph-name="space" unicode=" " horiz-adv-x="406" 
 />
    <glyph glyph-name="exclam" unicode="!" horiz-adv-x="418" 
d="M123 2c-11.333 0 -21.334 3.33203 -30.001 9.99902s-14.667 15.667 -18 27c-2.66699 9.33301 -2.66699 18.5 0 27.5s7.33398 16.5 14.001 22.5c-6.66699 8.66699 -10 18.667 -10 30c0 14 5 25.833 15 35.5s21.667 14.5 35 14.5c19.333 0 35.333 -5.5 48 -16.5
s20.334 -25.167 23.001 -42.5c1.33301 -12 0.166016 -23.667 -3.50098 -35s-7.5 -20.666 -11.5 -27.999c-4.66699 -8 -11 -16.333 -19 -25s-18 -14.667 -30 -18c-2.66699 -1.33301 -7 -2 -13 -2zM227.999 309.999c-3.33301 -10.667 -9.83496 -18.4971 -19.502 -23.4971
s-19.834 -5.83301 -30.501 -2.5s-18.5 9.66602 -23.5 18.999s-6.16699 19.333 -3.5 30l21 77.5l27.5 102.5l29.5 112.5l28 108.5l23 89.5c6.66699 25.667 11.334 44.5 14.001 56.5c4.66699 17.333 14.334 30.166 29.001 38.499s30.334 10.5 47.001 6.5
c17.333 -4.66699 30.5 -14.834 39.5 -30.501s10.833 -31.5 5.5 -47.5z" />
    <glyph glyph-name="quotedbl" unicode="&#x22;" horiz-adv-x="469" 
d="M336 591l4 8.00098c6 12 15.667 20.167 29 24.5s26.333 3.16602 39 -3.50098c12 -7.33301 20 -17.333 24 -30s3 -25.334 -3 -38.001l-79 -163c-4.66699 -8.66699 -11.5 -15 -20.5 -19s-18.167 -4.33301 -27.5 -1c-10.667 4 -18.5 10.833 -23.5 20.5
s-5.83301 19.834 -2.5 30.501zM166 591.001l4 8.00098c6 12 15.667 20.167 29 24.5s26.333 3.16602 39 -3.50098c12 -7.33301 20 -17.333 24 -30s3 -25.334 -3 -38.001l-79 -163c-4.66699 -8.66699 -11.5 -15 -20.5 -19s-18.167 -4.33301 -27.5 -1
c-10.667 4 -18.5 10.833 -23.5 20.5s-5.83301 19.834 -2.5 30.501z" />
    <glyph glyph-name="numbersign" unicode="#" horiz-adv-x="604" 
d="M454 441c1.33301 0 2.83105 0.175781 4.49805 0.508789s3.16699 0.5 4.5 0.5c13.333 0 25 -4.83301 35 -14.5s15 -21.5 15 -35.5s-4.83301 -25.833 -14.5 -35.5s-21.5 -14.834 -35.5 -15.501h-48l-25 -73l64 3c1.33301 0 2.83301 0.166992 4.5 0.5s3.16699 0.5 4.5 0.5
c13.333 0 25 -4.83301 35 -14.5s15 -21.5 15 -35.5s-4.83301 -25.833 -14.5 -35.5s-21.5 -14.834 -35.5 -15.501h-107l-52 -151c-3.33301 -10.667 -9.83301 -18.5 -19.5 -23.5s-19.834 -5.83301 -30.501 -2.5s-18.5 9.66602 -23.5 18.999s-6.16699 19.333 -3.5 30l35 128
h-86l-52 -151c-3.33301 -10.667 -9.83301 -18.5 -19.5 -23.5s-19.834 -5.83301 -30.501 -2.5s-18.5 9.66602 -23.5 18.999s-6.16699 19.333 -3.5 30l35 128h-7c-10 0 -18.833 3.16699 -26.5 9.5s-12.167 14.166 -13.5 23.499c-1.33301 11.333 1.16699 21.333 7.5 30
s14.833 14.334 25.5 17.001l35 2l12 43.5c4 14.333 7.66699 29.166 11 44.499h-51c-10 0 -18.833 3.16699 -26.5 9.5s-12.167 14.166 -13.5 23.499c-1.33301 11.333 1.16699 21.333 7.5 30s14.833 14.334 25.5 17.001l80 4l26 101l16 64
c4.66699 17.333 14.334 30.166 29.001 38.499s30.334 10.5 47.001 6.5c17.333 -4.66699 30.5 -14.834 39.5 -30.501s10.833 -31.5 5.5 -47.5l-44 -126l63 3l24.5 95.5l15.5 60.5c4.66699 17.333 14.334 30.166 29.001 38.499s30.334 10.5 47.001 6.5
c17.333 -4.66699 30.5 -14.834 39.5 -30.501s10.833 -31.5 5.5 -47.5l-41 -116h4zM206.998 258.009l79 4l20 79h-71z" />
    <glyph glyph-name="dollar" unicode="$" horiz-adv-x="765" 
d="M253 -36c-5.33301 -9.33301 -13.3311 -15.6699 -23.998 -19.0029s-21 -2.33301 -31 3c-8.66699 4.66699 -14.667 11.667 -18 21s-3.33301 18.666 0 27.999l11 33c-56.667 23.333 -100.5 58.166 -131.5 104.499s-50.5 99.5 -58.5 159.5c-5.33301 40 -5.33301 81.667 0 125
s15.333 87 30 131c6.66699 20 18 33 34 39s31.5 6.33301 46.5 1s26.833 -15.5 35.5 -30.5s8.66699 -32.833 0 -53.5c-8 -20 -15.167 -41.5 -21.5 -64.5s-11 -46 -14 -69s-4.16699 -45.667 -3.5 -68s4 -43.166 10 -62.499c8.66699 -28 22.167 -53 40.5 -75
s39.166 -39.667 62.499 -53l147 417c-28 21.333 -51.5 44.833 -70.5 70.5s-28.5 54.5 -28.5 86.5c0 24 6 48.667 18 74s28.5 49 49.5 71s45.833 40.833 74.5 56.5s60 25.834 94 30.501l12 34c5.33301 13.333 14 23 26 29s24.667 6.66699 38 2s23 -13.167 29 -25.5
s6.66699 -25.166 2 -38.499l-4 -7c24 -7.33301 43.167 -18.166 57.5 -32.499s24.5 -30.333 30.5 -48s8.5 -36 7.5 -55s-4.16699 -36.833 -9.5 -53.5s-15.333 -29.167 -30 -37.5s-30.334 -10.166 -47.001 -5.49902c-8 2 -15.667 6.16699 -23 12.5s-12.833 14 -16.5 23
s-5.33398 19.5 -5.00098 31.5s3.83301 25 10.5 39c-2 6.66699 -7.33301 11.667 -16 15l-86 -229l77.5 -54c27 -19.333 51.833 -40.5 74.5 -63.5s41.5 -48 56.5 -75s22.5 -56.5 22.5 -88.5c0 -42 -10.667 -80.833 -32 -116.5s-49.166 -66.5 -83.499 -92.5
s-73 -46.333 -116 -61s-86.5 -22 -130.5 -22c-30.667 0 -57.667 2.33301 -81 7zM326.002 84.9961c38.667 0 72.668 4.50098 102.001 13.501s54.5 20.333 75.5 34s38.333 28.667 52 45s24.5 32.166 32.5 47.499s13.667 29 17 41s5 20.667 5 26
c0 18.667 -4.66699 36.167 -14 52.5s-21.833 32 -37.5 47s-33.334 29.5 -53.001 43.5l-60.5 42l-146 -390c4.66699 -1.33301 9.16699 -2 13.5 -2h13.5zM378.003 679.997c0 -14 8.66699 -29.666 26 -46.999l53 152c-21.333 -10.667 -39.833 -24.834 -55.5 -42.501
s-23.5 -38.5 -23.5 -62.5z" />
    <glyph glyph-name="percent" unicode="%" horiz-adv-x="544" 
d="M130 28c-4.66699 -10.667 -11.9971 -18.002 -21.9971 -22.002s-20 -3.66699 -30 1c-10.667 4.66699 -17.834 11.834 -21.501 21.501s-3.83398 19.5 -0.500977 29.5l26 63l39 94.5l48 114.5l52 123l50.5 121l45 107.5l34 82.5l18.5 47
c6.66699 16.667 17.667 28.334 33 35.001s31 7.33398 47 2.00098c16.667 -6.66699 28.667 -18.334 36 -35.001s7.66602 -32.667 0.999023 -48zM160.003 647.998c-32 0 -57.665 11.333 -76.998 34c-17.333 19.333 -26 42.666 -26 69.999c0 28 9 52 27 72
c19.333 22.667 45.666 34 78.999 34c31.333 0 56.666 -11.667 75.999 -35c17.333 -19.333 26 -43 26 -71c0 -27.333 -8.66699 -50.666 -26 -69.999c-20.667 -22.667 -47 -34 -79 -34zM163.005 777.998c-6.66699 0 -11.334 -0.833984 -14.001 -2.50098
s-4.66699 -3.16699 -6 -4.5c-4 -5.33301 -6 -11.666 -6 -18.999c0 -3.33301 1.16699 -8.16602 3.5 -14.499s8.83301 -9.5 19.5 -9.5c10 0 16.667 2.66699 20 8s5 10.666 5 15.999c0 1.33301 -0.166992 3.33301 -0.5 6s-1.16602 5.5 -2.49902 8.5s-3.5 5.66699 -6.5 8
s-7.16699 3.5 -12.5 3.5zM384.005 8.99707c-32 0 -57.665 11.333 -76.998 34c-17.333 19.333 -26 42.666 -26 69.999c0 28 9 52 27 72c19.333 22.667 45.666 34 78.999 34c31.333 0 56.666 -11.667 75.999 -35c17.333 -19.333 26 -43 26 -71
c0 -27.333 -8.66699 -50.666 -26 -69.999c-20.667 -22.667 -47 -34 -79 -34zM387.007 138.997c-6.66699 0 -11.334 -0.833984 -14.001 -2.50098s-4.66699 -3.16699 -6 -4.5c-4 -5.33301 -6 -11.666 -6 -18.999c0 -3.33301 1.16699 -8.16602 3.5 -14.499
s8.83301 -9.5 19.5 -9.5c10 0 16.667 2.66699 20 8s5 10.666 5 15.999c0 1.33301 -0.166992 3.33301 -0.5 6s-1.16602 5.5 -2.49902 8.5s-3.5 5.66699 -6.5 8s-7.16699 3.5 -12.5 3.5z" />
    <glyph glyph-name="ampersand" unicode="&#x26;" horiz-adv-x="605" 
d="M536 -267c-46 4.66699 -85.8271 18.9941 -119.494 42.9941s-62.334 51.5 -86.001 82.5s-42.5 62.333 -56.5 94s-24.333 57.834 -31 78.501h-1c-40 -21.333 -75.333 -33 -106 -35s-56.167 2 -76.5 12s-35.833 24.333 -46.5 43s-16 38.334 -16 59.001
c0 19.333 3.83301 40.333 11.5 63s17.667 45.5 30 68.5s25.666 45.333 39.999 67s28.166 41.5 41.499 59.5s25.166 33.333 35.499 46s17.166 21.334 20.499 26.001c-2.66699 58 -2.33398 108.5 0.999023 151.5s9.33301 79.167 18 108.5c8 26 17.333 47 28 63
s22 28.5 34 37.5s24 15 36 18s23.333 4.5 34 4.5c14 0 27.5 -4 40.5 -12s24.167 -19 33.5 -33s16 -30.667 20 -50s4 -40 0 -62c-4 -19.333 -11.667 -39.166 -23 -59.499s-24.166 -40.666 -38.499 -60.999s-29.5 -40.333 -45.5 -60s-30.333 -38.167 -43 -55.5
c2 -22 4.16699 -44.167 6.5 -66.5s5.16602 -44.166 8.49902 -65.499l8 -45.5c2.66699 -15 5.66699 -29.833 9 -44.5c14 21.333 27.333 44.5 40 69.5s23 49.5 31 73.5c6 18.667 11.333 36.334 16 53.001s8.66699 31.5 12 44.5s5.83301 23.333 7.5 31s2.5 12.167 2.5 13.5
c3.33301 17.333 11.833 30.5 25.5 39.5s28.834 11.833 45.501 8.5s29.5 -11.833 38.5 -25.5s11.833 -28.834 8.5 -45.501c-16.667 -70 -41.167 -137 -73.5 -201s-73.5 -121 -123.5 -171c14.667 -40 29.5 -74.667 44.5 -104s31 -53.833 48 -73.5s35.5 -35 55.5 -46
s42.333 -18.5 67 -22.5c17.333 -1.33301 31 -8.5 41 -21.5s14.333 -27.833 13 -44.5c-2 -16.667 -9.33301 -30 -22 -40s-27.334 -14.333 -44.001 -13zM184.006 318.994c-5.33301 -6.66699 -11.667 -15.167 -19 -25.5s-15 -21.833 -23 -34.5l-24.5 -40
c-8.33301 -14 -15.5 -27.667 -21.5 -41c-9.33301 -19.333 -15.5 -37.333 -18.5 -54s-0.833008 -28.667 6.5 -36c8 -8 18 -12.167 30 -12.5s24.333 1.66699 37 6s25 9.83301 37 16.5s22 13 30 19c-8 34.667 -15 68.5 -21 101.5s-10.333 66.5 -13 100.5zM337.005 663.994
c4.66699 10.667 7 20.668 7 30.001s-1 17.5 -3 24.5s-4.83301 12.5 -8.5 16.5s-7.16699 6 -10.5 6c-5.33301 0 -10.166 -2 -14.499 -6s-8.5 -9.16699 -12.5 -15.5s-7.33301 -13.166 -10 -20.499l-7 -20c-5.33301 -20.667 -8.5 -41.334 -9.5 -62.001
s-1.5 -41.334 -1.5 -62.001c11.333 17.333 23.666 34.833 36.999 52.5s24.333 36.5 33 56.5z" />
    <glyph glyph-name="quotesingle" unicode="'" horiz-adv-x="305" 
d="M204 591l4 8.00098c6 12 15.667 20.167 29 24.5s26.333 3.16602 39 -3.50098c12 -7.33301 20 -17.333 24 -30s3 -25.334 -3 -38.001l-79 -163c-4.66699 -8.66699 -11.5 -15 -20.5 -19s-18.167 -4.33301 -27.5 -1c-10.667 4 -18.5 10.833 -23.5 20.5
s-5.83301 19.834 -2.5 30.501z" />
    <glyph glyph-name="parenleft" unicode="(" horiz-adv-x="535" 
d="M24 299c0 32.667 3.99805 67.6719 11.998 105.005s20 74.666 36 111.999s36 74.166 60 110.499s52 70.166 84 101.499s68 59.166 108 83.499s84 43.5 132 57.5c10.667 3.33301 20.834 2.5 30.501 -2.5s16.167 -12.833 19.5 -23.5c3.33301 -9.33301 3 -18.5 -1 -27.5
s-10.667 -15.833 -20 -20.5c-45.333 -19.333 -88.5 -46.333 -129.5 -81s-77.167 -74.167 -108.5 -118.5s-56.333 -92.166 -75 -143.499s-28 -103.333 -28 -156c0 -44.667 4.33301 -84.5 13 -119.5s20.167 -66.167 34.5 -93.5s30.833 -51.333 49.5 -72
s37.667 -38.334 57 -53.001s38.333 -27.167 57 -37.5s35.334 -18.833 50.001 -25.5c10 -4.66699 17 -12.167 21 -22.5s3.66699 -20.833 -1 -31.5c-4 -9.33301 -10.5 -16.166 -19.5 -20.499s-18.167 -4.83301 -27.5 -1.5c-49.333 14 -95.5 34.167 -138.5 60.5
s-80.5 59.166 -112.5 98.499s-57.167 85.666 -75.5 138.999s-27.5 114 -27.5 182z" />
    <glyph glyph-name="parenright" unicode=")" horiz-adv-x="535" 
d="M511 389c0 -33.333 -3.99707 -68.5029 -11.9971 -105.503s-20 -74.167 -36 -111.5s-36 -74.166 -60 -110.499s-52 -70.166 -84 -101.499s-68 -59.166 -108 -83.499s-84 -43.5 -132 -57.5c-10.667 -3.33301 -20.834 -2.5 -30.501 2.5s-16.167 12.833 -19.5 23.5
c-3.33301 9.33301 -3 18.5 1 27.5s10.667 15.833 20 20.5c44.667 19.333 87.667 46.333 129 81s77.666 74.167 108.999 118.5s56.333 92.166 75 143.499s28 103.333 28 156c0 44 -4.33301 83.667 -13 119s-20.167 66.666 -34.5 93.999s-30.833 51.333 -49.5 72
s-37.667 38.334 -57 53.001s-38.333 27.167 -57 37.5s-35.334 18.833 -50.001 25.5c-10 4.66699 -17 12.167 -21 22.5s-3.66699 20.833 1 31.5c4 9.33301 10.5 16.166 19.5 20.499s18.167 4.83301 27.5 1.5c49.333 -14 95.5 -34.167 138.5 -60.5s80.5 -59.166 112.5 -98.499
s57.167 -85.666 75.5 -138.999s27.5 -114 27.5 -182z" />
    <glyph glyph-name="asterisk" unicode="*" horiz-adv-x="431" 
d="M375 386c6 -9.33301 8.16602 -19.502 6.49902 -30.502s-6.83398 -19.833 -15.501 -26.5c-8 -5.33301 -16.833 -7.66602 -26.5 -6.99902s-18.167 4.66699 -25.5 12l-63 48l-4 -66c-2.66699 -10.667 -8.33398 -19.167 -17.001 -25.5s-18.667 -8.83301 -30 -7.5
c-9.33301 1.33301 -17 5.83301 -23 13.5s-9 16.5 -9 26.5v51l-51 -39c-7.33301 -7.33301 -15.833 -11.5 -25.5 -12.5s-18.167 1.5 -25.5 7.5c-9.33301 6.66699 -14.666 15.334 -15.999 26.001s0.666992 20.667 6 30l89 78l-95 74c-9.33301 10 -14 21.833 -14 35.5
s5 25.5 15 35.5s22 14.833 36 14.5s25.667 -5.16602 35 -14.499l5 -7l40 -35v43c0.666992 14.667 5.83398 26.834 15.501 36.501s21.834 14.5 36.501 14.5c13.333 0 24.833 -5 34.5 -15s14.5 -21.667 14.5 -35c0 -1.33301 -0.166992 -2.83301 -0.5 -4.5
s-0.5 -3.16699 -0.5 -4.5l-3 -33l40 34l6 7c9.33301 9.33301 21 14.166 35 14.499s25.667 -4.5 35 -14.5c10 -10 15 -21.833 15 -35.5s-4.66699 -25.834 -14 -36.501l-96 -74z" />
    <glyph glyph-name="plus" unicode="+" horiz-adv-x="406" 
d="M232 167c-2.66699 -10.667 -8.33496 -19.166 -17.002 -25.499s-18.667 -8.83301 -30 -7.5c-9.33301 1.33301 -17.166 5.83301 -23.499 13.5s-9.5 16.5 -9.5 26.5v97h-96c-10 0 -18.833 3.16699 -26.5 9.5s-12.167 14.166 -13.5 23.499
c-1.33301 11.333 1.16699 21.333 7.5 30s14.833 14.334 25.5 17.001l103 7v104c0.666992 14 5.83398 25.833 15.501 35.5s21.5 14.5 35.5 14.5s25.833 -5 35.5 -15s14.5 -21.667 14.5 -35c0 -1.33301 -0.166992 -2.83301 -0.5 -4.5s-0.5 -3.16699 -0.5 -4.5l-6 -89l89 7
c1.33301 0 2.83301 0.166992 4.5 0.5s3.16699 0.5 4.5 0.5c13.333 0 25 -4.83301 35 -14.5s15 -21.5 15 -35.5s-4.83301 -25.833 -14.5 -35.5s-21.5 -14.834 -35.5 -15.501h-105z" />
    <glyph glyph-name="comma" unicode="," horiz-adv-x="217" 
d="M100 87l3.99707 8c7.33301 11.333 18 18.333 32 21s26.667 0 38 -8s18.333 -18.667 21 -32s0.333984 -26 -6.99902 -38l-97 -153c-5.33301 -8 -12.666 -13.5 -21.999 -16.5s-18.666 -2.16699 -27.999 2.5c-10 5.33301 -17 13 -21 23s-3.66699 20 1 30z" />
    <glyph glyph-name="hyphen" unicode="-" horiz-adv-x="332" 
d="M221 325c1.33301 0 2.83301 0.167969 4.5 0.500977s3.16699 0.5 4.5 0.5c13.333 0 25 -4.83301 35 -14.5s15 -21.5 15 -35.5s-4.83301 -25.833 -14.5 -35.5s-21.5 -14.834 -35.5 -15.501h-148c-10 0 -18.833 3.16699 -26.5 9.5s-12.167 14.166 -13.5 23.499
c-1.33301 11.333 1.16699 21.333 7.5 30s14.833 14.334 25.5 17.001z" />
    <glyph glyph-name="period" unicode="." horiz-adv-x="269" 
d="M76 2c-11.333 0 -21.334 3.33203 -30.001 9.99902s-14.667 15.667 -18 27c-2.66699 9.33301 -2.66699 18.5 0 27.5s7.33398 16.5 14.001 22.5c-6.66699 8.66699 -10 18.667 -10 30c0 14 5 25.833 15 35.5s21.667 14.5 35 14.5c19.333 0 35.333 -5.5 48 -16.5
s20.334 -25.167 23.001 -42.5c1.33301 -12 0.166016 -23.667 -3.50098 -35s-7.5 -20.666 -11.5 -27.999c-4.66699 -8 -11 -16.333 -19 -25s-18 -14.667 -30 -18c-2.66699 -1.33301 -7 -2 -13 -2z" />
    <glyph glyph-name="slash" unicode="/" horiz-adv-x="440" 
d="M89 28c-4.66699 -10.667 -11.9971 -18.002 -21.9971 -22.002s-20 -3.66699 -30 1c-10.667 4.66699 -17.834 11.834 -21.501 21.501s-3.83398 19.5 -0.500977 29.5l25 63l36.5 94.5l44 114.5l47.5 123l46.5 121l41 107.5l31 82.5l17.5 47
c6.66699 16.667 17.667 28.334 33 35.001s31 7.33398 47 2.00098c16.667 -6.66699 28.667 -18.334 36 -35.001s7.66602 -32.667 0.999023 -48z" />
    <glyph glyph-name="zero" unicode="0" horiz-adv-x="712" 
d="M696 452c-5.33301 -28.667 -12.832 -59.668 -22.499 -93.001s-22.5 -66.833 -38.5 -100.5s-35.167 -66 -57.5 -97s-48.5 -58.667 -78.5 -83s-64 -43.666 -102 -57.999s-80.667 -21.5 -128 -21.5c-21.333 0 -43.833 3.16699 -67.5 9.5s-46.667 16.5 -69 30.5
s-42.666 32.5 -60.999 55.5s-33.166 51.333 -44.499 85s-18 73.167 -20 118.5s2.66699 97.333 14 156c6.66699 36 17 73.167 31 111.5s31 75.666 51 111.999s43 70.333 69 102s54.5 59 85.5 82s64.333 40.5 100 52.5s73.5 16.667 113.5 14
c15.333 -1.33301 28.166 -8.16602 38.499 -20.499s15.5 -26.166 15.5 -41.499c39.333 4 72.666 -3 99.999 -21s48.166 -45 62.499 -81s22.333 -80.333 24 -133s-3.5 -112.334 -15.5 -179.001zM425.001 809.999c-25.333 -2.66699 -51.667 -11.8311 -79 -27.498
s-54.166 -37.667 -80.499 -66s-51.333 -63.166 -75 -104.499s-44.167 -89 -61.5 -143c-18 -54.667 -27.5 -105.834 -28.5 -153.501s4.83301 -89 17.5 -124s31.834 -62.5 57.501 -82.5s56.167 -30 91.5 -30c42.667 0 80.667 7.16699 114 21.5s62.666 33 87.999 56
s47.166 48.833 65.499 77.5s33.666 57.667 45.999 87s21.833 57.5 28.5 84.5s11.667 50.167 15 69.5l5.5 45.5c2.33301 19.667 3.83301 41 4.5 64s0.166992 46.667 -1.5 71s-5.5 46.333 -11.5 66s-14.667 35.667 -26 48s-26.333 18.5 -45 18.5
c-16 0 -31.167 -6.33301 -45.5 -19s-27 -28.334 -38 -47.001s-20 -39.334 -27 -62.001s-11 -43.667 -12 -63s1.5 -36 7.5 -50s16.333 -22 31 -24c16.667 1.33301 31 -3.66699 43 -15s18.333 -25.666 19 -42.999c0.666992 -16.667 -4.66602 -31 -15.999 -43
s-25.333 -18.333 -42 -19c-22 -0.666992 -43.5 3.83301 -64.5 13.5s-38.167 25.167 -51.5 46.5c-12 18.667 -20.333 40.667 -25 66s-4.66699 53 0 83s14.667 61.667 30 95s37.333 67.666 66 102.999z" />
    <glyph glyph-name="one" unicode="1" horiz-adv-x="399" 
d="M170 28c-3.33301 -10.667 -9.83496 -18.499 -19.502 -23.499s-19.834 -5.83301 -30.501 -2.5s-18.5 9.66602 -23.5 18.999s-6.16699 19.333 -3.5 30l155 564c-18 -12.667 -38 -23 -60 -31s-46.333 -12.667 -73 -14c-17.333 -1.33301 -32.833 3.33398 -46.5 14.001
s-21.167 24.667 -22.5 42c-1.33301 8.66699 -0.666016 17.334 2.00098 26.001s6.5 16.167 11.5 22.5s11.167 11.5 18.5 15.5s15.333 5.66699 24 5c17.333 -3.33301 36 -2.83301 56 1.5s39.833 13.5 59.5 27.5s38.167 33.167 55.5 57.5s32 54.833 44 91.5l2 7
c4.66699 17.333 14.334 30.166 29.001 38.499s30.334 10.5 47.001 6.5c17.333 -4.66699 30.5 -14.834 39.5 -30.501s10.833 -31.5 5.5 -47.5z" />
    <glyph glyph-name="two" unicode="2" horiz-adv-x="829" 
d="M270 644c0 40.667 9.49512 78.335 28.4951 113.002s43 64.5 72 89.5s60.833 44.5 95.5 58.5s67.334 21 98.001 21c32.667 0 63.167 -5.16699 91.5 -15.5s52.833 -26 73.5 -47s36.834 -47.833 48.501 -80.5s17.5 -71 17.5 -115c0 -36.667 -5.66699 -72.834 -17 -108.501
s-26.333 -70.167 -45 -103.5s-40 -65 -64 -95s-48.833 -57.833 -74.5 -83.5s-51.167 -48.667 -76.5 -69s-48.666 -37.5 -69.999 -51.5c15.333 -17.333 31 -31.833 47 -43.5s30.333 -17.5 43 -17.5s26 2.66699 40 8s27 11.833 39 19.5s22.667 15.334 32 23.001
s16 14.167 20 19.5c4 4 9.66699 7.66699 17 11s15.333 5.16602 24 5.49902s17.334 -1 26.001 -4s16 -8.83301 22 -17.5c9.33301 -13.333 13.666 -28.166 12.999 -44.499s-7.66699 -29.5 -21 -39.5c-18 -14 -36.833 -27 -56.5 -39s-39.667 -22 -60 -30s-41 -13.333 -62 -16
s-41.833 -1.33398 -62.5 3.99902c-23.333 6 -46.166 17.667 -68.499 35s-45.833 41 -70.5 71l-2 2c-50.667 -32 -95.667 -56.833 -135 -74.5s-75 -27.167 -107 -28.5c-36.667 -2 -66.5 5.66699 -89.5 23s-34.5 42 -34.5 74c0 20.667 4 40.167 12 58.5s19 35 33 50
s30.5 28 49.5 39s39.5 19.167 61.5 24.5c34 8.66699 70.167 10 108.5 4s75.166 -23 110.499 -51c51.333 41.333 97.333 85.333 138 132s74.667 93 102 139s47.5 90.167 60.5 132.5s18 79.5 15 111.5s-15 57.667 -36 77s-51.5 29 -91.5 29
c-28.667 0 -54.834 -5.83301 -78.501 -17.5s-44 -26.167 -61 -43.5s-30.333 -36.166 -40 -56.499s-14.667 -39 -15 -56s4.33398 -31 14.001 -42s25.5 -16.167 47.5 -15.5c16.667 1.33301 31.334 -3.33398 44.001 -14.001s19.667 -24.334 21 -41.001
c0.666992 -8 -0.5 -16 -3.5 -24s-7 -15 -12 -21s-11 -10.833 -18 -14.5s-14.5 -5.5 -22.5 -5.5c-55.333 1.33301 -97.666 15.833 -126.999 43.5s-44 63.5 -44 107.5zM83.9951 91.001c4 -8 14.502 -11.167 31.502 -9.5s36.5 6.5 58.5 14.5s44.667 18.333 68 31
s43.666 25.667 60.999 39c-30 18.667 -60.833 27.334 -92.5 26.001s-58.834 -9.33301 -81.501 -24c-17.333 -11.333 -30.333 -24.833 -39 -40.5s-10.667 -27.834 -6 -36.501z" />
    <glyph glyph-name="three" unicode="3" horiz-adv-x="741" 
d="M80 184c0 -23.333 5.66406 -42.001 16.9971 -56.001s24.833 -24.833 40.5 -32.5s32.167 -12.834 49.5 -15.501s32 -4 44 -4c36.667 0 69.834 8.5 99.501 25.5s55.334 38.333 77.001 64s39.167 53.5 52.5 83.5s22 57.667 26 83c4 29.333 5.5 56.5 4.5 81.5
s-7.33301 46.5 -19 64.5s-30.334 32.5 -56.001 43.5s-60.834 17.167 -105.501 18.5c-16.667 0 -30.834 5.83301 -42.501 17.5s-17.5 25.834 -17.5 42.501c1.33301 20.667 9 36 23 46l190 155l-72 -11c-26.667 -4 -53.834 -6.66699 -81.501 -8s-54.667 -0.333008 -81 3
s-49.833 10.333 -70.5 21s-37.167 26 -49.5 46s-18.5 46.333 -18.5 79c0 16.667 6.33301 30.5 19 41.5s27.334 16.167 44.001 15.5c16.667 -1.33301 30.667 -8 42 -20s16.333 -26.333 15 -43c-1.33301 -10.667 2.83398 -19 12.501 -25s23 -10.167 40 -12.5
s37 -3.33301 60 -3s47.833 1.5 74.5 3.5c36 3.33301 73.5 8.16602 112.5 14.499s75.833 14.166 110.5 23.499c12.667 3.33301 25 4.83301 37 4.5s23.667 -7.16602 35 -20.499c10.667 -13.333 15.167 -28.166 13.5 -44.499s-9.16699 -29.833 -22.5 -40.5l-228 -185
c26 -6.66699 50.5 -19.167 73.5 -37.5s42 -41.166 57 -68.499s25 -58.833 30 -94.5s2.5 -73.834 -7.5 -114.501c-16 -65.333 -39.667 -119.166 -71 -161.499s-65.5 -75.833 -102.5 -100.5s-74.667 -42 -113 -52s-72.5 -15 -102.5 -15c-48.667 0 -87.667 7.66699 -117 23
s-52 33.666 -68 54.999s-26.667 43 -32 65s-8 40 -8 54c0 37.333 7.16699 69.833 21.5 97.5s32 50.5 53 68.5s43.333 31.5 67 40.5s45.167 13.5 64.5 13.5c26.667 0 48.834 -5 66.501 -15s31.334 -22.667 41.001 -38s15.834 -32.166 18.501 -50.499s2.66699 -35.833 0 -52.5
c-1.33301 -16.667 -8.5 -30 -21.5 -40s-27.833 -14 -44.5 -12s-30.5 10.333 -41.5 25s-13.833 36 -8.5 64c1.33301 6 -0.166992 10.5 -4.5 13.5s-10.333 4.33301 -18 4s-16.5 -2.33301 -26.5 -6s-19.667 -9.16699 -29 -16.5c-14 -10.667 -26.167 -25 -36.5 -43
s-15.5 -38.667 -15.5 -62z" />
    <glyph glyph-name="four" unicode="4" horiz-adv-x="889" 
d="M459 28c-3.33301 -10.667 -9.83789 -18.4961 -19.5049 -23.4961s-19.834 -5.83301 -30.501 -2.5s-18.5 9.66602 -23.5 18.999s-6.16699 19.333 -3.5 30l71 267l-51 -3c-30 -2 -59.5 -4.66699 -88.5 -8l-88.5 -10c-15.333 -1.33301 -30.166 -3 -44.499 -5l-44.5 -6l-44 -7
l-22 -3l-22 -4c-10.667 -2 -20.5 -0.166992 -29.5 5.5s-14.833 14.167 -17.5 25.5c-2 8.66699 -1 17 3 25v1l2 4l2 3l11 22c2 5.33301 4.16699 10.166 6.5 14.499l7.5 14.5l16 27.5l16 27.5l33 55l35 53c24.667 34.667 50.667 68.667 78 102l22 25l22 24l22.5 23.5
l23.5 22.5c15.333 14.667 31.666 29 48.999 43l27 21l27 19l28 18l30 17l30 15c11.333 6 22 10.667 32 14l32 12l34 9c5.33301 1.33301 11 2.5 17 3.5s11.667 2.16699 17 3.5c6 1.33301 11.833 2.33301 17.5 3l17.5 2l35 3h18c6 0 12 -0.333008 18 -1c11.333 0 23 -1 35 -3
l18 -2c6 -0.666992 11.667 -1.66699 17 -3c16.667 -3.33301 29.667 -11.833 39 -25.5s12.333 -28.834 9 -45.501c-3.33301 -16 -11.833 -28.667 -25.5 -38s-28.834 -12.333 -45.501 -9h-2l-26 6l-27 3c-4.66699 0.666992 -9.16699 1 -13.5 1h-13.5h-26l-27 -3l-27 -4
c-4.66699 -1.33301 -9.16699 -2.5 -13.5 -3.5s-8.5 -2.16699 -12.5 -3.5l-13.5 -4l-13.5 -4l-26 -10l-25 -12c-10 -4 -18.333 -8.33301 -25 -13c-4.66699 -2 -9 -4.16699 -13 -6.5s-8 -4.83301 -12 -7.5l-24 -16l-12 -8c-4 -2.66699 -8 -5.66699 -12 -9
c-7.33301 -5.33301 -14.833 -11.166 -22.5 -17.499l-22.5 -18.5l-44 -40l-41 -43l-39.5 -46c-13 -15.333 -25.5 -31 -37.5 -47c-24 -32 -47 -65 -69 -99l-9.5 -15l-9.5 -15c0.666992 0 1.33398 0.166992 2.00098 0.5s1.33398 0.5 2.00098 0.5
c15.333 3.33301 30.333 6.33301 45 9l45 8c30 5.33301 59.833 10.333 89.5 15s59.834 9 90.501 13l44 5.5c14 1.66699 28.667 3.16699 44 4.5l60 235c4.66699 17.333 14.334 30.166 29.001 38.499s30.334 10.5 47.001 6.5c17.333 -4.66699 30.5 -14.834 39.5 -30.501
s10.833 -31.5 5.5 -47.5l-67 -197c5.33301 0 10.833 -0.166992 16.5 -0.5s11.167 -0.5 16.5 -0.5l24.5 -2c8.33301 -0.666992 17.166 -1.66699 26.499 -3c4.66699 -1.33301 9.33398 -2.5 14.001 -3.5s9.66699 -2.16699 15 -3.5l16 -6c6 -2.66699 11.667 -5.66699 17 -9
c3.33301 -1.33301 6.5 -3.16602 9.5 -5.49902s6.16699 -5.16602 9.5 -8.49902s6.5 -6.83301 9.5 -10.5s5.83301 -8.16699 8.5 -13.5c1.33301 -2 2.5 -4.33301 3.5 -7s2.16699 -5.33398 3.5 -8.00098c2 -6 3 -11.333 3 -16c0.666992 -3.33301 1 -6.16602 1 -8.49902v-7.5v-6
l-1 -1v-6c-3.33301 -16.667 -11.5 -29.834 -24.5 -39.501s-27.833 -13.167 -44.5 -10.5c-14 2 -25.667 8 -35 18s-14.666 21.667 -15.999 35c-1.33301 1.33301 -3.16602 2.16602 -5.49902 2.49902s-4.5 0.833008 -6.5 1.5c-10.667 2.66699 -23 4.66699 -37 6
c-14 2 -28 3 -42 3h-19z" />
    <glyph glyph-name="five" unicode="5" horiz-adv-x="706" 
d="M146 451c-6 0 -11.3311 1.00195 -15.998 3.00195c-16 4.66699 -28.167 14.167 -36.5 28.5s-10.166 29.5 -5.49902 45.5l102 355c3.33301 13.333 10.666 23.833 21.999 31.5s23.666 11.5 36.999 11.5h12c22 -2.66699 46.5 -4.5 73.5 -5.5s53 -1 78 0s47.333 2.66699 67 5
s32.5 5.5 38.5 9.5c4 15.333 12.667 27.5 26 36.5s28 12.167 44 9.5c16 -3.33301 29 -11.666 39 -24.999s13.333 -28.333 10 -45c-5.33301 -28.667 -19.166 -49.834 -41.499 -63.501s-49.166 -22.5 -80.499 -26.5s-65.666 -4.16699 -102.999 -0.5s-74 8.83398 -110 15.501
l-67 -234c30 14 57 22.167 81 24.5s42.667 3.5 56 3.5c36.667 0 71.167 -6.66699 103.5 -20s60.5 -32.333 84.5 -57s43 -54.667 57 -90s21 -75 21 -119c0 -48 -11.833 -93 -35.5 -135s-54.167 -78.833 -91.5 -110.5s-78.833 -56.667 -124.5 -75s-90.167 -27.5 -133.5 -27.5
c-50 0 -91.167 7.16699 -123.5 21.5s-57.666 32 -75.999 53s-31.166 43.5 -38.499 67.5s-11 45.333 -11 64c0 38.667 6 72.834 18 102.501s27.667 54.667 47 75s41.166 35.666 65.499 45.999s48.5 15.5 72.5 15.5c19.333 0 38.666 -3.16699 57.999 -9.5
s36.333 -16.166 51 -29.499s26 -30.5 34 -51.5s11 -45.833 9 -74.5c-1.33301 -17.333 -8.16602 -31.5 -20.499 -42.5s-26.833 -15.833 -43.5 -14.5s-30.667 8 -42 20s-16.333 26.667 -15 44c1.33301 14 0.666016 24.833 -2.00098 32.5s-6 13.167 -10 16.5
s-8.5 5.33301 -13.5 6s-8.83301 1 -11.5 1c-10.667 1.33301 -22 -0.5 -34 -5.5s-23.167 -13 -33.5 -24s-19.333 -24.333 -27 -40s-12.834 -33.5 -15.501 -53.5c-2.66699 -23.333 -1 -43 5 -59s14.5 -29.167 25.5 -39.5s23.667 -18.333 38 -24s28 -9.83398 41 -12.501
s24.5 -4.16699 34.5 -4.5s16.667 -0.5 20 -0.5c28.667 0 55.167 5 79.5 15s46.166 23 65.499 39s36.333 34.333 51 55s27 41.667 37 63s17.5 42.166 22.5 62.499s7.5 38.166 7.5 53.499c0 26.667 -5.16699 50 -15.5 70s-23.333 36.667 -39 50s-33 23.5 -52 30.5
s-37.167 10.5 -54.5 10.5c-24 0 -44.5 -1.66699 -61.5 -5s-32.167 -8 -45.5 -14s-25.333 -12.833 -36 -20.5l-34 -24.5c-9.33301 -6.66699 -19.333 -9.16699 -30 -7.5s-19.334 7.16699 -26.001 16.5c-6 8 -8.5 16.667 -7.5 26s4.5 17.666 10.5 24.999
c18 20 36.167 36.5 54.5 49.5s36.166 23.5 53.499 31.5l-31 -107c-4 -13.333 -11.333 -24 -22 -32s-22.667 -12 -36 -12z" />
    <glyph glyph-name="six" unicode="6" horiz-adv-x="689" 
d="M365 517c30.667 0 58.666 -5.16406 83.999 -15.4971s47.333 -24.833 66 -43.5s33.167 -41.5 43.5 -68.5s15.5 -56.833 15.5 -89.5c0 -42.667 -8.5 -82.334 -25.5 -119.001s-39.5 -68.5 -67.5 -95.5s-59.5 -48.167 -94.5 -63.5s-70.5 -23 -106.5 -23
c-60.667 0 -111.834 14.667 -153.501 44s-73.167 69 -94.5 119s-32.333 108.167 -33 174.5s9.33301 136.5 30 210.5c13.333 47.333 33.5 93.833 60.5 139.5s57.833 86.5 92.5 122.5s72 65 112 87s79.667 33 119 33c20 0 41.167 -1.16699 63.5 -3.5
s43.333 -9.16602 63 -20.499s36.834 -29.333 51.501 -54s24.334 -59 29.001 -103c2 -17.333 -2.5 -32.833 -13.5 -46.5s-25.167 -21.834 -42.5 -24.501c-8.66699 -1.33301 -17.834 -0.333008 -27.501 3s-18 8.5 -25 15.5s-12.167 16 -15.5 27s-3 24.167 1 39.5
c2.66699 9.33301 3.66699 19.166 3 29.499s-3.5 19.666 -8.5 27.999s-12.667 15.333 -23 21s-24.166 8.5 -41.499 8.5c-35.333 0 -69 -11.5 -101 -34.5s-61 -53.5 -87 -91.5c-30.667 -44 -56 -93.5 -76 -148.5s-33.333 -109.167 -40 -162.5c38.667 32 78 57.5 118 76.5
s81.333 28.5 124 28.5zM272.999 115.003c34.667 0 64.1709 6.66504 88.5039 19.998s44.166 29.666 59.499 48.999s26.666 39.5 33.999 60.5s11 39.167 11 54.5c0 16 -1.33301 31.167 -4 45.5s-8 27 -16 38s-19.333 19.667 -34 26s-34 9.5 -58 9.5
c-44 -2 -84.833 -14.167 -122.5 -36.5s-74.5 -52.166 -110.5 -89.499c3.33301 -23.333 8.16602 -45.666 14.499 -66.999s15.166 -40.166 26.499 -56.499s26 -29.333 44 -39s40.333 -14.5 67 -14.5z" />
    <glyph glyph-name="seven" unicode="7" horiz-adv-x="776" 
d="M175 381c-11.333 0 -22.501 1.16992 -33.501 3.50293s-20.5 7.16602 -28.5 14.499c-13.333 11.333 -19.333 26.333 -18 45c0.666992 11.333 5 20.666 13 27.999s17.667 10.666 29 9.99902c7.33301 -0.666992 13.833 -3 19.5 -7s10.167 -8.66699 13.5 -14
c5.33301 -0.666992 17 0 35 2c12.667 1.33301 26.334 3.16602 41.001 5.49902s29.667 5.16602 45 8.49902c56 10 101.667 16.333 137 19s62.333 -4.33301 81 -21c15.333 -13.333 22.333 -30.666 21 -51.999c-1.33301 -11.333 -6 -20.666 -14 -27.999
s-17.667 -10.666 -29 -9.99902c-8.66699 1.33301 -16.167 4.66602 -22.5 9.99902s-10.833 12 -13.5 20c-3.33301 0.666992 -8.5 1 -15.5 1s-16.833 -0.666992 -29.5 -2c-15.333 -1.33301 -31.5 -3.5 -48.5 -6.5l-51.5 -9.5l-54.5 -9.5c-17 -3 -33.167 -5.16699 -48.5 -6.5
c-4.66699 -0.666992 -9.16699 -1 -13.5 -1h-14.5zM215.999 32.0029c-3.33301 -11.333 -9.50098 -20.0049 -18.501 -26.0049s-19.167 -7.66699 -30.5 -5c-10.667 2.66699 -18.834 8.5 -24.501 17.5s-7.16699 18.833 -4.5 29.5c16 85.333 37.333 164.666 64 237.999
s55.834 140.5 87.501 201.5s64.5 115.833 98.5 164.5s66.5 90.834 97.5 126.501s59 64.834 84 87.501s44.833 38.667 59.5 48c14 9.33301 29 13 45 11s29 -9.66699 39 -23s13.833 -28.166 11.5 -44.499s-10.166 -29.5 -23.499 -39.5
c-64 -49.333 -121.667 -103.166 -173 -161.499s-97 -120.666 -137 -186.999s-74.5 -136.166 -103.5 -209.499s-52.833 -149.333 -71.5 -228v0zM5.99805 706.998c-0.666992 29.333 5.99902 57.3369 19.999 84.0039s32.167 50 54.5 70s47.666 36 75.999 48s56.5 18 84.5 18
c22.667 0 42.5 -1.33301 59.5 -4s33.167 -5.83398 48.5 -9.50098l47 -11c16 -3.66699 34.667 -6.83398 56 -9.50098c36 -4 71.167 -3 105.5 3s65.833 14.667 94.5 26c10.667 4 21 3.66699 31 -1s16.667 -12.334 20 -23.001c4 -10 3.83301 -19.833 -0.5 -29.5
s-11.5 -16.834 -21.5 -21.501c-38 -17.333 -78.667 -30 -122 -38s-87 -9.66699 -131 -5c-24.667 2.66699 -47.5 6.33398 -68.5 11.001s-41.5 8 -61.5 10s-39.667 1.5 -59 -1.5s-39.666 -10.5 -60.999 -22.5c-14.667 -8.66699 -26.667 -19.667 -36 -33
s-15.666 -26.333 -18.999 -39s-3.5 -23.5 -0.5 -32.5s9.5 -13.5 19.5 -13.5c16.667 0 31 -5.83301 43 -17.5s18 -25.834 18 -42.501s-5.83301 -31 -17.5 -43s-26.167 -18 -43.5 -18c-6 0 -16.333 1.33301 -31 4s-29.667 9 -45 19s-29 24.667 -41 44s-18.333 45.333 -19 78z
" />
    <glyph glyph-name="eight" unicode="8" horiz-adv-x="673" 
d="M569 245c0 -40.667 -9.99902 -76.333 -29.999 -107s-44.833 -56.5 -74.5 -77.5s-61.834 -36.833 -96.501 -47.5s-67 -16 -97 -16c-88.667 0 -156 18.833 -202 56.5s-69 87.834 -69 150.501c-0 23.333 4.83301 45.5 14.5 66.5s21.834 40.333 36.501 58
s30.667 33.834 48 48.501s34.166 27.5 50.499 38.5s30.833 19.833 43.5 26.5s21.334 11.334 26.001 14.001c-20.667 14 -40.167 29 -58.5 45s-34.5 33 -48.5 51s-25 37 -33 57s-12 41.667 -12 65c0 39.333 8 73.666 24 102.999s36 54.166 60 74.499s49.667 36.666 77 48.999
s52.333 21.5 75 27.5c17.333 4.66699 33.166 2.66699 47.499 -6s23.5 -21 27.5 -37c0 -2.66699 0.333008 -4.66699 1 -6c24 14.667 47.5 23.334 70.5 26.001s43.833 2.66699 62.5 0c40 -5.33301 71 -21.833 93 -49.5s33 -59.5 33 -95.5c0 -28.667 -3.33301 -54.667 -10 -78
s-15.334 -44.333 -26.001 -63s-23 -35.334 -37 -50.001s-28 -27.667 -42 -39c-23.333 -19.333 -45.166 -35 -65.499 -47l-39.5 -23c18.667 -12 37 -26 55 -42s34.167 -33.167 48.5 -51.5s25.833 -37.833 34.5 -58.5s13 -41.667 13 -63zM267.001 77.001
c30.667 0 58.3311 5.33398 82.998 16.001s45.834 23.667 63.501 39s31.167 31.666 40.5 48.999s14 32.666 14 45.999c0 24.667 -7.16699 46.834 -21.5 66.501s-30.666 36.834 -48.999 51.501s-36.166 26.667 -53.499 36s-28.666 16 -33.999 20
c-22.667 -12 -46.334 -25.5 -71.001 -40.5s-47.334 -31.333 -68.001 -49s-37.667 -36.334 -51 -56.001s-20 -40.167 -20 -61.5c0 -24 6 -43.5 18 -58.5s26.667 -26.833 44 -35.5s35.5 -14.667 54.5 -18s35.833 -5 50.5 -5zM181.998 681.002
c0 -14.667 3.83203 -29.332 11.499 -43.999s18.334 -29 32.001 -43s29.834 -27.833 48.501 -41.5s38.667 -26.834 60 -39.501c39.333 18 75.666 38 108.999 60c-30 -0.666992 -56.667 5.83301 -80 19.5s-41.5 31.5 -54.5 53.5s-20 46.833 -21 74.5s5.5 55.5 19.5 83.5
c-15.333 -3.33301 -30.5 -9.33301 -45.5 -18s-28.333 -18.667 -40 -30s-21.167 -23.5 -28.5 -36.5s-11 -25.833 -11 -38.5zM556.997 736.004v22.0049c0 9.33301 -2 18.666 -6 27.999s-11 17.5 -21 24.5s-25 10.5 -45 10.5c-16 0 -30 -3 -42 -9s-22 -13.333 -30 -22
s-14 -17.834 -18 -27.501s-6 -17.834 -6 -24.501c0 -12 2 -21 6 -27s8.33301 -10.333 13 -13s9.16699 -4.16699 13.5 -4.5s6.83301 -0.5 7.5 -0.5c12 0.666992 22.833 -1 32.5 -5s17.5 -9.83301 23.5 -17.5s10.167 -16.334 12.5 -26.001s1.83301 -19.834 -1.5 -30.501
c17.333 17.333 31.833 36 43.5 56s17.5 42 17.5 66z" />
    <glyph glyph-name="nine" unicode="9" horiz-adv-x="673" 
d="M256 411c-30.667 0 -58.833 5.16309 -84.5 15.4961s-47.667 24.833 -66 43.5s-32.666 41.334 -42.999 68.001s-15.5 56.667 -15.5 90c0 42.667 8.5 82.334 25.5 119.001s39.5 68.5 67.5 95.5s59.5 48.167 94.5 63.5s70.5 23 106.5 23
c60.667 0 111.834 -14.667 153.501 -44s73.167 -69 94.5 -119s32.333 -108.167 33 -174.5s-9.33301 -136.5 -30 -210.5c-13.333 -47.333 -33.5 -93.833 -60.5 -139.5s-57.833 -86.5 -92.5 -122.5s-72 -65 -112 -87s-79.667 -33 -119 -33c-20 0 -41.167 1.16699 -63.5 3.5
s-43.333 9.16602 -63 20.499s-36.834 29.333 -51.501 54s-24.334 59 -29.001 103c-2 17.333 2.5 32.833 13.5 46.5s25.167 21.834 42.5 24.501c8.66699 0.666992 17.834 -0.5 27.501 -3.5s18 -8 25 -15s12.167 -16 15.5 -27s3 -24.167 -1 -39.5
c-2.66699 -9.33301 -3.66699 -19.166 -3 -29.499s3.5 -19.666 8.5 -27.999s12.667 -15.333 23 -21s24.166 -8.5 41.499 -8.5c35.333 0 69 11.5 101 34.5s61 53.5 87 91.5c30.667 44 56 93.5 76 148.5s33.333 109.167 40 162.5c-38.667 -32 -78 -57.5 -118 -76.5
s-81.333 -28.5 -124 -28.5zM348.001 812.996c-34.667 0 -64.1689 -6.66504 -88.502 -19.998s-44.333 -29.666 -60 -48.999s-27 -39.5 -34 -60.5s-10.5 -39.167 -10.5 -54.5c0 -16 1.33301 -31.167 4 -45.5s8 -27 16 -38s19.333 -19.667 34 -26s34 -9.5 58 -9.5
c44 2 84.833 14.167 122.5 36.5s74.5 52.166 110.5 89.499c-3.33301 23.333 -8.16602 45.666 -14.499 66.999s-15.166 40.166 -26.499 56.499s-26 29.333 -44 39s-40.333 14.5 -67 14.5z" />
    <glyph glyph-name="colon" unicode=":" horiz-adv-x="289" 
d="M170 2c-11.333 0 -21.334 3.33203 -30.001 9.99902s-14.667 15.667 -18 27c-2.66699 9.33301 -2.66699 18.5 0 27.5s7.33398 16.5 14.001 22.5c-6.66699 8.66699 -10 18.667 -10 30c0 14 5 25.833 15 35.5s21.667 14.5 35 14.5c19.333 0 35.333 -5.5 48 -16.5
s20.334 -25.167 23.001 -42.5c1.33301 -12 0.166016 -23.667 -3.50098 -35s-7.5 -20.666 -11.5 -27.999c-4.66699 -8 -11 -16.333 -19 -25s-18 -14.667 -30 -18c-2.66699 -1.33301 -7 -2 -13 -2zM169.999 351.999c-11.333 0 -21.334 3.33203 -30.001 9.99902
s-14.667 15.667 -18 27c-2.66699 9.33301 -2.66699 18.5 0 27.5s7.33398 16.5 14.001 22.5c-6.66699 8.66699 -10 18.667 -10 30c0 14 5 25.833 15 35.5s21.667 14.5 35 14.5c19.333 0 35.333 -5.5 48 -16.5s20.334 -25.167 23.001 -42.5
c1.33301 -12 0.166016 -23.667 -3.50098 -35s-7.5 -20.666 -11.5 -27.999c-4.66699 -8 -11 -16.333 -19 -25s-18 -14.667 -30 -18c-2.66699 -1.33301 -7 -2 -13 -2z" />
    <glyph glyph-name="semicolon" unicode=";" horiz-adv-x="289" 
d="M160 87l3.99707 8c7.33301 11.333 18 18.333 32 21s26.667 0 38 -8s18.333 -18.667 21 -32s0.333984 -26 -6.99902 -38l-97 -153c-5.33301 -8 -12.666 -13.5 -21.999 -16.5s-18.666 -2.16699 -27.999 2.5c-10 5.33301 -17 13 -21 23s-3.66699 20 1 30zM185.997 352
c-11.333 0 -21.334 3.33203 -30.001 9.99902s-14.667 15.667 -18 27c-2.66699 9.33301 -2.66699 18.5 0 27.5s7.33398 16.5 14.001 22.5c-6.66699 8.66699 -10 18.667 -10 30c0 14 5 25.833 15 35.5s21.667 14.5 35 14.5c19.333 0 35.333 -5.5 48 -16.5
s20.334 -25.167 23.001 -42.5c1.33301 -12 0.166016 -23.667 -3.50098 -35s-7.5 -20.666 -11.5 -27.999c-4.66699 -8 -11 -16.333 -19 -25s-18 -14.667 -30 -18c-2.66699 -1.33301 -7 -2 -13 -2z" />
    <glyph glyph-name="less" unicode="&#x3c;" horiz-adv-x="402" 
d="M30 276c-10.667 8 -16.668 18.3291 -18.001 30.9961s2 24.334 10 35.001c2 3.33301 4.66699 6 8 8l254 198c9.33301 7.33301 19.333 10.333 30 9s19.667 -6.66602 27 -15.999c6 -7.33301 8.83301 -16 8.5 -26s-4.16602 -18.667 -11.499 -26l-186 -176l188 -173
c8 -8.66699 11.833 -18.5 11.5 -29.5s-4.5 -20.167 -12.5 -27.5c-7.33301 -7.33301 -16 -11.166 -26 -11.499s-19 2.83398 -27 9.50098z" />
    <glyph glyph-name="equal" unicode="=" horiz-adv-x="523" 
d="M408 491c1.33301 0 2.83301 0.167969 4.5 0.500977s3.16699 0.5 4.5 0.5c13.333 0 25 -4.83301 35 -14.5s15 -21.5 15 -35.5s-4.83301 -25.833 -14.5 -35.5s-21.5 -14.834 -35.5 -15.501h-328c-10 0 -18.833 3.16699 -26.5 9.5s-12.167 14.166 -13.5 23.499
c-1.33301 11.333 1.16699 21.333 7.5 30s14.833 14.334 25.5 17.001zM408 321.001c1.33301 0 2.83301 0.167969 4.5 0.500977s3.16699 0.5 4.5 0.5c13.333 0 25 -4.83301 35 -14.5s15 -21.5 15 -35.5s-4.83301 -25.833 -14.5 -35.5s-21.5 -14.834 -35.5 -15.501h-328
c-10 0 -18.833 3.16699 -26.5 9.5s-12.167 14.166 -13.5 23.499c-1.33301 11.333 1.16699 21.333 7.5 30s14.833 14.334 25.5 17.001z" />
    <glyph glyph-name="greater" unicode="&#x3e;" horiz-adv-x="402" 
d="M116 81c-8 -6.66699 -17.001 -9.83008 -27.001 -9.49707s-18.667 4.16602 -26 11.499c-8 7.33301 -12.167 16.5 -12.5 27.5s3.5 20.833 11.5 29.5l188 173l-186 176c-7.33301 7.33301 -11.166 16 -11.499 26s2.5 18.667 8.5 26c7.33301 9.33301 16.333 14.666 27 15.999
s20.667 -1.66699 30 -9l254 -198c3.33301 -2 6 -4.66699 8 -8c8 -10.667 11.333 -22.334 10 -35.001s-7.33301 -23 -18 -31z" />
    <glyph glyph-name="question" unicode="?" horiz-adv-x="483" 
d="M49 651c-7.33301 28.667 -8.33105 58.9971 -2.99805 90.9971s17.5 61.5 36.5 88.5s44.833 49.333 77.5 67s72.667 26.5 120 26.5c30 0 58.167 -5.83301 84.5 -17.5s48.833 -27.667 67.5 -48s32.667 -44 42 -71s12.666 -55.5 9.99902 -85.5c-2 -22 -8 -44.5 -18 -67.5
s-22 -45.833 -36 -68.5s-29.333 -44.834 -46 -66.501s-33.334 -42.167 -50.001 -61.5l-64 -76.5c-18 -22.333 -32.667 -39.5 -44 -51.5c-6.66699 -9.33301 -15.667 -14.333 -27 -15s-21.333 2.66602 -30 9.99902c-8 6.66699 -12.667 14.834 -14 24.501s1 19.167 7 28.5
c8 12.667 19 28.167 33 46.5l45.5 60l49 68c16.333 23.667 31.166 46.834 44.499 69.501s24.166 44.167 32.499 64.5s12.5 38.166 12.5 53.499c0 13.333 -2.83301 25.666 -8.5 36.999s-13 21 -22 29s-19.167 14.333 -30.5 19s-23 7 -35 7
c-11.333 0 -25.166 -2.16699 -41.499 -6.5s-31.166 -11.666 -44.499 -21.999s-23.666 -24.166 -30.999 -41.499s-7.33301 -39 0 -65c4 -15.333 1.5 -30.166 -7.5 -44.499s-21.5 -23.5 -37.5 -27.5c-16.667 -3.33301 -31.834 -0.666016 -45.501 8.00098
s-22.5 21.334 -26.5 38.001zM123.002 1.99707c-11.333 0 -21.334 3.33203 -30.001 9.99902s-14.667 15.667 -18 27c-2.66699 9.33301 -2.66699 18.5 0 27.5s7.33398 16.5 14.001 22.5c-6.66699 8.66699 -10 18.667 -10 30c0 14 5 25.833 15 35.5s21.667 14.5 35 14.5
c19.333 0 35.333 -5.5 48 -16.5s20.334 -25.167 23.001 -42.5c1.33301 -12 0.166016 -23.667 -3.50098 -35s-7.5 -20.666 -11.5 -27.999c-4.66699 -8 -11 -16.333 -19 -25s-18 -14.667 -30 -18c-2.66699 -1.33301 -7 -2 -13 -2z" />
    <glyph glyph-name="at" unicode="@" horiz-adv-x="793" 
d="M398 -1c-12.667 0 -29.501 2.83594 -50.501 8.50293s-43.333 15 -67 28s-47.167 30.667 -70.5 53s-43.666 50.166 -60.999 83.499s-30 72.833 -38 118.5s-8.66699 98.5 -2 158.5c2.66699 22.667 7.33398 48.667 14.001 78s16.167 59.5 28.5 90.5
s27.666 61.167 45.999 90.5s40.5 55.666 66.5 78.999s56.167 42 90.5 56s73.5 21 117.5 21c33.333 0 64.5 -7.66699 93.5 -23s54.167 -35.666 75.5 -60.999s38.166 -55 50.499 -89s18.5 -69.333 18.5 -106c0 -57.333 -4.83301 -105.666 -14.5 -144.999
s-21.667 -71.5 -36 -96.5s-30.333 -43.5 -48 -55.5s-34.834 -18.667 -51.501 -20c-18.667 -1.33301 -35.834 1.5 -51.501 8.5s-26.167 14.833 -31.5 23.5c-15.333 -24.667 -30.333 -42.834 -45 -54.501s-32.667 -17.5 -54 -17.5c-19.333 0 -35.5 4.66699 -48.5 14
s-23.667 21.5 -32 36.5s-14.333 31.833 -18 50.5s-6 37.167 -7 55.5s-0.666992 35.833 1 52.5s3.83398 30.334 6.50098 41.001c12.667 47.333 26 85.166 40 113.499s28.333 50 43 65s29.334 24.833 44.001 29.5s28.667 7 42 7c17.333 0 33 -7.33301 47 -22
s24.667 -32.667 32 -54c7.33301 -22.667 10.833 -46 10.5 -70s-2.16602 -43.667 -5.49902 -59c-2 -9.33301 -6.33301 -17.166 -13 -23.499s-14.667 -9.83301 -24 -10.5c12 -2 22.167 -7.5 30.5 -16.5s12.5 -19.833 12.5 -32.5s0.666992 -25.167 2 -37.5
s6.66602 -18.5 15.999 -18.5c6.66699 0 14.334 6 23.001 18s16.667 28.333 24 49s13.5 45.167 18.5 73.5s7.5 59.166 7.5 92.499c0 24 -3.83301 48 -11.5 72s-18.5 45.667 -32.5 65s-30.667 35 -50 47s-41 18 -65 18c-43.333 0 -81 -11.5 -113 -34.5s-58.833 -52 -80.5 -87
s-38.334 -73.5 -50.001 -115.5s-18.5 -82 -20.5 -120c-3.33301 -60.667 2 -111.167 16 -151.5s31.667 -72.5 53 -96.5s44 -41 68 -51s44.333 -15 61 -15c33.333 0 63.333 8.5 90 25.5s48.667 41.167 66 72.5c8 14.667 20 24 36 28s31.333 1.66699 46 -7
c14 -8.66699 23.333 -21.334 28 -38.001s2.33398 -31.334 -6.99902 -44.001l-34.5 -47c-13 -17.333 -29.5 -33.833 -49.5 -49.5s-44.667 -28.667 -74 -39s-65.333 -15.5 -108 -15.5zM453.999 500.003c2 13.333 3.16699 26.6689 3.5 40.002s-0.166992 25.166 -1.5 35.499
s-3.5 18.833 -6.5 25.5s-6.5 10 -10.5 10c-5.33301 0 -14.166 -13.5 -26.499 -40.5s-23.833 -64.5 -34.5 -112.5c-3.33301 -16 -5.83301 -32.833 -7.5 -50.5s-2.33398 -33.834 -2.00098 -48.501s1.5 -26.834 3.5 -36.501s4.66699 -14.5 8 -14.5
c4 0 9.16699 4.83301 15.5 14.5s12.666 20.334 18.999 32.001s11.833 22.667 16.5 33s7 16.166 7 17.499c0 13.333 4.83301 24.833 14.5 34.5s21.5 14.834 35.5 15.501c-11.333 1.33301 -20.166 6.33301 -26.499 15s-8.83301 18.667 -7.5 30z" />
    <glyph glyph-name="A" unicode="A" horiz-adv-x="782" 
d="M593 79c12 0 24.8359 4.99805 38.5029 14.998s27.167 22.833 40.5 38.5s26.5 33.5 39.5 53.5s24.833 39.833 35.5 59.5s19.834 38.167 27.501 55.5s13.167 31.666 16.5 42.999c3.33301 12.667 10.666 21 21.999 25s21.333 4.33301 30 1
c10.667 -3.33301 18.5 -10.166 23.5 -20.499s4.83301 -21.833 -0.5 -34.5c-7.33301 -18 -16 -38.167 -26 -60.5s-21.333 -45.166 -34 -68.499s-26.834 -46.166 -42.501 -68.499s-32.5 -42.166 -50.5 -59.499s-37 -31.333 -57 -42s-41 -16 -63 -16
s-40.833 4.16699 -56.5 12.5s-28.167 20 -37.5 35s-16.166 32.333 -20.499 52s-6.5 41.167 -6.5 64.5v19c0 6.66699 0.333008 13.334 1 20.001c-19.333 -27.333 -40.333 -53.333 -63 -78s-46.667 -46.167 -72 -64.5s-52.166 -33 -80.499 -44s-57.833 -16.5 -88.5 -16.5
c-26 0 -49.333 4.5 -70 13.5s-38.334 21.5 -53.001 37.5s-26.334 35.167 -35.001 57.5s-14.334 46.833 -17.001 73.5c-2.66699 27.333 -2.16699 56.666 1.5 87.999s10 63.5 19 96.5s20.333 66.5 34 100.5s29.167 67.667 46.5 101c24.667 48 52.834 93.667 84.501 137
s66.667 81.5 105 114.5s79.666 59.167 123.999 78.5s91.166 29 140.499 29c22 0 42 -3.16699 60 -9.5s34 -14.5 48 -24.5s25.833 -21.5 35.5 -34.5s17.5 -26.167 23.5 -39.5c7.33301 -17.333 11.333 -34.166 12 -50.499s1 -30.166 1 -41.499
c0 -19.333 -7.16699 -35.166 -21.5 -47.499s-30.833 -17.5 -49.5 -15.5c-17.333 2 -31.166 9.66699 -41.499 23s-14.833 28.666 -13.5 45.999c0.666992 7.33301 1.16699 14.5 1.5 21.5s-0.333984 13.5 -2.00098 19.5s-5.16699 11.5 -10.5 16.5s-13.666 9.16699 -24.999 12.5
c-24 7.33301 -49.333 8 -76 2s-53.5 -17.167 -80.5 -33.5s-53.5 -36.833 -79.5 -61.5s-50.667 -52 -74 -82c-38.667 -50 -71.667 -104 -99 -162s-48.333 -113.333 -63 -166c-8 -30.667 -12.167 -59.334 -12.5 -86.001s2.66699 -49.834 9 -69.501
s16.166 -35.167 29.499 -46.5s29.333 -17 48 -17c27.333 0 54.166 6.83301 80.499 20.5s51.333 31.5 75 53.5s46 46.667 67 74s40 55.166 57 83.499s31.667 55.5 44 81.5s22.166 48.333 29.499 67l18 64c4.66699 16.667 14.667 29 30 37s31.333 9.33301 48 4
s29.334 -15.833 38.001 -31.5s9.66699 -31.5 3 -47.5c-11.333 -27.333 -22.5 -56.333 -33.5 -87s-21 -61.167 -30 -91.5s-16.667 -59.333 -23 -87s-10 -52 -11 -73s0.833008 -37.833 5.5 -50.5s13.334 -19 26.001 -19z" />
    <glyph glyph-name="B" unicode="B" horiz-adv-x="988" 
d="M668 85c14 0 27.6641 2.32422 40.9971 6.99121s25.5 11.334 36.5 20.001s19.833 18.834 26.5 30.501s10 24.167 10 37.5c0 23.333 -6.83301 43.5 -20.5 60.5s-31.167 31.167 -52.5 42.5s-45.666 20.166 -72.999 26.499s-54.333 10.5 -81 12.5h-17
c-10 -33.333 -21.5 -65.666 -34.5 -96.999s-28.167 -60.666 -45.5 -87.999c-30.667 -47.333 -66.834 -81.833 -108.501 -103.5s-89.5 -32.5 -143.5 -32.5c-31.333 0 -59.666 5.5 -84.999 16.5s-47 25.5 -65 43.5s-31.833 38.667 -41.5 62s-14.5 47.333 -14.5 72
c0 36.667 6 66.834 18 90.501s27 43.5 45 59.5c19.333 17.333 40.833 30.666 64.5 39.999s45.834 14 66.501 14c21.333 0 41.166 -3.33301 59.499 -10s34.5 -16.5 48.5 -29.5s25.167 -28.833 33.5 -47.5s12.833 -40.334 13.5 -65.001
c1.33301 -17.333 -3.83398 -32.666 -15.501 -45.999s-26.167 -20.666 -43.5 -21.999s-32.5 3.83398 -45.5 15.501s-20.167 26.167 -21.5 43.5c0 4.66699 0.333008 10.334 1 17.001s0.166992 13 -1.5 19s-5 11 -10 15s-12.833 6 -23.5 6c-18.667 0 -34.834 -3 -48.501 -9
s-25 -13.833 -34 -23.5s-15.667 -20.5 -20 -32.5s-6.5 -24 -6.5 -36c0 -17.333 3.66699 -33 11 -47s17 -25.833 29 -35.5s25.333 -17.167 40 -22.5s29 -8 43 -8c44 0 81.667 11.333 113 34s56.666 53.667 75.999 93c14 28 25.5 56.167 34.5 84.5s17 56 24 83
s13 53.333 18 79s10.5 50.167 16.5 73.5c8.66699 34.667 18.334 66.167 29.001 94.5s22.667 52.333 36 72s28.333 34.5 45 44.5s35.334 14 56.001 12c11.333 -1.33301 20.5 -6 27.5 -14s10.167 -17.667 9.5 -29c-1.33301 -10 -5.5 -18.667 -12.5 -26s-14.833 -11 -23.5 -11
c-11.333 0 -22.333 -13.167 -33 -39.5s-20.667 -60.5 -30 -102.5l-14 -60.5l-15 -64.5h16c51.333 4.66699 96.166 15.834 134.499 33.501s70.333 38.667 96 63s44.834 50.666 57.501 78.999s19 55.833 19 82.5c0 20.667 -3.33301 40.334 -10 59.001s-17 35 -31 49
s-32.167 25 -54.5 33s-49.166 12 -80.499 12c-32 0 -67.167 -6.83301 -105.5 -20.5s-74.333 -34.334 -108 -62.001s-61.834 -62.334 -84.501 -104.001s-34 -90.167 -34 -145.5c0 -17.333 -6 -32.166 -18 -44.499s-26.667 -18.833 -44 -19.5c-17.333 0 -32.166 6 -44.499 18
s-18.5 26.667 -18.5 44c0.666992 56.667 9.83398 106.667 27.501 150s42.167 83.333 73.5 120c22 26 47.667 49.167 77 69.5s59.666 37.5 90.999 51.5s62.333 24.667 93 32s58.667 11 84 11c46 0 86.833 -6.16699 122.5 -18.5s65.667 -29.166 90 -50.499
s42.833 -46.666 55.5 -75.999s19 -61 19 -95c0 -35.333 -5.33301 -68.666 -16 -99.999s-26 -60.166 -46 -86.499s-43.833 -50 -71.5 -71s-58.5 -38.833 -92.5 -53.5c37.333 -18 67 -42 89 -72s33 -66 33 -108c0 -25.333 -5.66699 -49 -17 -71s-26.833 -41 -46.5 -57
s-43 -28.667 -70 -38s-55.833 -14 -86.5 -14c-29.333 0 -54.5 4 -75.5 12s-38.167 18.667 -51.5 32s-23.166 28.666 -29.499 45.999s-9.83301 35.333 -10.5 54c-0.666992 28 6.5 54.167 21.5 78.5s38.167 40.166 69.5 47.499c24 5.33301 43.667 2.33301 59 -9
s23 -26.333 23 -45c2 -17.333 -2.33301 -32.666 -13 -45.999s-24.667 -21 -42 -23c-2 -0.666992 -4.33301 -1 -7 -1c-1.33301 -2 -2.5 -6.5 -3.5 -13.5s0.333008 -14.333 4 -22s10.334 -14.5 20.001 -20.5s24.5 -9 44.5 -9z" />
    <glyph glyph-name="C" unicode="C" horiz-adv-x="616" 
d="M699 317c-15.333 -43.333 -35.834 -84.165 -61.501 -122.498s-55.834 -71.833 -90.501 -100.5s-73.334 -51.167 -116.001 -67.5s-88.334 -24.5 -137.001 -24.5c-50.667 0 -96.167 9.83301 -136.5 29.5s-73.166 46.167 -98.499 79.5c-22 28.667 -37.833 60.667 -47.5 96
s-13.5 72 -11.5 110c2.66699 48 12.5 97.667 29.5 149s37.167 101 60.5 149c22 44.667 46 86 72 124s53.167 70.833 81.5 98.5s57 49.167 86 64.5s57.167 23 84.5 23c34 0 62.333 -6 85 -18s40.834 -28 54.501 -48s23.667 -42.667 30 -68s9.83301 -51 10.5 -77
c0.666992 -18.667 0 -37 -2 -55s-4.5 -35 -7.5 -51s-6.5 -30.833 -10.5 -44.5s-7.66699 -24.834 -11 -33.501c-6 -16.667 -16.5 -29 -31.5 -37s-30.833 -9.33301 -47.5 -4s-29 16.166 -37 32.499s-8.66699 33.166 -2 50.499c6.66699 22 13.167 46.833 19.5 74.5
s9.5 53.834 9.5 78.501s-4.16699 45.334 -12.5 62.001s-23.166 25 -44.499 25c-17.333 0 -39.833 -9.83301 -67.5 -29.5s-54.834 -45.834 -81.501 -78.501c-28 -34 -53.5 -72.833 -76.5 -116.5s-44.167 -88.5 -63.5 -134.5c-12.667 -30.667 -22.167 -61 -28.5 -91
s-9 -58.5 -8 -85.5s6 -52.167 15 -75.5s22.167 -43.666 39.5 -60.999s39.5 -31.333 66.5 -42s59.5 -16 97.5 -16c30 0 60.833 6.33301 92.5 19s61.834 30.5 90.501 53.5s54.667 50.667 78 83s41 67.833 53 106.5c3.33301 11.333 10 19.166 20 23.499s20.333 4.83301 31 1.5
c10.667 -4 18.334 -11.167 23.001 -21.5s5 -20.5 1 -30.5z" />
    <glyph glyph-name="D" unicode="D" horiz-adv-x="1038" 
d="M652 671c-11.333 0 -22.332 -13.1689 -32.999 -39.502s-20.667 -60.5 -30 -102.5l-21.5 -94.5c-7.66699 -33.667 -16.5 -67.834 -26.5 -102.501s-21.667 -68.667 -35 -102s-29.333 -64.333 -48 -93c-30.667 -47.333 -66.834 -81.833 -108.501 -103.5
s-89.5 -32.5 -143.5 -32.5c-31.333 0 -59.666 5.5 -84.999 16.5s-47 25.5 -65 43.5s-31.833 38.667 -41.5 62s-14.5 47.333 -14.5 72c0 36.667 6 66.834 18 90.501s27 43.5 45 59.5c19.333 17.333 40.833 30.666 64.5 39.999s45.834 14 66.501 14
c21.333 0 41.166 -3.33301 59.499 -10s34.5 -16.5 48.5 -29.5s25.167 -28.833 33.5 -47.5s12.833 -40.334 13.5 -65.001c1.33301 -17.333 -3.83398 -32.666 -15.501 -45.999s-26.167 -20.666 -43.5 -21.999s-32.5 3.83398 -45.5 15.501s-20.167 26.167 -21.5 43.5
c0 4.66699 0.333008 10.334 1 17.001s0.166992 13 -1.5 19s-5 11 -10 15s-12.833 6 -23.5 6c-18.667 0 -34.834 -3 -48.501 -9s-25 -13.833 -34 -23.5s-15.667 -20.5 -20 -32.5s-6.5 -24 -6.5 -36c0 -17.333 3.66699 -33 11 -47s17 -25.833 29 -35.5
s25.333 -17.167 40 -22.5s29 -8 43 -8c44 0 81.667 11.333 113 34s56.666 53.667 75.999 93c14 28 25.5 56.167 34.5 84.5s17 56 24 83s13 53.333 18 79s10.5 50.167 16.5 73.5c8.66699 34.667 18.334 66.167 29.001 94.5s22.667 52.333 36 72s28.333 34.5 45 44.5
s35.334 14 56.001 12c11.333 -1.33301 20.5 -6 27.5 -14s10.167 -17.667 9.5 -29c-1.33301 -10 -5.5 -18.667 -12.5 -26s-14.833 -11 -23.5 -11zM603.001 150.998c-2.66699 0 -5.83203 -3.33496 -9.49902 -10.002s-4.83398 -14.334 -3.50098 -23.001
s6.66602 -16.5 15.999 -23.5s25.333 -10.5 48 -10.5c23.333 0 45.333 4.83301 66 14.5s39.834 22.834 57.501 39.501s33.5 36.5 47.5 59.5s26.333 47.5 37 73.5c12 28.667 21.5 58.834 28.5 90.501s11.667 63.667 14 96s2.33301 64.333 0 96s-6.83301 61.834 -13.5 90.501
c-13.333 58 -35.5 101 -66.5 129s-74.5 42 -130.5 42c-26 0 -57.167 -6.66699 -93.5 -20s-71.333 -33.5 -105 -60.5s-62.167 -61.333 -85.5 -103s-35 -90.834 -35 -147.501c0 -18 -6 -33.167 -18 -45.5s-26.667 -18.833 -44 -19.5c-17.333 0 -32.166 6 -44.499 18
s-18.5 26.667 -18.5 44c0 50.667 7.5 95.834 22.5 135.501s33.833 75.167 56.5 106.5c26 35.333 55.5 65.166 88.5 89.499s66.333 44 100 59s65.667 25.833 96 32.5s55.5 10 75.5 10c46.667 0 86.834 -6.5 120.501 -19.5s62.334 -30.833 86.001 -53.5s43 -49.5 58 -80.5
s27.167 -64.5 36.5 -100.5c8 -32 13 -65.667 15 -101s1.16699 -70.666 -2.5 -105.999s-10.334 -70.5 -20.001 -105.5s-21.834 -68.5 -36.501 -100.5c-16 -34.667 -34.667 -66.834 -56 -96.501s-44.5 -55.5 -69.5 -77.5s-51.333 -39.167 -79 -51.5
s-55.834 -18.5 -84.501 -18.5c-38.667 0 -69 5 -91 15s-38.5 22.167 -49.5 36.5s-17.833 29.166 -20.5 44.499s-4 28.666 -4 39.999c0 27.333 5 50.333 15 69s22 33.5 36 44.5s28.833 18.167 44.5 21.5s29.167 3.33301 40.5 0s21.833 -9.83301 31.5 -19.5
s14.5 -22.167 14.5 -37.5c0 -9.33301 -1.66699 -18.166 -5 -26.499s-8 -15.666 -14 -21.999s-13.5 -11.166 -22.5 -14.499s-18.833 -4.33301 -29.5 -3z" />
    <glyph glyph-name="E" unicode="E" horiz-adv-x="1124" 
d="M652 671c-11.333 0 -22.3301 -13.1709 -32.9971 -39.5039s-20.667 -60.5 -30 -102.5l-15 -67c7.33301 -1.33301 14.166 -2.33301 20.499 -3l18.5 -2c10 -1.33301 18 -2 24 -2s10.667 0.333008 14 1c6.66699 16.667 19 25 37 25c11.333 0 20.833 -3.83301 28.5 -11.5
s11.5 -17.167 11.5 -28.5c0 -18.667 -7 -34 -21 -46c-14.667 -12.667 -37.334 -19 -68.001 -19c-12 0 -25 0.666992 -39 2s-29 3.33301 -45 6c-11.333 -43.333 -24.5 -86.333 -39.5 -129s-34.167 -82 -57.5 -118l-13 -20c41.333 -2.66699 83.833 -7.5 127.5 -14.5
s87 -12.333 130 -16s85 -3.83398 126 -0.500977s80.167 13.666 117.5 30.999c38 17.333 73 44 105 80s59.667 85.667 83 149c4 10.667 10.833 18.334 20.5 23.001s19.834 5.33398 30.501 2.00098c10.667 -4 18.334 -11 23.001 -21s5.33398 -20 2.00098 -30
c-15.333 -42 -34.5 -80.667 -57.5 -116s-48.833 -66.333 -77.5 -93s-59.5 -48.5 -92.5 -65.5s-66.833 -28.5 -101.5 -34.5c-42.667 -7.33301 -84.667 -10 -126 -8s-81.666 5.66699 -120.999 11s-77.833 10.833 -115.5 16.5s-73.834 8.5 -108.501 8.5
c-24 0 -42.333 -1 -55 -3c-42.667 -23.333 -92.334 -35 -149.001 -35c-31.333 0 -59.666 5.5 -84.999 16.5s-47 25.5 -65 43.5s-31.833 38.667 -41.5 62s-14.5 47.333 -14.5 72c0 36.667 6 66.834 18 90.501s27 43.5 45 59.5c19.333 17.333 40.833 30.666 64.5 39.999
s45.834 14 66.501 14c21.333 0 41.166 -3.33301 59.499 -10s34.5 -16.5 48.5 -29.5s25.167 -28.833 33.5 -47.5s12.833 -40.334 13.5 -65.001c1.33301 -17.333 -3.83398 -32.666 -15.501 -45.999s-26.167 -20.666 -43.5 -21.999s-32.5 3.83398 -45.5 15.501
s-20.167 26.167 -21.5 43.5c0 4.66699 0.333008 10.334 1 17.001s0.166992 13 -1.5 19s-5 11 -10 15s-12.833 6 -23.5 6c-18.667 0 -34.834 -3 -48.501 -9s-25 -13.833 -34 -23.5s-15.667 -20.5 -20 -32.5s-6.5 -24 -6.5 -36c0 -17.333 3.66699 -33 11 -47
s17 -25.833 29 -35.5s25.333 -17.167 40 -22.5s29 -8 43 -8c44 0 81.667 11.333 113 34s56.666 53.667 75.999 93c15.333 32.667 28 65 38 97s18.667 63.667 26 95l-40 5c-11.333 1.33301 -20.333 1.83301 -27 1.5s-11.667 -0.833008 -15 -1.5
c-2.66699 -8 -7.33398 -14.667 -14.001 -20s-14.667 -8 -24 -8c-11.333 0 -20.833 3.83301 -28.5 11.5s-11.5 17.167 -11.5 28.5c0 20 7.33301 36.333 22 49c15.333 12.667 35.666 19.334 60.999 20.001s56.666 -2 93.999 -8l12 50
c8.66699 34.667 18.334 66.167 29.001 94.5s22.667 52.333 36 72s28.333 34.5 45 44.5s35.334 14 56.001 12c11.333 -1.33301 20.5 -6 27.5 -14s10.167 -17.667 9.5 -29c-1.33301 -10 -5.5 -18.667 -12.5 -26s-14.833 -11 -23.5 -11zM483.003 838.996
c-26 0 -49.002 -3.33301 -69.002 -10s-37.167 -15.5 -51.5 -26.5s-25.833 -23.5 -34.5 -37.5s-15 -28.667 -19 -44c-4 -14.667 -6 -29.834 -6 -45.501s1 -30.834 3 -45.501s4.5 -28.167 7.5 -40.5s5.83301 -22.5 8.5 -30.5c3.33301 -8 2.83301 -15.667 -1.5 -23
s-10.5 -12.333 -18.5 -15c-7.33301 -2 -14.5 -1.16699 -21.5 2.5s-11.833 9.16699 -14.5 16.5c-28 78.667 -37 144.667 -27 198c6.66699 34.667 19.334 64.167 38.001 88.5s40 43.833 64 58.5s48.833 25.334 74.5 32.001s48.834 10 69.501 10c50 0 96 -3.66699 138 -11
s82.5 -15.166 121.5 -23.499l114 -23.5c37 -7.33301 75.5 -11 115.5 -11c34 0 61.833 8.83301 83.5 26.5s37.167 39.167 46.5 64.5c6 16 17.167 27.167 33.5 33.5s32.5 5.83301 48.5 -1.5s27.333 -19 34 -35s5.33398 -33.667 -3.99902 -53
c-24 -51.333 -57.167 -89 -99.5 -113s-87.5 -36 -135.5 -36c-44 0 -87 5 -129 15s-83.333 20.833 -124 32.5s-81.334 22.5 -122.001 32.5s-81.667 15 -123 15z" />
    <glyph glyph-name="F" unicode="F" horiz-adv-x="729" 
d="M639 376c-12 0 -24.9941 0.663086 -38.9941 1.99609s-29 3.33301 -45 6c-11.333 -43.333 -24.5 -86.333 -39.5 -129s-34.167 -82 -57.5 -118c-30.667 -47.333 -66.834 -81.833 -108.501 -103.5s-89.5 -32.5 -143.5 -32.5c-31.333 0 -59.666 5.5 -84.999 16.5
s-47 25.5 -65 43.5s-31.833 38.667 -41.5 62s-14.5 47.333 -14.5 72c0 36.667 6 66.834 18 90.501s27 43.5 45 59.5c19.333 17.333 40.833 30.666 64.5 39.999s45.834 14 66.501 14c21.333 0 41.166 -3.33301 59.499 -10s34.5 -16.5 48.5 -29.5s25.167 -28.833 33.5 -47.5
s12.833 -40.334 13.5 -65.001c1.33301 -17.333 -3.83398 -32.666 -15.501 -45.999s-26.167 -20.666 -43.5 -21.999s-32.5 3.83398 -45.5 15.501s-20.167 26.167 -21.5 43.5c0 4.66699 0.333008 10.334 1 17.001s0.166992 13 -1.5 19s-5 11 -10 15s-12.833 6 -23.5 6
c-18.667 0 -34.834 -3 -48.501 -9s-25 -13.833 -34 -23.5s-15.667 -20.5 -20 -32.5s-6.5 -24 -6.5 -36c0 -17.333 3.66699 -33 11 -47s17 -25.833 29 -35.5s25.333 -17.167 40 -22.5s29 -8 43 -8c44 0 81.667 11.333 113 34s56.666 53.667 75.999 93
c15.333 32.667 28 65 38 97s18.667 63.667 26 95l-40 5c-11.333 1.33301 -20.333 1.83301 -27 1.5s-11.667 -0.833008 -15 -1.5c-2.66699 -8 -7.33398 -14.667 -14.001 -20s-14.667 -8 -24 -8c-11.333 0 -20.833 3.83301 -28.5 11.5s-11.5 17.167 -11.5 28.5
c0 20 7.33301 36.333 22 49c15.333 12.667 35.666 19.334 60.999 20.001s56.666 -2 93.999 -8l12 50c8.66699 34.667 18.334 66.167 29.001 94.5s22.667 52.333 36 72s28.333 34.5 45 44.5s35.334 14 56.001 12c11.333 -1.33301 20.5 -6 27.5 -14s10.167 -17.667 9.5 -29
c-1.33301 -10 -5.5 -18.667 -12.5 -26s-14.833 -11 -23.5 -11c-11.333 0 -22.333 -13.167 -33 -39.5s-20.667 -60.5 -30 -102.5l-15 -67c7.33301 -1.33301 14.166 -2.33301 20.499 -3l18.5 -2c10 -1.33301 18 -2 24 -2s10.667 0.333008 14 1c6.66699 16.667 19 25 37 25
c11.333 0 20.833 -3.83301 28.5 -11.5s11.5 -17.167 11.5 -28.5c0 -18.667 -7 -34 -21 -46c-14.667 -12.667 -37.334 -19 -68.001 -19zM483.006 838.996c-26 0 -49.002 -3.33301 -69.002 -10s-37.167 -15.5 -51.5 -26.5s-25.833 -23.5 -34.5 -37.5s-15 -28.667 -19 -44
c-4 -14.667 -6 -29.834 -6 -45.501s1 -30.834 3 -45.501s4.5 -28.167 7.5 -40.5s5.83301 -22.5 8.5 -30.5c3.33301 -8 2.83301 -15.667 -1.5 -23s-10.5 -12.333 -18.5 -15c-7.33301 -2 -14.5 -1.16699 -21.5 2.5s-11.833 9.16699 -14.5 16.5c-28 78.667 -37 144.667 -27 198
c6.66699 34.667 19.334 64.167 38.001 88.5s40 43.833 64 58.5s48.833 25.334 74.5 32.001s48.834 10 69.501 10c50 0 96 -3.66699 138 -11s82.5 -15.166 121.5 -23.499l114 -23.5c37 -7.33301 75.5 -11 115.5 -11c34 0 61.833 8.83301 83.5 26.5s37.167 39.167 46.5 64.5
c6 16 17.167 27.167 33.5 33.5s32.5 5.83301 48.5 -1.5s27.333 -19 34 -35s5.33398 -33.667 -3.99902 -53c-24 -51.333 -57.167 -89 -99.5 -113s-87.5 -36 -135.5 -36c-44 0 -87 5 -129 15s-83.333 20.833 -124 32.5s-81.334 22.5 -122.001 32.5s-81.667 15 -123 15z" />
    <glyph glyph-name="G" unicode="G" horiz-adv-x="713" 
d="M603 733c0.666992 7.33301 1.16992 14.4951 1.50293 21.4951s-0.333984 13.5 -2.00098 19.5s-5.16699 11.5 -10.5 16.5s-13.666 9.16699 -24.999 12.5c-24 7.33301 -49.333 8 -76 2s-53.5 -17.167 -80.5 -33.5s-53.5 -36.833 -79.5 -61.5s-50.667 -52 -74 -82
c-38.667 -50 -71.667 -104 -99 -162s-48.333 -113.333 -63 -166c-8 -30.667 -12.167 -59.334 -12.5 -86.001s2.66699 -49.834 9 -69.501s16.166 -35.167 29.499 -46.5s29.333 -17 48 -17c28 0 55.167 7 81.5 21s51.5 32.167 75.5 54.5s46.667 47.5 68 75.5
s40.5 56.333 57.5 85s31.667 56 44 82s21.833 48 28.5 66c2.66699 9.33301 5 18.666 7 27.999s4.33301 18.333 7 27c4.66699 17.333 14.334 30.333 29.001 39s30.667 11 48 7c16.667 -4.66699 29.667 -14.5 39 -29.5s11.333 -30.5 6 -46.5l-96 -298.5l-95 -296.5
c40 -11.333 79.333 -23.666 118 -36.999s73 -24.666 103 -33.999c42.667 -14 83.834 -26 123.501 -36s75.667 -17.167 108 -21.5s60.333 -5 84 -2s41.167 10.833 52.5 23.5c4 4 6.83301 9 8.5 15s2.66699 12 3 18s0.5 11.5 0.5 16.5v10.5
c-0.666992 18.667 5 33.834 17 45.501s26.667 17.834 44 18.501s32.166 -5 44.499 -17s18.833 -26.667 19.5 -44c0 -3.33301 -0.333008 -9.5 -1 -18.5s-2 -19 -4 -30s-4.66699 -22.333 -8 -34s-7.66602 -21.834 -12.999 -30.501c-20 -34 -45.667 -57.667 -77 -71
s-66.333 -19.833 -105 -19.5s-79.667 5.83301 -123 16.5s-87.333 23.334 -132 38.001c-50 16.667 -100.167 34.334 -150.5 53.001s-97.833 35.334 -142.5 50.001l-27.5 -78l-27.5 -78c-6 -17.333 -14.833 -31.666 -26.5 -42.999s-24.667 -19.833 -39 -25.5
s-29.833 -8.5 -46.5 -8.5s-33.334 2.66699 -50.001 8c-18.667 6 -36.5 15.167 -53.5 27.5s-32.167 27 -45.5 44s-24 36.167 -32 57.5s-12 43.666 -12 66.999c0 24.667 6 46.667 18 66s27.5 35.5 46.5 48.5s39.833 22.833 62.5 29.5s45 10 67 10
c15.333 0 31.5 -1.16699 48.5 -3.5s35.167 -5.16602 54.5 -8.49902l68 245c-18.667 -22.667 -38.5 -44 -59.5 -64s-43 -37.333 -66 -52s-47 -26.167 -72 -34.5s-50.833 -12.5 -77.5 -12.5c-26 0 -49.333 4.5 -70 13.5s-38.334 21.5 -53.001 37.5
s-26.334 35.167 -35.001 57.5s-14.334 46.833 -17.001 73.5c-2.66699 27.333 -2.16699 56.666 1.5 87.999s10 63.5 19 96.5s20.333 66.5 34 100.5s29.167 67.667 46.5 101c24.667 48 52.834 93.667 84.501 137s66.667 81.5 105 114.5s79.666 59.167 123.999 78.5
s91.166 29 140.499 29c22 0 42 -3.16699 60 -9.5s34 -14.5 48 -24.5s25.833 -21.5 35.5 -34.5s17.5 -26.167 23.5 -39.5c7.33301 -17.333 11.333 -34.166 12 -50.499s1 -30.166 1 -41.499c0 -19.333 -7.16699 -35.166 -21.5 -47.499s-30.833 -17.5 -49.5 -15.5
c-17.333 2 -31.166 9.66699 -41.499 23s-14.833 28.666 -13.5 45.999zM269.003 -157.005c-13.333 0 -26.501 -1.3291 -39.501 -3.99609s-24.667 -6.83398 -35 -12.501s-18.833 -13 -25.5 -22s-10 -19.833 -10 -32.5c0 -20 6.33301 -39.333 19 -58
s27.334 -33.334 44.001 -44.001s33 -15.834 49 -15.501s27 9.5 33 27.5l22 67l25 82c-16 3.33301 -30.833 6.16602 -44.5 8.49902s-26.167 3.5 -37.5 3.5z" />
    <glyph glyph-name="H" unicode="H" horiz-adv-x="1046" 
d="M858 79c13.333 0 27 4.99414 41 14.9941s27.667 23 41 39s26.166 34 38.499 54s23.666 39.833 33.999 59.5s19.166 38.167 26.499 55.5s13 31.333 17 42c4.66699 12.667 12.334 21 23.001 25s20.334 4.33301 29.001 1c10.667 -3.33301 18.5 -10.333 23.5 -21
s4.83301 -22 -0.5 -34l-27.5 -60.5c-10.333 -22.333 -22 -45.166 -35 -68.499s-27.167 -46.166 -42.5 -68.499s-31.666 -42.166 -48.999 -59.499s-36 -31.333 -56 -42s-41 -16 -63 -16c-36 0 -62.833 10 -80.5 30s-28.667 46.833 -33 80.5s-3.5 72.834 2.5 117.501
s15 92 27 142c-12.667 2 -26 4 -40 6s-28.667 4.66699 -44 8l-56 9.5c-18 3 -35.667 5.5 -53 7.5c-11.333 -32.667 -23.5 -64.667 -36.5 -96s-27.167 -61.333 -42.5 -90c-16.667 -30.667 -34.834 -59.167 -54.501 -85.5s-41.5 -49 -65.5 -68s-50.333 -33.833 -79 -44.5
s-60.334 -16 -95.001 -16c-31.333 0 -59.666 5.5 -84.999 16.5s-47 25.5 -65 43.5s-31.833 38.667 -41.5 62s-14.5 47.333 -14.5 72c0 36.667 6 66.834 18 90.501s27 43.5 45 59.5c19.333 17.333 40.833 30.666 64.5 39.999s45.834 14 66.501 14
c21.333 0 41.166 -3.33301 59.499 -10s34.5 -16.5 48.5 -29.5s25.167 -28.833 33.5 -47.5s12.833 -40.334 13.5 -65.001c1.33301 -17.333 -3.83398 -32.666 -15.501 -45.999s-26.167 -20.666 -43.5 -21.999s-32.5 3.83398 -45.5 15.501s-20.167 26.167 -21.5 43.5
c0 4.66699 0.333008 10.334 1 17.001s0.166992 13 -1.5 19s-5 11 -10 15s-12.833 6 -23.5 6c-18.667 0 -34.834 -3 -48.501 -9s-25 -13.833 -34 -23.5s-15.667 -20.5 -20 -32.5s-6.5 -24 -6.5 -36c0 -17.333 3.66699 -33 11 -47s17 -25.833 29 -35.5
s25.333 -17.167 40 -22.5s29 -8 43 -8c34.667 0 65.667 8.66699 93 26s51.833 40.666 73.5 69.999s41 63.333 58 102s32.5 79.667 46.5 123l-2 -1c-1.33301 -10.667 -5.66602 -19.5 -12.999 -26.5s-16.333 -10.5 -27 -10.5c-11.333 0 -20.833 3.83301 -28.5 11.5
s-11.5 17.167 -11.5 28.5c0 22.667 8.66699 41.667 26 57c17.333 14.667 45 23 83 25l11.5 40l11.5 40l38 127c12.667 40.667 26.334 77.334 41.001 110.001h-26c-12.667 0 -28 1.66699 -46 5l-56.5 11c-19.667 4 -38.834 7.66699 -57.501 11s-35 5 -49 5
c-16.667 0 -29.334 -5.33301 -38.001 -16s-13.667 -21.667 -15 -33c-0.666992 -7.33301 0 -13.833 2 -19.5s3.66699 -8.5 5 -8.5c14 1.33301 27 -2.16699 39 -10.5s20.333 -19.5 25 -33.5c5.33301 -16.667 3.83301 -32.5 -4.5 -47.5s-20.833 -25.167 -37.5 -30.5h-1
c-14 -4.66699 -28.5 -4.66699 -43.5 0s-28.833 13.167 -41.5 25.5s-23.167 28.166 -31.5 47.499s-12.5 41.333 -12.5 66c0 22 4 42.333 12 61s18.667 35 32 49s29.166 24.833 47.499 32.5s37.5 11.5 57.5 11.5c18.667 0 36.334 -1.33301 53.001 -4s32.667 -6 48 -10l45 -12
c14.667 -4 29.334 -7.33301 44.001 -10c21.333 -3.33301 41.833 -4.5 61.5 -3.5s38.167 5.16699 55.5 12.5c20.667 17.333 44.334 25.666 71.001 24.999c11.333 -0.666992 20.5 -5 27.5 -13s10.167 -17.667 9.5 -29c-1.33301 -10 -5.5 -19 -12.5 -27
s-14.833 -11.667 -23.5 -11c-4.66699 0 -10.167 -3.66699 -16.5 -11s-12.833 -18 -19.5 -32s-13.667 -30.667 -21 -50s-14.333 -40.333 -21 -63c-9.33301 -31.333 -18.833 -65 -28.5 -101s-20.5 -73.333 -32.5 -112l98 -15l46.5 -8c15.667 -2.66699 30.834 -5 45.501 -7
c0.666992 2 1.16699 4.16699 1.5 6.5s1.16602 4.83301 2.49902 7.5l35.5 120l36 115l33 103l26.5 84c5.33301 16.667 15.5 29 30.5 37s30.833 9.33301 47.5 4s29.334 -15.833 38.001 -31.5s9.66699 -31.5 3 -47.5l-80 -203.5c-26 -69 -49.667 -135.5 -71 -199.5l5 2
c1.33301 9.33301 5.66602 17.166 12.999 23.499s16 9.5 26 9.5c11.333 0 20.833 -3.83301 28.5 -11.5s11.5 -17.167 11.5 -28.5c0 -21.333 -8 -39 -24 -53c-10 -8.66699 -22.167 -14.667 -36.5 -18s-31.166 -5 -50.499 -5c-12 -41.333 -22 -79.166 -30 -113.499
s-13 -64.166 -15 -89.499s-0.5 -45 4.5 -59s14.167 -21 27.5 -21z" />
    <glyph glyph-name="I" unicode="I" horiz-adv-x="622" 
d="M756 847c-4.66699 0 -10.165 -3.66895 -16.498 -11.002s-12.833 -18 -19.5 -32s-13.667 -30.667 -21 -50s-14.333 -40.333 -21 -63c-10 -33.333 -20.333 -69.833 -31 -109.5s-22.5 -80.5 -35.5 -122.5s-27.5 -83.833 -43.5 -125.5s-34 -81.167 -54 -118.5
c-16.667 -30.667 -34.834 -59.167 -54.501 -85.5s-41.5 -49 -65.5 -68s-50.333 -33.833 -79 -44.5s-60.334 -16 -95.001 -16c-31.333 0 -59.666 5.5 -84.999 16.5s-47 25.5 -65 43.5s-31.833 38.667 -41.5 62s-14.5 47.333 -14.5 72c0 36.667 6 66.834 18 90.501
s27 43.5 45 59.5c19.333 17.333 40.833 30.666 64.5 39.999s45.834 14 66.501 14c21.333 0 41.166 -3.33301 59.499 -10s34.5 -16.5 48.5 -29.5s25.167 -28.833 33.5 -47.5s12.833 -40.334 13.5 -65.001c1.33301 -17.333 -3.83398 -32.666 -15.501 -45.999
s-26.167 -20.666 -43.5 -21.999s-32.5 3.83398 -45.5 15.501s-20.167 26.167 -21.5 43.5c0 4.66699 0.333008 10.334 1 17.001s0.166992 13 -1.5 19s-5 11 -10 15s-12.833 6 -23.5 6c-18.667 0 -34.834 -3 -48.501 -9s-25 -13.833 -34 -23.5s-15.667 -20.5 -20 -32.5
s-6.5 -24 -6.5 -36c0 -17.333 3.66699 -33 11 -47s17 -25.833 29 -35.5s25.333 -17.167 40 -22.5s29 -8 43 -8c46 0 85.5 14.5 118.5 43.5s61.833 66.667 86.5 113s46.167 98.333 64.5 156s35.5 115.167 51.5 172.5l38 127c12.667 40.667 26.334 77.334 41.001 110.001h-26
c-12.667 0 -28 1.66699 -46 5l-56.5 11c-19.667 4 -38.834 7.66699 -57.501 11s-35 5 -49 5c-16.667 0 -29.334 -5.33301 -38.001 -16s-13.667 -21.667 -15 -33c-0.666992 -7.33301 0 -13.833 2 -19.5s3.66699 -8.5 5 -8.5c14 1.33301 27 -2.16699 39 -10.5
s20.333 -19.5 25 -33.5c5.33301 -16.667 3.83301 -32.5 -4.5 -47.5s-20.833 -25.167 -37.5 -30.5h-1c-14 -4.66699 -28.5 -4.66699 -43.5 0s-28.833 13.167 -41.5 25.5s-23.167 28.166 -31.5 47.499s-12.5 41.333 -12.5 66c0 22 4 42.333 12 61s18.667 35 32 49
s29.166 24.833 47.499 32.5s37.5 11.5 57.5 11.5c18.667 0 36.334 -1.33301 53.001 -4s32.667 -6 48 -10l45 -12c14.667 -4 29.334 -7.33301 44.001 -10c21.333 -3.33301 41.833 -4.5 61.5 -3.5s38.167 5.16699 55.5 12.5c20.667 17.333 44.334 25.666 71.001 24.999
c11.333 -0.666992 20.5 -5 27.5 -13s10.167 -17.667 9.5 -29c-1.33301 -10 -5.5 -19 -12.5 -27s-14.833 -11.667 -23.5 -11z" />
    <glyph glyph-name="J" unicode="J" horiz-adv-x="729" 
d="M756 847c-4.66699 0 -10.1631 -3.66895 -16.4961 -11.002s-12.833 -18 -19.5 -32s-13.667 -30.667 -21 -50s-14.333 -40.333 -21 -63l-31 -110.5c-10.667 -39.667 -22.667 -80.5 -36 -122.5c2.66699 -0.666992 6.66699 -1 12 -1c10 -1.33301 18 -2 24 -2
s10.667 0.333008 14 1c6.66699 16.667 19 25 37 25c11.333 0 20.833 -3.83301 28.5 -11.5s11.5 -17.167 11.5 -28.5c0 -18.667 -7 -34 -21 -46c-14.667 -12.667 -37.334 -19 -68.001 -19c-9.33301 0 -19.333 0.5 -30 1.5s-22 2.16699 -34 3.5c-10 -29.333 -21 -58 -33 -86
s-24.667 -54.667 -38 -80c-16.667 -30.667 -34.834 -59.167 -54.501 -85.5s-41.5 -49 -65.5 -68s-50.333 -33.833 -79 -44.5s-60.334 -16 -95.001 -16c-31.333 0 -59.666 5.5 -84.999 16.5s-47 25.5 -65 43.5s-31.833 38.667 -41.5 62s-14.5 47.333 -14.5 72
c0 36.667 6 66.834 18 90.501s27 43.5 45 59.5c19.333 17.333 40.833 30.666 64.5 39.999s45.834 14 66.501 14c21.333 0 41.166 -3.33301 59.499 -10s34.5 -16.5 48.5 -29.5s25.167 -28.833 33.5 -47.5s12.833 -40.334 13.5 -65.001
c1.33301 -17.333 -3.83398 -32.666 -15.501 -45.999s-26.167 -20.666 -43.5 -21.999s-32.5 3.83398 -45.5 15.501s-20.167 26.167 -21.5 43.5c0 4.66699 0.333008 10.334 1 17.001s0.166992 13 -1.5 19s-5 11 -10 15s-12.833 6 -23.5 6c-18.667 0 -34.834 -3 -48.501 -9
s-25 -13.833 -34 -23.5s-15.667 -20.5 -20 -32.5s-6.5 -24 -6.5 -36c0 -17.333 3.66699 -33 11 -47s17 -25.833 29 -35.5s25.333 -17.167 40 -22.5s29 -8 43 -8c34.667 0 65.5 8.5 92.5 25.5s51.333 40 73 69s41 62.5 58 100.5s32.5 78.333 46.5 121l-61 8
c-11.333 1.33301 -20.333 1.83301 -27 1.5s-11.667 -0.833008 -15 -1.5c-2.66699 -8 -7.33398 -14.667 -14.001 -20s-14.667 -8 -24 -8c-11.333 0 -20.833 3.83301 -28.5 11.5s-11.5 17.167 -11.5 28.5c0 20 7.33301 36.333 22 49c17.333 14 40.833 20.667 70.5 20
s67.167 -4.66699 112.5 -12l27 92l38 127c12.667 40.667 26.334 77.334 41.001 110.001h-26c-12.667 0 -28 1.66699 -46 5l-56.5 11c-19.667 4 -38.834 7.66699 -57.501 11s-35 5 -49 5c-16.667 0 -29.334 -5.33301 -38.001 -16s-13.667 -21.667 -15 -33
c-0.666992 -7.33301 0 -13.833 2 -19.5s3.66699 -8.5 5 -8.5c14 1.33301 27 -2.16699 39 -10.5s20.333 -19.5 25 -33.5c5.33301 -16.667 3.83301 -32.5 -4.5 -47.5s-20.833 -25.167 -37.5 -30.5h-1c-14 -4.66699 -28.5 -4.66699 -43.5 0s-28.833 13.167 -41.5 25.5
s-23.167 28.166 -31.5 47.499s-12.5 41.333 -12.5 66c0 22 4 42.333 12 61s18.667 35 32 49s29.166 24.833 47.499 32.5s37.5 11.5 57.5 11.5c18.667 0 36.334 -1.33301 53.001 -4s32.667 -6 48 -10l45 -12c14.667 -4 29.334 -7.33301 44.001 -10
c21.333 -3.33301 41.833 -4.5 61.5 -3.5s38.167 5.16699 55.5 12.5c20.667 17.333 44.334 25.666 71.001 24.999c11.333 -0.666992 20.5 -5 27.5 -13s10.167 -17.667 9.5 -29c-1.33301 -10 -5.5 -19 -12.5 -27s-14.833 -11.667 -23.5 -11z" />
    <glyph glyph-name="K" unicode="K" horiz-adv-x="1066" 
d="M756 847c-4.66699 0 -10.166 -3.66895 -16.499 -11.002s-12.833 -18 -19.5 -32s-13.667 -30.667 -21 -50s-14.333 -40.333 -21 -63l-32 -112c-11.333 -40.667 -23.666 -82.667 -36.999 -126c16.667 4 35.834 9.83301 57.501 17.5s44.167 17.5 67.5 29.5
s46.833 26 70.5 42s46.167 34.333 67.5 55c14.667 14 28.667 28.833 42 44.5s25.166 32.5 35.499 50.5s18.5 37.167 24.5 57.5s9 42.5 9 66.5c0 17.333 5.83301 32.166 17.5 44.499s26.167 18.5 43.5 18.5s32.166 -6 44.499 -18s18.5 -26.667 18.5 -44
c0 -50 -11 -96.5 -33 -139.5s-50.5 -81.667 -85.5 -116s-74 -64.5 -117 -90.5s-85.5 -47 -127.5 -63c20 -12.667 36.833 -27.667 50.5 -45s24.834 -36 33.501 -56c10.667 -26 18.334 -52.667 23.001 -80s8.16699 -52.166 10.5 -74.499s5.16602 -40.666 8.49902 -54.999
s9.66602 -21.5 18.999 -21.5c6.66699 0 16.834 6 30.501 18s29.167 29.333 46.5 52s35.833 50.667 55.5 84s38.5 71.666 56.5 114.999c4.66699 10.667 11.667 18.5 21 23.5s19.666 5.83301 30.999 2.5c10.667 -3.33301 18.167 -10 22.5 -20s4.83301 -20.333 1.5 -31
c-7.33301 -18.667 -16.5 -39.667 -27.5 -63s-23.333 -47 -37 -71s-28.5 -47.333 -44.5 -70s-32.833 -43 -50.5 -61s-36 -32.333 -55 -43s-38.167 -16 -57.5 -16c-30.667 0 -53.667 10 -69 30s-27.166 44.833 -35.499 74.5s-15.833 61.5 -22.5 95.5s-16.334 65 -29.001 93
c-6.66699 14 -15.5 25.833 -26.5 35.5s-23.167 17.5 -36.5 23.5s-27.166 10.667 -41.499 14s-27.833 5.33301 -40.5 6c-10 -27.333 -20.5 -53.833 -31.5 -79.5s-22.833 -50.167 -35.5 -73.5c-16.667 -30.667 -34.834 -59.167 -54.501 -85.5s-41.5 -49 -65.5 -68
s-50.333 -33.833 -79 -44.5s-60.334 -16 -95.001 -16c-31.333 0 -59.666 5.5 -84.999 16.5s-47 25.5 -65 43.5s-31.833 38.667 -41.5 62s-14.5 47.333 -14.5 72c0 36.667 6 66.834 18 90.501s27 43.5 45 59.5c19.333 17.333 40.833 30.666 64.5 39.999s45.834 14 66.501 14
c21.333 0 41.166 -3.33301 59.499 -10s34.5 -16.5 48.5 -29.5s25.167 -28.833 33.5 -47.5s12.833 -40.334 13.5 -65.001c1.33301 -17.333 -3.83398 -32.666 -15.501 -45.999s-26.167 -20.666 -43.5 -21.999s-32.5 3.83398 -45.5 15.501s-20.167 26.167 -21.5 43.5
c0 4.66699 0.333008 10.334 1 17.001s0.166992 13 -1.5 19s-5 11 -10 15s-12.833 6 -23.5 6c-18.667 0 -34.834 -3 -48.501 -9s-25 -13.833 -34 -23.5s-15.667 -20.5 -20 -32.5s-6.5 -24 -6.5 -36c0 -17.333 3.66699 -33 11 -47s17 -25.833 29 -35.5
s25.333 -17.167 40 -22.5s29 -8 43 -8c46 0 85.5 14.5 118.5 43.5s61.833 66.667 86.5 113s46.167 98.333 64.5 156s35.5 115.167 51.5 172.5l38 127c12.667 40.667 26.334 77.334 41.001 110.001h-26c-12.667 0 -28 1.66699 -46 5l-56.5 11
c-19.667 4 -38.834 7.66699 -57.501 11s-35 5 -49 5c-16.667 0 -29.334 -5.33301 -38.001 -16s-13.667 -21.667 -15 -33c-0.666992 -7.33301 0 -13.833 2 -19.5s3.66699 -8.5 5 -8.5c14 1.33301 27 -2.16699 39 -10.5s20.333 -19.5 25 -33.5
c5.33301 -16.667 3.83301 -32.5 -4.5 -47.5s-20.833 -25.167 -37.5 -30.5h-1c-14 -4.66699 -28.5 -4.66699 -43.5 0s-28.833 13.167 -41.5 25.5s-23.167 28.166 -31.5 47.499s-12.5 41.333 -12.5 66c0 22 4 42.333 12 61s18.667 35 32 49s29.166 24.833 47.499 32.5
s37.5 11.5 57.5 11.5c18.667 0 36.334 -1.33301 53.001 -4s32.667 -6 48 -10l45 -12c14.667 -4 29.334 -7.33301 44.001 -10c21.333 -3.33301 41.833 -4.5 61.5 -3.5s38.167 5.16699 55.5 12.5c20.667 17.333 44.334 25.666 71.001 24.999
c11.333 -0.666992 20.5 -5 27.5 -13s10.167 -17.667 9.5 -29c-1.33301 -10 -5.5 -19 -12.5 -27s-14.833 -11.667 -23.5 -11z" />
    <glyph glyph-name="L" unicode="L" horiz-adv-x="1025" 
d="M785 929c20 0 39.332 -3.84082 57.999 -11.5078s35 -18.5 49 -32.5s25.167 -30.333 33.5 -49s12.5 -39 12.5 -61c0 -24.667 -4.16699 -46.667 -12.5 -66s-18.833 -35.166 -31.5 -47.499s-26.5 -20.833 -41.5 -25.5s-29.5 -4.66699 -43.5 0h-1
c-16.667 5.33301 -29.167 15.5 -37.5 30.5s-9.83301 30.833 -4.5 47.5c4.66699 14 13 25.167 25 33.5s25 11.833 39 10.5c1.33301 0 3 2.83301 5 8.5s2.66699 12.167 2 19.5c-1.33301 11.333 -6.33301 22.333 -15 33s-21.334 16 -38.001 16c-28 0 -49.333 -12.5 -64 -37.5
s-28.667 -60.5 -42 -106.5c-10 -33.333 -20.333 -69.833 -31 -109.5s-22.5 -80.5 -35.5 -122.5s-27.5 -83.833 -43.5 -125.5s-34 -81.167 -54 -118.5c-10 -18.667 -20.333 -36.167 -31 -52.5s-22.334 -32.166 -35.001 -47.499c40 -4 76.667 -9.16699 110 -15.5
s65.5 -11 96.5 -14s61.833 -2.66699 92.5 1s63.667 13.834 99 30.501c38 17.333 73 44 105 80s59.667 85.667 83 149c4 10.667 10.833 18.334 20.5 23.001s19.834 5.33398 30.501 2.00098c10.667 -4 18.334 -11 23.001 -21s5.33398 -20 2.00098 -30
c-15.333 -42 -34.5 -80.667 -57.5 -116s-48.833 -66.333 -77.5 -93s-59.5 -48.5 -92.5 -65.5s-66.833 -28.5 -101.5 -34.5c-42.667 -7.33301 -80.667 -10 -114 -8s-65.666 5.66699 -96.999 11l-96.5 16.5c-33 5.66699 -70.833 8.5 -113.5 8.5
c-20 -12 -41.5 -21.333 -64.5 -28s-48.167 -10 -75.5 -10c-31.333 0 -59.666 5.5 -84.999 16.5s-47 25.5 -65 43.5s-31.833 38.667 -41.5 62s-14.5 47.333 -14.5 72c0 36.667 6 66.834 18 90.501s27 43.5 45 59.5c19.333 17.333 40.833 30.666 64.5 39.999
s45.834 14 66.501 14c21.333 0 41.166 -3.33301 59.499 -10s34.5 -16.5 48.5 -29.5s25.167 -28.833 33.5 -47.5s12.833 -40.334 13.5 -65.001c1.33301 -17.333 -3.83398 -32.666 -15.501 -45.999s-26.167 -20.666 -43.5 -21.999s-32.5 3.83398 -45.5 15.501
s-20.167 26.167 -21.5 43.5c0 4.66699 0.333008 10.334 1 17.001s0.166992 13 -1.5 19s-5 11 -10 15s-12.833 6 -23.5 6c-18.667 0 -34.834 -3 -48.501 -9s-25 -13.833 -34 -23.5s-15.667 -20.5 -20 -32.5s-6.5 -24 -6.5 -36c0 -17.333 3.66699 -33 11 -47
s17 -25.833 29 -35.5s25.333 -17.167 40 -22.5s29 -8 43 -8c46 0 85.5 14.5 118.5 43.5s61.833 66.667 86.5 113s46.167 98.333 64.5 156s35.5 115.167 51.5 172.5l21.5 74.5c7.66699 27 16.5 54 26.5 81s21.333 53 34 78s27 47 43 66s34 34.333 54 46s42.667 17.5 68 17.5z
" />
    <glyph glyph-name="M" unicode="M" horiz-adv-x="1274" 
d="M1084 79c13.333 0 27.0029 4.99414 41.0029 14.9941s27.667 23 41 39s26.166 34 38.499 54s23.666 39.833 33.999 59.5s19.166 38.167 26.499 55.5s13 31.333 17 42c4.66699 12.667 12.334 21 23.001 25s20.334 4.33301 29.001 1c10.667 -3.33301 18.5 -10.333 23.5 -21
s4.83301 -22 -0.5 -34l-27.5 -60.5c-10.333 -22.333 -22 -45.166 -35 -68.499s-27.167 -46.166 -42.5 -68.499s-31.666 -42.166 -48.999 -59.499s-36 -31.333 -56 -42s-41 -16 -63 -16c-27.333 0 -49.333 6 -66 18s-29 28.5 -37 49.5s-12.333 46 -13 75s1.5 60.667 6.5 95
s11.833 70.5 20.5 108.5s18.667 76.667 30 116l9.5 32.5l9.5 32.5l-271 -477c-3.33301 -8 -8.5 -14.167 -15.5 -18.5s-14.167 -6.5 -21.5 -6.5c-4.66699 0 -8.33398 0.333008 -11.001 1c-8 1.33301 -15.167 4.5 -21.5 9.5s-10.833 11.833 -13.5 20.5l-60 519l-25.5 -90
c-9 -30.667 -18.833 -61.5 -29.5 -92.5s-22.334 -61.5 -35.001 -91.5s-26.334 -58.667 -41.001 -86c-16.667 -30.667 -34.834 -59.167 -54.501 -85.5s-41.5 -49 -65.5 -68s-50.333 -33.833 -79 -44.5s-60.334 -16 -95.001 -16c-31.333 0 -59.666 5.5 -84.999 16.5
s-47 25.5 -65 43.5s-31.833 38.667 -41.5 62s-14.5 47.333 -14.5 72c0 36.667 6 66.834 18 90.501s27 43.5 45 59.5c19.333 17.333 40.833 30.666 64.5 39.999s45.834 14 66.501 14c21.333 0 41.166 -3.33301 59.499 -10s34.5 -16.5 48.5 -29.5s25.167 -28.833 33.5 -47.5
s12.833 -40.334 13.5 -65.001c1.33301 -17.333 -3.83398 -32.666 -15.501 -45.999s-26.167 -20.666 -43.5 -21.999s-32.5 3.83398 -45.5 15.501s-20.167 26.167 -21.5 43.5c0 4.66699 0.333008 10.334 1 17.001s0.166992 13 -1.5 19s-5 11 -10 15s-12.833 6 -23.5 6
c-18.667 0 -34.834 -3 -48.501 -9s-25 -13.833 -34 -23.5s-15.667 -20.5 -20 -32.5s-6.5 -24 -6.5 -36c0 -17.333 3.66699 -33 11 -47s17 -25.833 29 -35.5s25.333 -17.167 40 -22.5s29 -8 43 -8c46 0 85.5 14.5 118.5 43.5s61.833 66.667 86.5 113s46.167 98.333 64.5 156
s35.5 115.167 51.5 172.5l38 127c12.667 40.667 26.334 77.334 41.001 110.001h-26c-12.667 0 -28 1.66699 -46 5l-56.5 11c-19.667 4 -38.834 7.66699 -57.501 11s-35 5 -49 5c-16.667 0 -29.334 -5.33301 -38.001 -16s-13.667 -21.667 -15 -33
c-0.666992 -7.33301 0 -13.833 2 -19.5s3.66699 -8.5 5 -8.5c14 1.33301 27 -2.16699 39 -10.5s20.333 -19.5 25 -33.5c5.33301 -16.667 3.83301 -32.5 -4.5 -47.5s-20.833 -25.167 -37.5 -30.5h-1c-14 -4.66699 -28.5 -4.66699 -43.5 0s-28.833 13.167 -41.5 25.5
s-23.167 28.166 -31.5 47.499s-12.5 41.333 -12.5 66c0 22 4 42.333 12 61s18.667 35 32 49s29.166 24.833 47.499 32.5s37.5 11.5 57.5 11.5c18.667 0 36.334 -1.33301 53.001 -4s32.667 -6 48 -10l45 -12c14.667 -4 29.334 -7.33301 44.001 -10
c21.333 -3.33301 41.833 -4.5 61.5 -3.5s38.167 5.16699 55.5 12.5c20.667 17.333 44.334 25.666 71.001 24.999c11.333 -0.666992 20.5 -5 27.5 -13s10.167 -17.667 9.5 -29c-1.33301 -10 -5.5 -19 -12.5 -27s-14.833 -11.667 -23.5 -11c-4.66699 0 -10 -3.33301 -16 -10
l36 -647l396 697c2.66699 6.66699 6.66699 13.334 12 20.001l2 2c8 8 17.667 13.5 29 16.5s22.666 2.83301 33.999 -0.5c16.667 -5.33301 29.334 -15.833 38.001 -31.5s9.66699 -31.5 3 -47.5l-69.5 -176c-23 -60 -44.333 -118.5 -64 -175.5s-37 -110.667 -52 -161
s-25.667 -94.333 -32 -132s-7.66602 -67.5 -3.99902 -89.5s13.834 -33 30.501 -33z" />
    <glyph glyph-name="N" unicode="N" horiz-adv-x="1095" 
d="M741 847c-5.33301 0 -10.332 -2.99609 -14.999 -8.99609l134 -555c9.33301 40 19.833 80.333 31.5 121s24.834 81.334 39.501 122.001c18 50 38.333 98.667 61 146s47.667 89.166 75 125.499s56.833 65.666 88.5 87.999s65.5 33.5 101.5 33.5
c26.667 0 50.5 -4.33301 71.5 -13s39 -20.5 54 -35.5s26.667 -32.833 35 -53.5s12.5 -43 12.5 -67c0 -19.333 -2.83301 -38.333 -8.5 -57s-14.667 -35.334 -27 -50.001s-27.666 -26.334 -45.999 -35.001s-39.833 -13 -64.5 -13c-17.333 0 -32.5 5.66699 -45.5 17
s-20.167 25.666 -21.5 42.999s4 32.5 16 45.5s26.667 19.833 44 20.5c12 0.666992 21.333 2.5 28 5.5s11.5 6.66699 14.5 11s4.83301 9.33301 5.5 15s1 11.167 1 16.5c0 21.333 -7.16699 38.166 -21.5 50.499s-30.166 18.5 -47.499 18.5c-26.667 0 -53.667 -12.5 -81 -37.5
s-53.833 -58.333 -79.5 -100s-49.5 -89.334 -71.5 -143.001s-41.333 -109.167 -58 -166.5s-29.834 -114.5 -39.501 -171.5s-14.5 -109.167 -14.5 -156.5c0 -11.333 -3.83301 -20.833 -11.5 -28.5s-17.167 -11.5 -28.5 -11.5s-20.833 3.66699 -28.5 11s-11.834 15 -12.501 23
v2l-180 594l-29.5 -104.5c-10.333 -37 -21.5 -74.5 -33.5 -112.5s-25.5 -75.833 -40.5 -113.5s-31.5 -73.5 -49.5 -107.5c-16.667 -30.667 -34.834 -59.167 -54.501 -85.5s-41.5 -49 -65.5 -68s-50.333 -33.833 -79 -44.5s-60.334 -16 -95.001 -16
c-31.333 0 -59.666 5.5 -84.999 16.5s-47 25.5 -65 43.5s-31.833 38.667 -41.5 62s-14.5 47.333 -14.5 72c0 36.667 6 66.834 18 90.501s27 43.5 45 59.5c19.333 17.333 40.833 30.666 64.5 39.999s45.834 14 66.501 14c21.333 0 41.166 -3.33301 59.499 -10
s34.5 -16.5 48.5 -29.5s25.167 -28.833 33.5 -47.5s12.833 -40.334 13.5 -65.001c1.33301 -17.333 -3.83398 -32.666 -15.501 -45.999s-26.167 -20.666 -43.5 -21.999s-32.5 3.83398 -45.5 15.501s-20.167 26.167 -21.5 43.5c0 4.66699 0.333008 10.334 1 17.001
s0.166992 13 -1.5 19s-5 11 -10 15s-12.833 6 -23.5 6c-18.667 0 -34.834 -3 -48.501 -9s-25 -13.833 -34 -23.5s-15.667 -20.5 -20 -32.5s-6.5 -24 -6.5 -36c0 -17.333 3.66699 -33 11 -47s17 -25.833 29 -35.5s25.333 -17.167 40 -22.5s29 -8 43 -8
c46 0 85.5 14.5 118.5 43.5s61.833 66.667 86.5 113s46.167 98.333 64.5 156s35.5 115.167 51.5 172.5l38 127c12.667 40.667 26.334 77.334 41.001 110.001h-26c-12.667 0 -28 1.66699 -46 5l-56.5 11c-19.667 4 -38.834 7.66699 -57.501 11s-35 5 -49 5
c-16.667 0 -29.334 -5.33301 -38.001 -16s-13.667 -21.667 -15 -33c-0.666992 -7.33301 0 -13.833 2 -19.5s3.66699 -8.5 5 -8.5c14 1.33301 27 -2.16699 39 -10.5s20.333 -19.5 25 -33.5c5.33301 -16.667 3.83301 -32.5 -4.5 -47.5s-20.833 -25.167 -37.5 -30.5h-1
c-14 -4.66699 -28.5 -4.66699 -43.5 0s-28.833 13.167 -41.5 25.5s-23.167 28.166 -31.5 47.499s-12.5 41.333 -12.5 66c0 22 4 42.333 12 61s18.667 35 32 49s29.166 24.833 47.499 32.5s37.5 11.5 57.5 11.5c18.667 0 36.334 -1.33301 53.001 -4s32.667 -6 48 -10l45 -12
c14.667 -4 29.334 -7.33301 44.001 -10c21.333 -3.33301 41.833 -4.5 61.5 -3.5s38.167 5.16699 55.5 12.5c20.667 17.333 44.334 25.666 71.001 24.999c11.333 -0.666992 20.5 -5 27.5 -13s10.167 -17.667 9.5 -29c-1.33301 -10 -5.5 -19 -12.5 -27
s-14.833 -11.667 -23.5 -11z" />
    <glyph glyph-name="O" unicode="O" horiz-adv-x="717" 
d="M568 799c-34.667 2.66699 -68.166 -1.49902 -100.499 -12.499s-63.166 -26.833 -92.499 -47.5s-56.833 -44.834 -82.5 -72.501s-49.167 -57 -70.5 -88s-40.333 -62.5 -57 -94.5s-30.667 -62.333 -42 -91c-12.667 -32 -23.667 -65.5 -33 -100.5
s-11.666 -67.833 -6.99902 -98.5c4.66699 -32 17.167 -58.667 37.5 -80s45.166 -32 74.499 -32c39.333 0 74.666 7.66699 105.999 23s59.166 35.166 83.499 59.499s46 52 65 83s36.167 62.167 51.5 93.5c-7.33301 6 -16.833 16.333 -28.5 31s-23 32.167 -34 52.5
s-20.333 42.833 -28 67.5s-11.5 50.334 -11.5 77.001c0 33.333 4.16699 63.666 12.5 90.999s19.166 50.666 32.499 69.999s28.666 34.333 45.999 45s34.666 16 51.999 16c20.667 0 38.334 -4.16699 53.001 -12.5s26.667 -19.833 36 -34.5s16.166 -32.167 20.499 -52.5
s6.5 -42.166 6.5 -65.499c0 -28.667 -3 -57.667 -9 -87s-12.667 -56.166 -20 -80.499s-14.333 -44.833 -21 -61.5l-12 -30c10.667 -8 22.334 -14.833 35.001 -20.5s25.167 -9.66699 37.5 -12s23.666 -2.83301 33.999 -1.5s18.5 5.66602 24.5 12.999
c7.33301 8.66699 16.5 13 27.5 13s20.833 -3.66699 29.5 -11c8 -7.33301 12.167 -16.333 12.5 -27s-3.16699 -20.334 -10.5 -29.001c-11.333 -13.333 -25.333 -23.333 -42 -30s-34.834 -9.83398 -54.501 -9.50098s-40.167 3.66602 -61.5 9.99902s-42 15.833 -62 28.5
c-11.333 -27.333 -28 -57.666 -50 -90.999s-48.667 -64.666 -80 -93.999s-67.166 -54 -107.499 -74s-84.5 -30 -132.5 -30c-39.333 0 -74.833 9.66699 -106.5 29s-56.167 47.333 -73.5 84s-25.666 81.334 -24.999 134.001s13.667 112.667 39 180
c32.667 86.667 68.5 159.334 107.5 218.001s78.5 106.667 118.5 144c34 31.333 67.333 56.166 100 74.499s63.334 32 92.001 41s54.167 14.5 76.5 16.5s40.166 2.33301 53.499 1c17.333 -1.33301 31.833 -8.5 43.5 -21.5s16.834 -28.167 15.501 -45.5
s-8.66602 -31.666 -21.999 -42.999s-29 -16.333 -47 -15zM577.001 605.001c0.666992 12 0.834961 24.334 0.501953 37.001s-1.66602 24.167 -3.99902 34.5s-5.5 18.666 -9.5 24.999s-9 9.5 -15 9.5c-10.667 0 -20.334 -4.5 -29.001 -13.5s-16 -20 -22 -33
s-10.667 -27.167 -14 -42.5s-5 -29 -5 -41c0 -21.333 1.66699 -40 5 -56s7.66602 -30 12.999 -42s11.166 -22.667 17.499 -32l18.5 -27c10.667 28.667 20 59 28 91s13.333 62 16 90z" />
    <glyph glyph-name="P" unicode="P" horiz-adv-x="936" 
d="M652 671c-11.333 0 -22.332 -13.1689 -32.999 -39.502s-20.667 -60.5 -30 -102.5l-19 -83.5c-6.66699 -29.667 -14.334 -60.167 -23.001 -91.5c56 2.66699 104.667 14.167 146 34.5s75.833 45.166 103.5 74.499s48.167 61 61.5 95s20 66.333 20 97
c0 20.667 -3.16699 40.667 -9.5 60s-16.333 36.5 -30 51.5s-31.334 26.833 -53.001 35.5s-48.167 13 -79.5 13c-32 0 -67.167 -6.83301 -105.5 -20.5s-74.333 -34.334 -108 -62.001s-61.834 -62.334 -84.501 -104.001s-34 -90.167 -34 -145.5
c0 -17.333 -6 -32.166 -18 -44.499s-26.667 -18.833 -44 -19.5c-17.333 0 -32.166 6 -44.499 18s-18.5 26.667 -18.5 44c0.666992 56.667 9.83398 106.667 27.501 150s42.167 83.333 73.5 120c22 26 47.667 49.167 77 69.5s59.666 37.5 90.999 51.5s62.333 24.667 93 32
s58.667 11 84 11c50 0 93.167 -7.66699 129.5 -23s66.166 -35.666 89.499 -60.999s40.333 -54.5 51 -87.5s15.167 -67.5 13.5 -103.5s-9.5 -72 -23.5 -108s-34 -69.667 -60 -101c-17.333 -21.333 -38.166 -41.5 -62.499 -60.5s-52.166 -35.667 -83.499 -50
s-66 -25.833 -104 -34.5s-79 -13 -123 -13c-8.66699 -24.667 -18.167 -48.5 -28.5 -71.5s-22.166 -44.5 -35.499 -64.5c-30.667 -47.333 -66.834 -81.833 -108.501 -103.5s-89.5 -32.5 -143.5 -32.5c-31.333 0 -59.666 5.5 -84.999 16.5s-47 25.5 -65 43.5
s-31.833 38.667 -41.5 62s-14.5 47.333 -14.5 72c0 36.667 6 66.834 18 90.501s27 43.5 45 59.5c19.333 17.333 40.833 30.666 64.5 39.999s45.834 14 66.501 14c21.333 0 41.166 -3.33301 59.499 -10s34.5 -16.5 48.5 -29.5s25.167 -28.833 33.5 -47.5
s12.833 -40.334 13.5 -65.001c1.33301 -17.333 -3.83398 -32.666 -15.501 -45.999s-26.167 -20.666 -43.5 -21.999s-32.5 3.83398 -45.5 15.501s-20.167 26.167 -21.5 43.5c0 4.66699 0.333008 10.334 1 17.001s0.166992 13 -1.5 19s-5 11 -10 15s-12.833 6 -23.5 6
c-18.667 0 -34.834 -3 -48.501 -9s-25 -13.833 -34 -23.5s-15.667 -20.5 -20 -32.5s-6.5 -24 -6.5 -36c0 -17.333 3.66699 -33 11 -47s17 -25.833 29 -35.5s25.333 -17.167 40 -22.5s29 -8 43 -8c44 0 81.667 11.333 113 34s56.666 53.667 75.999 93
c14 28 25.5 56.167 34.5 84.5s17 56 24 83s13 53.333 18 79s10.5 50.167 16.5 73.5c8.66699 34.667 18.334 66.167 29.001 94.5s22.667 52.333 36 72s28.333 34.5 45 44.5s35.334 14 56.001 12c11.333 -1.33301 20.5 -6 27.5 -14s10.167 -17.667 9.5 -29
c-1.33301 -10 -5.5 -18.667 -12.5 -26s-14.833 -11 -23.5 -11z" />
    <glyph glyph-name="Q" unicode="Q" horiz-adv-x="717" 
d="M6 -24c0 19.333 3.50195 36.8359 10.502 52.5029s17.833 27.834 32.5 36.501c-15.333 17.333 -28 38.166 -38 62.499s-16.333 51.833 -19 82.5s-1 64.334 5 101.001s17 76 33 118c32.667 86.667 68.5 159.334 107.5 218.001s78.5 106.667 118.5 144
c34 31.333 67.333 56.166 100 74.499s63.334 32 92.001 41s54.167 14.5 76.5 16.5s40.166 2.33301 53.499 1c17.333 -1.33301 31.833 -8.5 43.5 -21.5s16.834 -28.167 15.501 -45.5s-8.66602 -31.666 -21.999 -42.999s-29 -16.333 -47 -15
c-34.667 2.66699 -68.167 -1.5 -100.5 -12.5s-63.166 -26.833 -92.499 -47.5s-56.833 -44.834 -82.5 -72.501s-49.167 -57 -70.5 -88s-40.333 -62.5 -57 -94.5s-30.667 -62.333 -42 -91c-12.667 -32 -23.667 -65.5 -33 -100.5s-11.666 -67.833 -6.99902 -98.5
c4.66699 -32 17.167 -58.667 37.5 -80s45.166 -32 74.499 -32c39.333 0 74.666 7.66699 105.999 23s59.166 35.166 83.499 59.499s46 52 65 83s36.167 62.167 51.5 93.5c-7.33301 6 -16.833 16.333 -28.5 31s-23 32.167 -34 52.5s-20.333 42.833 -28 67.5
s-11.5 50.334 -11.5 77.001c0 33.333 4.16699 63.666 12.5 90.999s19.166 50.666 32.499 69.999s28.666 34.333 45.999 45s34.666 16 51.999 16c20.667 0 38.334 -4.16699 53.001 -12.5s26.667 -19.833 36 -34.5s16.166 -32.167 20.499 -52.5s6.5 -42.166 6.5 -65.499
c0 -28.667 -3 -57.667 -9 -87s-12.667 -56.166 -20 -80.499s-14.333 -44.833 -21 -61.5l-12 -30c10.667 -8 22.334 -14.833 35.001 -20.5s25.167 -9.66699 37.5 -12s23.666 -2.83301 33.999 -1.5s18.5 5.66602 24.5 12.999c7.33301 8.66699 16.5 13 27.5 13
s20.833 -3.66699 29.5 -11c8 -7.33301 12.167 -16.333 12.5 -27s-3.16699 -20.334 -10.5 -29.001c-11.333 -13.333 -25.333 -23.333 -42 -30s-34.834 -9.83398 -54.501 -9.50098s-40.167 3.66602 -61.5 9.99902s-42 15.833 -62 28.5c-9.33301 -22 -22.333 -46.5 -39 -73.5
s-36.5 -53.5 -59.5 -79.5s-49.333 -49.833 -79 -71.5s-61.834 -38.167 -96.501 -49.5l26 -12l78 -40.5l78 -41.5c38 -20.667 74 -39.167 108 -55.5s65 -29.833 93 -40.5c26.667 -10 49.334 -16.667 68.001 -20s32.667 -3.33301 42 0
c2.66699 0.666992 4.66699 2.83398 6 6.50098s2.16602 7.5 2.49902 11.5s0.5 8.16699 0.5 12.5v10.5c0 18 6 33.167 18 45.5s26.667 18.833 44 19.5c17.333 0 32.166 -6 44.499 -18s18.5 -26.667 18.5 -44c0 -25.333 -3.33301 -48 -10 -68s-15.834 -37 -27.501 -51
s-25.167 -24.833 -40.5 -32.5s-32 -11.5 -50 -11.5c-23.333 0 -45.666 2.16699 -66.999 6.5s-42.166 10.333 -62.499 18s-40.5 16.5 -60.5 26.5l-61 32l-115 65.5l-112 65.5c-56 32 -104.167 56.167 -144.5 72.5s-66.166 22.5 -77.499 18.5
c-4 -1.33301 -5.83301 -5 -5.5 -11s0.5 -9.66699 0.5 -11c0 -10.667 -4.16699 -19.834 -12.5 -27.501s-18.166 -11.167 -29.499 -10.5c-10.667 0.666992 -19.667 5 -27 13s-11 18 -11 30zM577.002 605.003c0.666992 12 0.834961 24.334 0.501953 37.001
s-1.66602 24.167 -3.99902 34.5s-5.5 18.666 -9.5 24.999s-9 9.5 -15 9.5c-10.667 0 -20.334 -4.5 -29.001 -13.5s-16 -20 -22 -33s-10.667 -27.167 -14 -42.5s-5 -29 -5 -41c0 -21.333 1.66699 -40 5 -56s7.66602 -30 12.999 -42s11.166 -22.667 17.499 -32l18.5 -27
c10.667 28.667 20 59 28 91s13.333 62 16 90z" />
    <glyph glyph-name="R" unicode="R" horiz-adv-x="936" 
d="M652 671c-11.333 0 -22.333 -13.1729 -33 -39.5059s-20.667 -60.5 -30 -102.5l-19 -83.5c-6.66699 -29.667 -14.334 -60.167 -23.001 -91.5c56 2.66699 104.667 14.167 146 34.5s75.833 45.166 103.5 74.499s48.167 61 61.5 95s20 66.333 20 97
c0 20.667 -3.16699 40.667 -9.5 60s-16.333 36.5 -30 51.5s-31.334 26.833 -53.001 35.5s-48.167 13 -79.5 13c-32 0 -67.167 -6.83301 -105.5 -20.5s-74.333 -34.334 -108 -62.001s-61.834 -62.334 -84.501 -104.001s-34 -90.167 -34 -145.5
c0 -17.333 -6 -32.166 -18 -44.499s-26.667 -18.833 -44 -19.5c-17.333 0 -32.166 6 -44.499 18s-18.5 26.667 -18.5 44c0.666992 56.667 9.83398 106.667 27.501 150s42.167 83.333 73.5 120c22 26 47.667 49.167 77 69.5s59.666 37.5 90.999 51.5s62.333 24.667 93 32
s58.667 11 84 11c50 0 93.167 -7.66699 129.5 -23s66.166 -35.666 89.499 -60.999s40.333 -54.5 51 -87.5s15.167 -67.5 13.5 -103.5s-9.5 -72 -23.5 -108s-34 -69.667 -60 -101c-23.333 -28.667 -53.166 -55.167 -89.499 -79.5s-79.166 -43.5 -128.499 -57.5
c7.33301 -8.66699 13.833 -18.167 19.5 -28.5s10.834 -21.166 15.501 -32.499c8 -22 12.833 -45.833 14.5 -71.5s2.66699 -50.5 3 -74.5s0.833008 -46 1.5 -66s3.66699 -35.333 9 -46c3.33301 -6 9.83301 -8 19.5 -6s18.5 3.66699 26.5 5
c17.333 2.66699 33 -0.666016 47 -9.99902s22.667 -22.666 26 -39.999s0.166016 -33.166 -9.50098 -47.499s-23.167 -22.833 -40.5 -25.5c-31.333 -4.66699 -58.166 -4.5 -80.499 0.5s-40.833 13.167 -55.5 24.5s-26 25.5 -34 42.5s-13.333 35.167 -16 54.5
c-3.33301 22.667 -4.5 45.667 -3.5 69s2.16699 45.833 3.5 67.5s1.66602 42 0.999023 61s-4.16699 35.667 -10.5 50s-16.666 26 -30.999 35s-34.5 14.5 -60.5 16.5c-8.66699 -24 -18.167 -47.5 -28.5 -70.5s-22.166 -44.5 -35.499 -64.5
c-30.667 -47.333 -66.834 -81.833 -108.501 -103.5s-89.5 -32.5 -143.5 -32.5c-31.333 0 -59.666 5.5 -84.999 16.5s-47 25.5 -65 43.5s-31.833 38.667 -41.5 62s-14.5 47.333 -14.5 72c0 36.667 6 66.834 18 90.501s27 43.5 45 59.5
c19.333 17.333 40.833 30.666 64.5 39.999s45.834 14 66.501 14c21.333 0 41.166 -3.33301 59.499 -10s34.5 -16.5 48.5 -29.5s25.167 -28.833 33.5 -47.5s12.833 -40.334 13.5 -65.001c1.33301 -17.333 -3.83398 -32.666 -15.501 -45.999s-26.167 -20.666 -43.5 -21.999
s-32.5 3.83398 -45.5 15.501s-20.167 26.167 -21.5 43.5c0 4.66699 0.333008 10.334 1 17.001s0.166992 13 -1.5 19s-5 11 -10 15s-12.833 6 -23.5 6c-18.667 0 -34.834 -3 -48.501 -9s-25 -13.833 -34 -23.5s-15.667 -20.5 -20 -32.5s-6.5 -24 -6.5 -36
c0 -17.333 3.66699 -33 11 -47s17 -25.833 29 -35.5s25.333 -17.167 40 -22.5s29 -8 43 -8c44 0 81.667 11.333 113 34s56.666 53.667 75.999 93c14 28 25.5 56.167 34.5 84.5s17 56 24 83s13 53.333 18 79s10.5 50.167 16.5 73.5c8.66699 34.667 18.334 66.167 29.001 94.5
s22.667 52.333 36 72s28.333 34.5 45 44.5s35.334 14 56.001 12c11.333 -1.33301 20.5 -6 27.5 -14s10.167 -17.667 9.5 -29c-1.33301 -10 -5.5 -18.667 -12.5 -26s-14.833 -11 -23.5 -11z" />
    <glyph glyph-name="S" unicode="S" horiz-adv-x="765" 
d="M378 680c0 -14.667 8.17285 -29.666 24.5059 -44.999s37 -31.666 62 -48.999l80.5 -55.5c28.667 -19.667 55.5 -41.5 80.5 -65.5s45.667 -50.167 62 -78.5s24.5 -59.5 24.5 -93.5c0 -42 -10.667 -80.833 -32 -116.5s-49.166 -66.5 -83.499 -92.5s-73 -46.333 -116 -61
s-86.5 -22 -130.5 -22c-53.333 0 -100.333 7.5 -141 22.5s-75.5 35.667 -104.5 62s-52 57.333 -69 93s-28.5 74.167 -34.5 115.5c-5.33301 40 -5.33301 81.667 0 125s15.333 87 30 131c6.66699 20 18 33 34 39s31.5 6.33301 46.5 1s26.833 -15.5 35.5 -30.5
s8.66699 -32.833 0 -53.5c-8 -20 -15.167 -41.5 -21.5 -64.5s-11 -46 -14 -69s-4.16699 -45.667 -3.5 -68s4 -43.166 10 -62.499c7.33301 -23.333 18.166 -44.666 32.499 -63.999s30.666 -35.833 48.999 -49.5s38.5 -24.334 60.5 -32.001s44 -11.5 66 -11.5
c38.667 0 72.667 4.5 102 13.5s54.5 20.333 75.5 34s38.333 28.667 52 45s24.5 32.166 32.5 47.499s13.667 29 17 41s5 20.667 5 26c0 25.333 -8.5 48.666 -25.5 69.999s-38 41.666 -63 60.999s-52.333 38.333 -82 57s-57 38.5 -82 59.5s-46 43.5 -63 67.5
s-25.5 51 -25.5 81c0 26 7 53 21 81s33.333 53.333 58 76s53.667 41.334 87 56.001s69 22 107 22c39.333 0 70.666 -6.66699 93.999 -20s40.333 -29.833 51 -49.5s16.167 -41 16.5 -64s-2.83398 -44.5 -9.50098 -64.5c-5.33301 -16.667 -15.333 -29.167 -30 -37.5
s-30.334 -10.166 -47.001 -5.49902c-8 2 -15.667 6.16699 -23 12.5s-12.833 14 -16.5 23s-5.33398 19.5 -5.00098 31.5s3.83301 25 10.5 39c-2 8 -8.33301 13.333 -19 16s-23.667 3.16699 -39 1.5s-31.5 -5.66699 -48.5 -12s-32.833 -14.833 -47.5 -25.5
s-26.834 -23.334 -36.501 -38.001s-14.5 -31.334 -14.5 -50.001z" />
    <glyph glyph-name="T" unicode="T" horiz-adv-x="690" 
d="M483 839c-26 0 -49.002 -3.33301 -69.002 -10s-37.167 -15.5 -51.5 -26.5s-25.833 -23.5 -34.5 -37.5s-15 -28.667 -19 -44c-4 -14.667 -6 -29.834 -6 -45.501s1 -30.834 3 -45.501s4.5 -28.167 7.5 -40.5s5.83301 -22.5 8.5 -30.5c3.33301 -8 2.83301 -15.667 -1.5 -23
s-10.5 -12.333 -18.5 -15c-7.33301 -2 -14.5 -1.16699 -21.5 2.5s-11.833 9.16699 -14.5 16.5c-28 78.667 -37 144.667 -27 198c6.66699 34.667 19.334 64.167 38.001 88.5s40 43.833 64 58.5s48.833 25.334 74.5 32.001s48.834 10 69.501 10c50 0 96 -3.66699 138 -11
s82.5 -15.166 121.5 -23.499l114 -23.5c37 -7.33301 75.5 -11 115.5 -11c34 0 61.833 8.83301 83.5 26.5s37.167 39.167 46.5 64.5c6 16 17.167 27.167 33.5 33.5s32.5 5.83301 48.5 -1.5s27.333 -19 34 -35s5.33398 -33.667 -3.99902 -53
c-24 -51.333 -57.167 -89 -99.5 -113s-87.5 -36 -135.5 -36c-44 0 -87 5 -129 15s-83.333 20.833 -124 32.5s-81.334 22.5 -122.001 32.5s-81.667 15 -123 15zM651.998 671c-11.333 0 -22.332 -13.1689 -32.999 -39.502s-20.667 -60.5 -30 -102.5l-21.5 -94.5
c-7.66699 -33.667 -16.5 -67.834 -26.5 -102.501s-21.667 -68.667 -35 -102s-29.333 -64.333 -48 -93c-30.667 -47.333 -66.834 -81.833 -108.501 -103.5s-89.5 -32.5 -143.5 -32.5c-31.333 0 -59.666 5.5 -84.999 16.5s-47 25.5 -65 43.5s-31.833 38.667 -41.5 62
s-14.5 47.333 -14.5 72c0 36.667 6 66.834 18 90.501s27 43.5 45 59.5c19.333 17.333 40.833 30.666 64.5 39.999s45.834 14 66.501 14c21.333 0 41.166 -3.33301 59.499 -10s34.5 -16.5 48.5 -29.5s25.167 -28.833 33.5 -47.5s12.833 -40.334 13.5 -65.001
c1.33301 -17.333 -3.83398 -32.666 -15.501 -45.999s-26.167 -20.666 -43.5 -21.999s-32.5 3.83398 -45.5 15.501s-20.167 26.167 -21.5 43.5c0 4.66699 0.333008 10.334 1 17.001s0.166992 13 -1.5 19s-5 11 -10 15s-12.833 6 -23.5 6c-18.667 0 -34.834 -3 -48.501 -9
s-25 -13.833 -34 -23.5s-15.667 -20.5 -20 -32.5s-6.5 -24 -6.5 -36c0 -17.333 3.66699 -33 11 -47s17 -25.833 29 -35.5s25.333 -17.167 40 -22.5s29 -8 43 -8c44 0 81.667 11.333 113 34s56.666 53.667 75.999 93c14 28 25.5 56.167 34.5 84.5s17 56 24 83
s13 53.333 18 79s10.5 50.167 16.5 73.5c8.66699 34.667 18.334 66.167 29.001 94.5s22.667 52.333 36 72s28.333 34.5 45 44.5s35.334 14 56.001 12c11.333 -1.33301 20.5 -6 27.5 -14s10.167 -17.667 9.5 -29c-1.33301 -10 -5.5 -18.667 -12.5 -26s-14.833 -11 -23.5 -11z
" />
    <glyph glyph-name="U" unicode="U" horiz-adv-x="997" 
d="M807 79c13.333 0 26.9902 4.99512 40.9902 14.9951s27.667 23 41 39s26.166 34 38.499 54s23.666 39.833 33.999 59.5s19.166 38.167 26.499 55.5s13 31.333 17 42c4.66699 12.667 12.334 21 23.001 25s20.334 4.33301 29.001 1c10.667 -3.33301 18.5 -10.333 23.5 -21
s4.83301 -22 -0.5 -34l-27.5 -60.5c-10.333 -22.333 -22 -45.166 -35 -68.499s-27.167 -46.166 -42.5 -68.499s-31.666 -42.166 -48.999 -59.499s-36 -31.333 -56 -42s-41 -16 -63 -16c-25.333 0 -46 5.16699 -62 15.5s-28.333 24.666 -37 42.999s-14 40.166 -16 65.499
s-1.33301 53 2 83l-21 -34.5c-6.66699 -11 -13.667 -21.833 -21 -32.5c-19.333 -28.667 -37.833 -52 -55.5 -70s-34.834 -32 -51.501 -42s-32.667 -16.833 -48 -20.5s-30.666 -5.5 -45.999 -5.5c-41.333 0.666992 -74.666 16.834 -99.999 48.501
s-40.666 71.834 -45.999 120.501c-4 36 -3.83301 74.333 0.5 115s10.333 80.334 18 119.001s15.834 74.167 24.501 106.5l21 77.5c11.333 43.333 22.666 83.833 33.999 121.5l30 98.5c-20 -4 -42.667 -6 -68 -6c-12.667 0 -28 1.66699 -46 5l-56.5 11
c-19.667 4 -38.834 7.66699 -57.501 11s-35 5 -49 5c-16.667 0 -29.334 -5.33301 -38.001 -16s-13.667 -21.667 -15 -33c-0.666992 -7.33301 0 -13.833 2 -19.5s3.66699 -8.5 5 -8.5c14 1.33301 27 -2.16699 39 -10.5s20.333 -19.5 25 -33.5
c5.33301 -16.667 3.83301 -32.5 -4.5 -47.5s-20.833 -25.167 -37.5 -30.5h-1c-14 -4.66699 -28.5 -4.66699 -43.5 0s-28.833 13.167 -41.5 25.5s-23.167 28.166 -31.5 47.499s-12.5 41.333 -12.5 66c0 22 4 42.333 12 61s18.667 35 32 49s29.166 24.833 47.499 32.5
s37.5 11.5 57.5 11.5c18.667 0 36.334 -1.33301 53.001 -4s32.667 -6 48 -10l45 -12c14.667 -4 29.334 -7.33301 44.001 -10c24 -4 47.167 -5 69.5 -3s43.166 8.33301 62.499 19c8 8 17.667 13.5 29 16.5s22.666 2.83301 33.999 -0.5
c16.667 -5.33301 29.334 -15.833 38.001 -31.5s9.66699 -31.5 3 -47.5c-1.33301 -2 -5.16602 -11 -11.499 -27s-14.166 -36.833 -23.499 -62.5l-31.5 -87l-35.5 -100.5c-15.333 -46 -30.166 -93.167 -44.499 -141.5s-25.166 -94.166 -32.499 -137.499
c-4.66699 -29.333 -7.16699 -56.666 -7.5 -81.999s1.83398 -47.333 6.50098 -66s11.834 -33.5 21.501 -44.5s22.5 -16.5 38.5 -16.5c24 -0.666992 48.833 12 74.5 38s51.334 59.667 77.001 101s50.5 88 74.5 140s46.5 104.333 67.5 157s40 103 57 151
s30.833 88.667 41.5 122l12 36l7 24c2 6.66699 3.66699 11.667 5 15c0 2 0.666992 4.33301 2 7l4 12c5.33301 16.667 15.5 29 30.5 37s30.833 9.33301 47.5 4s29.334 -15.833 38.001 -31.5s9.66699 -31.5 3 -47.5l-69.5 -176c-23 -60 -44.333 -118.5 -64 -175.5
s-37 -110.667 -52 -161s-25.667 -94.333 -32 -132s-7.66602 -67.5 -3.99902 -89.5s13.834 -33 30.501 -33z" />
    <glyph glyph-name="V" unicode="V" horiz-adv-x="871" 
d="M937 919l2.00391 0.00292969c30 0 56 -4.83301 78 -14.5s40.333 -22.5 55 -38.5s25.5 -34.167 32.5 -54.5s10.5 -40.833 10.5 -61.5c0 -19.333 -2.83301 -38.333 -8.5 -57s-14.667 -35.334 -27 -50.001s-27.666 -26.334 -45.999 -35.001s-39.833 -13 -64.5 -13
c-17.333 0 -32.5 5.66699 -45.5 17s-20.167 25.666 -21.5 42.999s4 32.5 16 45.5s26.667 19.833 44 20.5c12 0.666992 21.333 2.5 28 5.5s11.5 6.66699 14.5 11s4.83301 9.33301 5.5 15s1 11.167 1 16.5c0.666992 16.667 -5.66602 32.5 -18.999 47.5s-31 22.5 -53 22.5
c-13.333 0 -26 -6.16699 -38 -18.5s-23.5 -29 -34.5 -50s-21.5 -45.167 -31.5 -72.5s-19.667 -56 -29 -86l-27.5 -91.5l-26.5 -87.5l-27.5 -87.5c-9.66699 -31.667 -20.5 -63.667 -32.5 -96s-25.667 -63.5 -41 -93.5s-32.833 -56.5 -52.5 -79.5s-42 -41.5 -67 -55.5
s-52.833 -20.667 -83.5 -20c-45.333 0.666992 -79.5 13.334 -102.5 38.001s-38.333 56.167 -46 94.5s-9.33398 80.5 -5.00098 126.5s11.166 90.667 20.499 134s19 82.5 29 117.5l22 77.5c11.333 43.333 22.666 83.833 33.999 121.5l30 98.5c-20 -4 -42.667 -6 -68 -6
c-12.667 0 -28 1.66699 -46 5l-56.5 11c-19.667 4 -38.834 7.66699 -57.501 11s-35 5 -49 5c-16.667 0 -29.334 -5.33301 -38.001 -16s-13.667 -21.667 -15 -33c-0.666992 -7.33301 0 -13.833 2 -19.5s3.66699 -8.5 5 -8.5c14 1.33301 27 -2.16699 39 -10.5
s20.333 -19.5 25 -33.5c5.33301 -16.667 3.83301 -32.5 -4.5 -47.5s-20.833 -25.167 -37.5 -30.5h-1c-14 -4.66699 -28.5 -4.66699 -43.5 0s-28.833 13.167 -41.5 25.5s-23.167 28.166 -31.5 47.499s-12.5 41.333 -12.5 66c0 22 4 42.333 12 61s18.667 35 32 49
s29.166 24.833 47.499 32.5s37.5 11.5 57.5 11.5c18.667 0 36.334 -1.33301 53.001 -4s32.667 -6 48 -10l45 -12c14.667 -4 29.334 -7.33301 44.001 -10c24 -4 47.167 -5 69.5 -3s43.166 8.33301 62.499 19c8 8 17.667 13.5 29 16.5s22.666 2.83301 33.999 -0.5
c16.667 -5.33301 29.334 -15.833 38.001 -31.5s9.66699 -31.5 3 -47.5c-1.33301 -2 -5.16602 -11 -11.499 -27s-14.166 -36.833 -23.499 -62.5l-31.5 -87l-35.5 -100.5c-5.33301 -14.667 -13 -37 -23 -67s-20.167 -63.167 -30.5 -99.5s-19.333 -73.5 -27 -111.5
s-11.334 -72.667 -11.001 -104s5.83301 -57 16.5 -77s29 -30 55 -30c28.667 0 54.167 12.167 76.5 36.5s42.666 56.333 60.999 96s35.333 84.667 51 135l46.5 154.5l47 153c16 50 33.667 94.5 53 133.5s41.166 70.5 65.499 94.5s52.5 36 84.5 36z" />
    <glyph glyph-name="W" unicode="W" horiz-adv-x="1311" 
d="M1362 919l1.99414 0.000976562c30 0 56 -4.83301 78 -14.5s40.333 -22.5 55 -38.5s25.5 -34.167 32.5 -54.5s10.5 -40.833 10.5 -61.5c0 -19.333 -2.83301 -38.333 -8.5 -57s-14.667 -35.334 -27 -50.001s-27.666 -26.334 -45.999 -35.001s-39.833 -13 -64.5 -13
c-17.333 0 -32.5 5.66699 -45.5 17s-20.167 25.666 -21.5 42.999s4 32.5 16 45.5s26.667 19.833 44 20.5c12 0.666992 21.333 2.5 28 5.5s11.5 6.66699 14.5 11s4.83301 9.33301 5.5 15s1 11.167 1 16.5c0.666992 16.667 -5.66602 32.5 -18.999 47.5s-31 22.5 -53 22.5
c-13.333 0 -26 -6.16699 -38 -18.5s-23.5 -29 -34.5 -50s-21.5 -45.167 -31.5 -72.5s-19.667 -56 -29 -86l-27.5 -91.5l-26.5 -87.5l-27.5 -87.5c-9.66699 -31.667 -20.5 -63.5 -32.5 -95.5s-25.667 -63 -41 -93s-32.833 -56.5 -52.5 -79.5s-41.834 -41.5 -66.501 -55.5
s-52.667 -21 -84 -21s-57.166 6 -77.499 18s-36.5 28.5 -48.5 49.5s-20.333 45.667 -25 74s-6.66699 58.5 -6 90.5c-18 -32 -37.167 -62.167 -57.5 -90.5s-41.5 -53 -63.5 -74s-45 -37.5 -69 -49.5s-49 -17.667 -75 -17c-41.333 0.666992 -74.666 16.834 -99.999 48.501
s-40.666 71.834 -45.999 120.501c-4 36 -3.83301 74.333 0.5 115s10.333 80.334 18 119.001s15.834 74.167 24.501 106.5l21 77.5c11.333 43.333 22.666 83.833 33.999 121.5l30 98.5c-20 -4 -42.667 -6 -68 -6c-12.667 0 -28 1.66699 -46 5l-56.5 11
c-19.667 4 -38.834 7.66699 -57.501 11s-35 5 -49 5c-16.667 0 -29.334 -5.33301 -38.001 -16s-13.667 -21.667 -15 -33c-0.666992 -7.33301 0 -13.833 2 -19.5s3.66699 -8.5 5 -8.5c14 1.33301 27 -2.16699 39 -10.5s20.333 -19.5 25 -33.5
c5.33301 -16.667 3.83301 -32.5 -4.5 -47.5s-20.833 -25.167 -37.5 -30.5h-1c-14 -4.66699 -28.5 -4.66699 -43.5 0s-28.833 13.167 -41.5 25.5s-23.167 28.166 -31.5 47.499s-12.5 41.333 -12.5 66c0 22 4 42.333 12 61s18.667 35 32 49s29.166 24.833 47.499 32.5
s37.5 11.5 57.5 11.5c18.667 0 36.334 -1.33301 53.001 -4s32.667 -6 48 -10l45 -12c14.667 -4 29.334 -7.33301 44.001 -10c24 -4 47.167 -5 69.5 -3s43.166 8.33301 62.499 19c8 8 17.667 13.5 29 16.5s22.666 2.83301 33.999 -0.5
c16.667 -5.33301 29.334 -15.833 38.001 -31.5s9.66699 -31.5 3 -47.5c-1.33301 -2 -5.16602 -11 -11.499 -27s-14.166 -36.833 -23.499 -62.5l-31.5 -87l-35.5 -100.5c-15.333 -46 -30.166 -93.167 -44.499 -141.5s-25.166 -94.166 -32.499 -137.499
c-4.66699 -29.333 -7.16699 -56.666 -7.5 -81.999s1.83398 -47.333 6.50098 -66s11.834 -33.5 21.501 -44.5s22.5 -16.5 38.5 -16.5c23.333 -0.666992 46.5 8.16602 69.5 26.499s45.167 42.333 66.5 72s42 63.5 62 101.5s38.333 76.5 55 115.5s31.834 77.167 45.501 114.5
s25.167 70 34.5 98l22 67l3 11l3 8l4 11c5.33301 16.667 15.5 29 30.5 37s30.833 9.33301 47.5 4s29.334 -15.833 38.001 -31.5s9.66699 -31.5 3 -47.5c-2.66699 -5.33301 -8.16699 -17.666 -16.5 -36.999s-17.833 -43.333 -28.5 -72s-21.834 -60.334 -33.501 -95.001
s-22.167 -69.834 -31.5 -105.501s-16.5 -70.167 -21.5 -103.5s-6.5 -63 -4.5 -89s8.66699 -46.833 20 -62.5s28.666 -23.5 51.999 -23.5c28.667 0 54.167 12.167 76.5 36.5s42.666 56.333 60.999 96s35.333 84.667 51 135l46.5 154.5l47 153c16 50 33.667 94.5 53 133.5
s41.166 70.5 65.499 94.5s52.5 36 84.5 36z" />
    <glyph glyph-name="X" unicode="X" horiz-adv-x="985" 
d="M170 -1c-9.33301 0 -17.9932 3.33105 -25.9932 9.99805c-8.66699 7.33301 -13.334 16.5 -14.001 27.5s2.66602 20.5 9.99902 28.5l308 336c-13.333 33.333 -25.5 66.5 -36.5 99.5l-31 95l-26.5 85.5l-22 72c-3.33301 -39.333 -12.833 -73.5 -28.5 -102.5
s-35.5 -53.167 -59.5 -72.5s-51.333 -33.833 -82 -43.5s-62.667 -14.834 -96 -15.501c-17.333 -0.666992 -32.333 4.66602 -45 15.999s-19.667 25.666 -21 42.999s4.16699 33 16.5 47s26.166 20.333 41.499 19c41.333 -3.33301 76.166 0.833984 104.499 12.501
s49.166 30.167 62.499 55.5c4 8 7.5 17 10.5 27s5.66699 20.5 8 31.5s4.16602 22 5.49902 33s2.33301 21.167 3 30.5c0.666992 16 1.5 30.667 2.5 44s3 24.833 6 34.5s7.33301 17 13 22s13.5 7.5 23.5 7.5c14.667 0 28.167 -4.66699 40.5 -14s24.166 -22.5 35.499 -39.5
s22.333 -37 33 -60l34 -76.5l49.5 -119.5l52.5 -129.5l376 411c7.33301 8.66699 16.5 13.334 27.5 14.001s20.5 -2.66602 28.5 -9.99902c8.66699 -7.33301 13.5 -16.333 14.5 -27s-2.16699 -20.334 -9.5 -29.001l-405 -442c1.33301 -4.66699 2.83301 -9.16699 4.5 -13.5
s3.5 -8.83301 5.5 -13.5l47.5 -121.5c15.667 -38.333 31.667 -71.666 48 -99.999s33.166 -50.666 50.499 -66.999s35 -24.166 53 -23.499c18.667 0 38.5 9.66699 59.5 29s41.5 42.666 61.5 69.999s38.333 56.333 55 87s29.667 57.334 39 80.001c4 10 10.833 17.333 20.5 22
s19.834 5 30.501 1c10.667 -3.33301 18.167 -10.333 22.5 -21s4.5 -21 0.5 -31c-16 -38 -34.833 -76 -56.5 -114s-45.167 -72 -70.5 -102s-52 -54.5 -80 -73.5s-56 -28.5 -84 -28.5c-30.667 0 -60 8.66699 -88 26s-54.5 40.5 -79.5 69.5s-48.667 62.833 -71 101.5
s-42.833 79.667 -61.5 123l-281 -307c-8 -9.33301 -18 -14 -30 -14z" />
    <glyph glyph-name="Y" unicode="Y" horiz-adv-x="950" 
d="M457 81c24.667 -0.666992 49.9932 12.3252 75.9932 38.9922s52 61.167 78 103.5s51.167 90.166 75.5 143.499s47 106.666 68 159.999s39.833 104 56.5 152l41 120l18 65c4.66699 17.333 14.334 30.333 29.001 39s30.667 11 48 7c16.667 -4.66699 29.667 -14.5 39 -29.5
s11.333 -30.5 6 -46.5l-40.5 -123l-48 -148l-53.5 -164.5l-56.5 -172l-56.5 -171l-54 -160.5c40 -11.333 79.333 -23.666 118 -36.999s73 -24.666 103 -33.999c42.667 -14 83.834 -26 123.501 -36s75.667 -17.167 108 -21.5s60.333 -5 84 -2s41.167 10.833 52.5 23.5
c4 4 6.83301 9 8.5 15s2.66699 12 3 18s0.5 11.5 0.5 16.5v10.5c-0.666992 18.667 5 33.834 17 45.501s26.667 17.834 44 18.501s32.166 -5 44.499 -17s18.833 -26.667 19.5 -44c0 -3.33301 -0.333008 -9.5 -1 -18.5s-2 -19 -4 -30s-4.66699 -22.333 -8 -34
s-7.66602 -21.834 -12.999 -30.501c-20 -34 -45.667 -57.667 -77 -71s-66.333 -19.833 -105 -19.5s-79.667 5.83301 -123 16.5s-87.333 23.334 -132 38.001c-50 16.667 -100.167 34.334 -150.5 53.001s-97.833 35.334 -142.5 50.001l-55 -156
c-6 -17.333 -14.833 -31.666 -26.5 -42.999s-24.667 -19.833 -39 -25.5s-29.833 -8.5 -46.5 -8.5s-33.334 2.66699 -50.001 8c-18.667 6 -36.5 15.167 -53.5 27.5s-32.167 27 -45.5 44s-24 36.167 -32 57.5s-12 43.666 -12 66.999c0 24.667 6 46.667 18 66
s27.5 35.5 46.5 48.5s39.833 22.833 62.5 29.5s45 10 67 10c15.333 0 32 -1.16699 50 -3.5s36.667 -5.5 56 -9.5l74 246l-15 -23c-19.333 -28.667 -37.833 -52 -55.5 -70s-34.834 -32 -51.501 -42s-32.667 -16.833 -48 -20.5s-30.666 -5.5 -45.999 -5.5
c-41.333 0.666992 -74.666 16.834 -99.999 48.501s-40.666 71.834 -45.999 120.501c-4 36 -3.83301 74.333 0.5 115s10.333 80.334 18 119.001s15.834 74.167 24.501 106.5l21 77.5c11.333 43.333 22.666 83.833 33.999 121.5l30 98.5c-20 -4 -42.667 -6 -68 -6
c-12.667 0 -28 1.66699 -46 5l-56.5 11c-19.667 4 -38.834 7.66699 -57.501 11s-35 5 -49 5c-16.667 0 -29.334 -5.33301 -38.001 -16s-13.667 -21.667 -15 -33c-0.666992 -7.33301 0 -13.833 2 -19.5s3.66699 -8.5 5 -8.5c14 1.33301 27 -2.16699 39 -10.5
s20.333 -19.5 25 -33.5c5.33301 -16.667 3.83301 -32.5 -4.5 -47.5s-20.833 -25.167 -37.5 -30.5h-1c-14 -4.66699 -28.5 -4.66699 -43.5 0s-28.833 13.167 -41.5 25.5s-23.167 28.166 -31.5 47.499s-12.5 41.333 -12.5 66c0 22 4 42.333 12 61s18.667 35 32 49
s29.166 24.833 47.499 32.5s37.5 11.5 57.5 11.5c18.667 0 36.334 -1.33301 53.001 -4s32.667 -6 48 -10l45 -12c14.667 -4 29.334 -7.33301 44.001 -10c24 -4 47.167 -5 69.5 -3s43.166 8.33301 62.499 19c8 8 17.667 13.5 29 16.5s22.666 2.83301 33.999 -0.5
c16.667 -5.33301 29.334 -15.833 38.001 -31.5s9.66699 -31.5 3 -47.5c-1.33301 -2 -5.16602 -11 -11.499 -27s-14.166 -36.833 -23.499 -62.5l-31.5 -87l-35.5 -100.5c-15.333 -46 -30.166 -93.167 -44.499 -141.5s-25.166 -94.166 -32.499 -137.499
c-4.66699 -29.333 -7.16699 -56.666 -7.5 -81.999s1.83398 -47.333 6.50098 -66s11.834 -33.5 21.501 -44.5s22.5 -16.5 38.5 -16.5zM482.993 -157.008c-13.333 0 -26.501 -1.33008 -39.501 -3.99707s-24.667 -6.83398 -35 -12.501s-18.833 -13 -25.5 -22
s-10 -19.833 -10 -32.5c0 -20 6.33301 -39.333 19 -58s27.334 -33.334 44.001 -44.001s33 -15.834 49 -15.501s27 9.5 33 27.5l20.5 63l27.5 86c-32 8 -59.667 12 -83 12z" />
    <glyph glyph-name="Z" unicode="Z" horiz-adv-x="946" 
d="M108 -1c-14.667 0 -27.6719 4.33398 -39.0049 13.001c-13.333 10.667 -21.166 24.5 -23.499 41.5s1.83398 32.5 12.501 46.5c24 30.667 53 64.5 87 101.5l114.5 120l136.5 137.5l153 155l155 157c-24.667 -2.66699 -53 -3.66699 -85 -3c-31.333 0 -65.333 4 -102 12
l-109 24.5c-36 8.33301 -70.333 14.833 -103 19.5s-60.667 3.66699 -84 -3c-15.333 -4 -28.833 -10.833 -40.5 -20.5s-21.334 -20.334 -29.001 -32.001s-13.5 -23.834 -17.5 -36.501s-6 -24.334 -6 -35.001c0 -10 1.83301 -20.167 5.5 -30.5s7.83398 -19.5 12.501 -27.5
s9.33398 -14.5 14.001 -19.5s7.66699 -7.5 9 -7.5c19.333 4 35.666 1.5 48.999 -7.5s22.333 -20.5 27 -34.5c5.33301 -16.667 4 -32.834 -4 -48.501s-20.667 -25.5 -38 -29.5c-28.667 -6.66699 -53.834 -4.33398 -75.501 6.99902s-39.834 27.333 -54.501 48
s-25.834 43.5 -33.501 68.5s-11.5 48.167 -11.5 69.5c0 30.667 4.66699 58.834 14 84.501s22 48.334 38 68.001s34.333 36 55 49s42.334 22.5 65.001 28.5c27.333 6.66699 60.5 7.33398 99.5 2.00098s79.167 -12.833 120.5 -22.5l120 -28
c38.667 -9 71.334 -13.5 98.001 -13.5c30.667 0 56.667 1.66699 78 5s39.666 7.5 54.999 12.5s28.5 10.833 39.5 17.5s21.5 13.667 31.5 21c1.33301 1.33301 4 2.66602 8 3.99902c12 7.33301 25.333 10.166 40 8.49902s27.334 -7.83398 38.001 -18.501
c12 -12.667 17.833 -27.5 17.5 -44.5s-6.5 -31.5 -18.5 -43.5c-0.666992 -0.666992 -7.66699 -7.16699 -21 -19.5l-54.5 -50.5l-80.5 -76l-98.5 -95.5l-110 -108.5l-114.5 -115.5l-111.5 -117.5l-101.5 -113c43.333 -1.33301 88.166 -5.66602 134.499 -12.999
s92.333 -13.333 138 -18s90.5 -5.66699 134.5 -3s85.667 13.334 125 32.001c38 17.333 73 44 105 80s59.667 85.667 83 149c4 10.667 10.833 18.334 20.5 23.001s19.834 5.33398 30.501 2.00098c10.667 -4 18.334 -11 23.001 -21s5.33398 -20 2.00098 -30
c-15.333 -42 -34.5 -80.667 -57.5 -116s-48.833 -66.333 -77.5 -93s-59.5 -48.5 -92.5 -65.5s-66.833 -28.5 -101.5 -34.5c-42.667 -7.33301 -84.667 -10 -126 -8s-81.666 5.66699 -120.999 11s-77.833 10.833 -115.5 16.5s-73.834 8.5 -108.501 8.5
c-15.333 0 -28.166 -0.333008 -38.499 -1s-19.166 -1.66699 -26.499 -3l-9 -12c-6 -8 -13.333 -14 -22 -18s-17.667 -6 -27 -6z" />
    <glyph glyph-name="bracketleft" unicode="[" horiz-adv-x="411" 
d="M389 831h-159l-70 -995h157c5.33301 0 10 -2 14 -6s6 -8.66699 6 -14s-2 -10 -6 -14s-8.66699 -6 -14 -6h-220c-16.667 1.33301 -30.167 8.33301 -40.5 21s-14.833 27.334 -13.5 44.001l72 955c1.33301 15.333 7.5 28.166 18.5 38.499s24.167 15.833 39.5 16.5h216
c5.33301 0 10 -2 14 -6s6 -8.66699 6 -14s-2 -10 -6 -14s-8.66699 -6 -14 -6z" />
    <glyph glyph-name="bracketright" unicode="]" horiz-adv-x="411" 
d="M181 -164l70 995h-157c-5.33301 0 -10 2 -14 6s-6 8.66699 -6 14s2 10 6 14s8.66699 6 14 6h220c16.667 -1.33301 30.167 -8.33301 40.5 -21s14.833 -27.334 13.5 -44.001l-72 -955c-1.33301 -15.333 -7.5 -28.166 -18.5 -38.499s-24.167 -15.833 -39.5 -16.5h-216
c-5.33301 0 -10 2 -14 6s-6 8.66699 -6 14s2 10 6 14s8.66699 6 14 6h159z" />
    <glyph glyph-name="underscore" unicode="_" horiz-adv-x="639" 
d="M524 -139c1.33301 0 2.83301 0.167969 4.5 0.500977s3.16699 0.5 4.5 0.5c13.333 0 25 -4.83301 35 -14.5s15 -21.5 15 -35.5s-4.83301 -25.833 -14.5 -35.5s-21.5 -14.834 -35.5 -15.501h-448c-10 0 -18.833 3.16699 -26.5 9.5s-12.167 14.166 -13.5 23.499
c-1.33301 11.333 1.16699 21.333 7.5 30s14.833 14.334 25.5 17.001z" />
    <glyph glyph-name="grave" unicode="`" horiz-adv-x="229" 
d="M107 685l91 -89.999c7.33301 -8 11 -17.5 11 -28.5s-3.66699 -20.5 -11 -28.5c-7.33301 -7.33301 -15.833 -11.166 -25.5 -11.499s-18.5 2.16699 -26.5 7.5l-104 75c-11.333 8.66699 -18 19.667 -20 33s1 25.666 9 36.999s18.833 18.166 32.5 20.499
s26.167 -0.5 37.5 -8.5z" />
    <glyph glyph-name="a" unicode="a" 
d="M371 79c12 0 24.333 4.99512 37 14.9951s25 22.833 37 38.5s23.667 33.5 35 53.5s21.666 39.833 30.999 59.5s17.333 38.167 24 55.5s11.667 31.666 15 42.999c3.33301 12.667 10.666 21 21.999 25s21.333 4.33301 30 1c10.667 -3.33301 18.5 -10.166 23.5 -20.499
s4.83301 -21.833 -0.5 -34.5l-24.5 -60.5c-9 -22.333 -19.167 -45.166 -30.5 -68.499s-24 -46.166 -38 -68.499s-29.333 -42.166 -46 -59.499s-34.5 -31.333 -53.5 -42s-39.5 -16 -61.5 -16c-35.333 0 -63 10 -83 30s-34 45 -42 75
c-11.333 -14.667 -23.833 -28.5 -37.5 -41.5s-28.167 -24.333 -43.5 -34s-31.666 -17.167 -48.999 -22.5s-35.666 -7.66602 -54.999 -6.99902c-34 1.33301 -60.333 14.333 -79 39s-29 55.667 -31 93c-1.33301 30 2.33398 61.5 11.001 94.5s20 64.5 34 94.5
c16 32.667 34.167 64 54.5 94s42.5 56.167 66.5 78.5s49 40.166 75 53.499s52.333 20 79 20c30 0 54.333 -4.5 73 -13.5s33.167 -20.167 43.5 -33.5s17.333 -28.166 21 -44.499s5.5 -31.833 5.5 -46.5c0 -19.333 -7 -35.5 -21 -48.5s-30.333 -18.5 -49 -16.5
c-17.333 2 -31.333 9.66699 -42 23s-15 28.666 -13 45.999c0.666992 4 1.5 7 2.5 9s-0.5 3.33301 -4.5 4c-28 4.66699 -57.833 -4.5 -89.5 -27.5s-63.834 -62.167 -96.501 -117.5c-15.333 -26 -28 -52.167 -38 -78.5s-16.5 -50 -19.5 -71s-2.33301 -38 2 -51
s12.833 -19.5 25.5 -19.5c22 0 43 7.83301 63 23.5s38 34.5 54 56.5s29.667 44.833 41 68.5s19.666 43.167 24.999 58.5l3 9l3 9c3.33301 7.33301 7.66602 13.333 12.999 18c8 7.33301 17.667 12.333 29 15s22.666 2.33398 33.999 -0.999023c8 -2.66699 15.333 -7 22 -13
s11.834 -13 15.501 -21s5.83398 -16.167 6.50098 -24.5s-1 -16.5 -5 -24.5c-15.333 -31.333 -25.166 -58.166 -29.499 -80.499s-5.5 -40.5 -3.5 -54.5s6 -24.333 12 -31s11.667 -10 17 -10z" />
    <glyph glyph-name="b" unicode="b" horiz-adv-x="456" 
d="M247 258c-17.333 13.333 -31.3281 29.9971 -41.9951 49.9971s-17.334 41 -20.001 63c-2 16 -1.83301 31.5 0.5 46.5s6.83301 28.833 13.5 41.5s15.167 23.334 25.5 32.001s22.833 14.334 37.5 17.001c25.333 4.66699 46.166 -0.5 62.499 -15.5s27.5 -35.167 33.5 -60.5
c5.33301 -20.667 6.66602 -43.167 3.99902 -67.5s-8.33398 -48.833 -17.001 -73.5c22.667 -6.66699 41.5 -8.5 56.5 -5.5s26.5 7.83301 34.5 14.5c6.66699 5.33301 12.5 12.166 17.5 20.499s8.5 15.833 10.5 22.5c3.33301 11.333 10.333 19.5 21 24.5s21.334 5.5 32.001 1.5
c10 -3.33301 17.167 -10 21.5 -20s4.83301 -20.333 1.5 -31c-12 -36 -30.667 -63.333 -56 -82s-53 -29 -83 -31c-13.333 -1.33301 -27.5 -0.833008 -42.5 1.5s-29.167 5.83301 -42.5 10.5c-12 -28 -25.667 -55.167 -41 -81.5s-32 -49.666 -50 -69.999
s-37.667 -36.5 -59 -48.5s-44 -18 -68 -18c-40 0 -69.167 13 -87.5 39s-28.833 60 -31.5 102s1 89.833 11 143.5s23.667 108.167 41 163.5l45 144.5l41 129l32 101c8.66699 28.333 14.667 48.5 18 60.5c4.66699 16.667 14.5 29.167 29.5 37.5s31.167 10.166 48.5 5.49902
c8 -2.66699 15.333 -7 22 -13s12 -13 16 -21s6.33301 -16.5 7 -25.5s-1 -17.833 -5 -26.5c-3.33301 -7.33301 -10.333 -23.666 -21 -48.999l-37.5 -93.5l-46.5 -123c-16.667 -45 -32.667 -90.333 -48 -136s-28.833 -90 -40.5 -133s-19.834 -81.167 -24.501 -114.5
s-4.83398 -60.166 -0.500977 -80.499s14.833 -30.5 31.5 -30.5c16 0 31.833 7 47.5 21s30.167 30.833 43.5 50.5s25 39.5 35 59.5s17.667 36 23 48zM264.005 387.997c0 -17.333 4.33301 -32 13 -44c4 14.667 6 30.334 6 47.001c0 14 -1 23.5 -3 28.5
s-4.16699 6.66699 -6.5 5s-4.5 -5.83398 -6.5 -12.501s-3 -14.667 -3 -24z" />
    <glyph glyph-name="c" unicode="c" horiz-adv-x="403" 
d="M487 317c-16 -43.333 -35.6641 -84 -58.9971 -122s-50.166 -71.5 -80.499 -100.5s-64.333 -51.833 -102 -68.5s-78.5 -25 -122.5 -25c-24.667 0 -46.834 3.83301 -66.501 11.5s-36.5 18 -50.5 31s-25.333 28.333 -34 46s-14 36.5 -16 56.5c-4 34 0.5 70.5 13.5 109.5
s28.833 76.833 47.5 113.5c14 27.333 29.333 53 46 77s34.667 45 54 63s39.666 32.333 60.999 43s43.333 16 66 16c25.333 0 46.166 -5.66699 62.499 -17s28.5 -25.166 36.5 -41.499s12.167 -34 12.5 -53s-2.83398 -36.5 -9.50098 -52.5s-17.334 -27.833 -32.001 -35.5
s-30.334 -8.83398 -47.001 -3.50098s-29 15.833 -37 31.5s-8.66699 32.167 -2 49.5c-29.333 -13.333 -54 -33.166 -74 -59.499s-38.667 -55.833 -56 -88.5c-14.667 -28 -27 -55.5 -37 -82.5s-14 -50.5 -12 -70.5c2 -21.333 10.167 -37.333 24.5 -48s30.833 -16 49.5 -16
c32 0 62.5 6.66699 91.5 20s55.833 31.666 80.5 54.999s46.834 51 66.501 83s36.5 67 50.5 105c3.33301 11.333 10 19 20 23s20.333 4.33301 31 1c10.667 -4 18.334 -11 23.001 -21s5 -20 1 -30z" />
    <glyph glyph-name="d" unicode="d" 
d="M353 79c13.333 0 26.9951 4.99609 40.9951 14.9961s27.667 23 41 39s26.166 34 38.499 54s23.666 39.833 33.999 59.5s19.166 38.167 26.499 55.5s13 31.333 17 42c4.66699 12.667 12.334 21 23.001 25s20.334 4.33301 29.001 1c10.667 -3.33301 18.5 -10.333 23.5 -21
s4.83301 -22 -0.5 -34l-27.5 -60.5c-10.333 -22.333 -22 -45.166 -35 -68.499s-27.167 -46.166 -42.5 -68.499s-31.666 -42.166 -48.999 -59.499s-36 -31.333 -56 -42s-41 -16 -63 -16c-34.667 0 -60.667 9.16699 -78 27.5s-28.666 43.5 -33.999 75.5
c-11.333 -14.667 -23.833 -28.334 -37.5 -41.001s-28.167 -23.667 -43.5 -33s-31.666 -16.666 -48.999 -21.999s-35.333 -7.66602 -54 -6.99902c-34 1.33301 -60.333 14.333 -79 39s-29 55.667 -31 93c-1.33301 30 2.33398 61.5 11.001 94.5s20 64.5 34 94.5
c16 32.667 34.167 64 54.5 94s42.5 56.167 66.5 78.5s49 40.166 75 53.499s52.333 20 79 20c10.667 0 20.667 -0.666992 30 -2s17.666 -3 24.999 -5c19.333 64 38.5 124.333 57.5 181s34.167 104.334 45.5 143.001c5.33301 16.667 15.5 29 30.5 37s30.833 9.33301 47.5 4
s29.334 -15.833 38.001 -31.5s9.66699 -31.5 3 -47.5l-69.5 -176c-23 -60 -44.333 -118.5 -64 -175.5s-37 -110.667 -52 -161s-25.667 -94.333 -32 -132s-7.66602 -67.5 -3.99902 -89.5s13.834 -33 30.501 -33zM284.995 432.996c0.666992 4 1.50098 6.99902 2.50098 8.99902
s-0.5 3.33301 -4.5 4c-28 4.66699 -57.833 -4.5 -89.5 -27.5s-63.834 -62.167 -96.501 -117.5c-15.333 -26 -28 -52.167 -38 -78.5s-16.5 -50 -19.5 -71s-2.33301 -38 2 -51s12.833 -19.5 25.5 -19.5c23.333 0 45.333 8.66699 66 26s39.167 37.833 55.5 61.5
s30 47.5 41 71.5s18.833 43 23.5 57c4 21.333 8.66699 42.833 14 64.5l17 66.5c0 0.666992 0.166992 1.33398 0.5 2.00098s0.5 1.66699 0.5 3z" />
    <glyph glyph-name="e" unicode="e" horiz-adv-x="416" 
d="M355 487c0 -36.667 -8.33594 -68.3359 -25.0029 -95.0029s-37.5 -48.834 -62.5 -66.501s-52.167 -31 -81.5 -40s-56.333 -14.167 -81 -15.5c-6 -14 -12.167 -31.833 -18.5 -53.5s-9.16602 -42.667 -8.49902 -63s6.33398 -37.666 17.001 -51.999s29.667 -20.833 57 -19.5
c40.667 1.33301 87 21.166 139 59.499s96.667 106.5 134 204.5c4 10 11 17.333 21 22s20 5.33398 30 2.00098c10.667 -4 18.167 -11 22.5 -21s4.83301 -20.333 1.5 -31c-15.333 -43.333 -34.833 -84 -58.5 -122s-50.834 -71.5 -81.501 -100.5s-64.167 -51.833 -100.5 -68.5
s-74.166 -25 -113.499 -25c-35.333 0 -65.666 6.33301 -90.999 19s-45.5 29.834 -60.5 51.501s-25 46.5 -30 74.5s-4.83301 57.333 0.5 88c6.66699 38.667 20.5 77.834 41.5 117.501s46 75.334 75 107.001s60.5 57.5 94.5 77.5s67 30 99 30
c28.667 0 49.167 -8.33301 61.5 -25s18.5 -35 18.5 -55zM274.997 486.998c-7.33301 4 -17.666 0.833984 -30.999 -9.49902s-26.666 -23.166 -39.999 -38.499c-12.667 -15.333 -24.167 -30.5 -34.5 -45.5s-17.833 -27.167 -22.5 -36.5
c15.333 3.33301 32.166 9.66602 50.499 18.999s33.166 20 44.499 32c15.333 16.667 26 33.167 32 49.5s6.33301 26.166 1 29.499z" />
    <glyph glyph-name="f" unicode="f" horiz-adv-x="625" 
d="M487 277c-22.667 0 -48.8359 1.31934 -78.5029 3.98633s-64.167 6.33398 -103.5 11.001l-57 6l-63 -202.5l-63 -200.5c40 -11.333 79.5 -23.666 118.5 -36.999s73.5 -24.666 103.5 -33.999c42.667 -14 83.834 -26 123.501 -36s75.667 -17.167 108 -21.5s60.333 -5 84 -2
s41.167 10.833 52.5 23.5c4 4 6.83301 9 8.5 15s2.66699 12 3 18s0.5 11.5 0.5 16.5v10.5c-0.666992 18.667 5 33.834 17 45.501s26.667 17.834 44 18.501s32.166 -5 44.499 -17s18.833 -26.667 19.5 -44c0 -3.33301 -0.333008 -9.5 -1 -18.5s-2 -19 -4 -30
s-4.66699 -22.333 -8 -34s-7.66602 -21.834 -12.999 -30.501c-20 -34 -45.667 -57.667 -77 -71s-66.333 -19.833 -105 -19.5s-79.667 5.83301 -123 16.5s-87.333 23.334 -132 38.001c-50 16.667 -100.167 34.334 -150.5 53.001s-98.166 35.334 -143.499 50.001l-54 -156
c-6 -17.333 -14.833 -31.666 -26.5 -42.999s-24.667 -19.833 -39 -25.5s-29.833 -8.5 -46.5 -8.5s-33.334 2.66699 -50.001 8c-18.667 6 -36.5 15.167 -53.5 27.5s-32.167 27 -45.5 44s-24 36.167 -32 57.5s-12 43.666 -12 66.999c0 24.667 6 46.667 18 66
s27.5 35.5 46.5 48.5s39.833 22.833 62.5 29.5s45 10 67 10c15.333 0 32 -1.16699 50 -3.5s36.667 -5.5 56 -9.5l57 194.5l55 194.5c-19.333 1.33301 -34 1.66602 -44 0.999023s-16.667 -1.66699 -20 -3c-3.33301 -7.33301 -8.33301 -13.5 -15 -18.5
s-14.334 -7.5 -23.001 -7.5c-11.333 0 -20.833 3.83301 -28.5 11.5s-11.5 17.167 -11.5 28.5c0 17.333 7 32.333 21 45c12.667 11.333 30.667 18.5 54 21.5s53 3.5 89 1.5l31 107c10 34.667 20.833 69 32.5 103s24.167 68 37.5 102s29 68 47 102
c6 11.333 13.833 24.333 23.5 39s21.334 28.5 35.001 41.5s29.167 24 46.5 33s37 13.5 59 13.5c18 0 34.667 -3.83301 50 -11.5s28.833 -18.167 40.5 -31.5s21.334 -28.833 29.001 -46.5s13.167 -36.5 16.5 -56.5c4.66699 -27.333 6.33398 -55.666 5.00098 -84.999
s-4.16602 -57.666 -8.49902 -84.999s-9.33301 -52.166 -15 -74.499s-10.5 -40.166 -14.5 -53.499c-5.33301 -17.333 -15.333 -30.166 -30 -38.499s-30.334 -10.166 -47.001 -5.49902s-29.334 14.5 -38.001 29.5s-10.334 30.833 -5.00098 47.5v2c17.333 58 28.333 106 33 144
s6 68 4 90s-6 37.333 -12 46s-11 13 -15 13c-2 0 -5.5 -1.5 -10.5 -4.5s-11.5 -9.33301 -19.5 -19s-17.5 -24 -28.5 -43s-23.667 -44.667 -38 -77s-30.166 -72.333 -47.499 -120s-36 -104.834 -56 -171.501l42 -5l74.5 -7.5c24.333 -2.33301 46.833 -4.16602 67.5 -5.49902
c20 -1.33301 35.167 -1.66602 45.5 -0.999023s17.5 1.33398 21.5 2.00098c7.33301 15.333 19.333 23 36 23c11.333 0 20.833 -3.83301 28.5 -11.5s11.5 -17.167 11.5 -28.5c0 -16.667 -6.33301 -30.667 -19 -42c-9.33301 -8.66699 -21.666 -14.667 -36.999 -18
s-34 -5 -56 -5zM-77.002 -157.014c-13.333 0 -26.501 -1.3291 -39.501 -3.99609s-24.667 -6.83398 -35 -12.501s-18.833 -13 -25.5 -22s-10 -19.833 -10 -32.5c0 -20 6.33301 -39.333 19 -58s27.334 -33.334 44.001 -44.001s33 -15.834 49 -15.501s27 9.5 33 27.5
c7.33301 19.333 14.833 41.666 22.5 66.999l25.5 81c-16 4 -31 7.16699 -45 9.5s-26.667 3.5 -38 3.5z" />
    <glyph glyph-name="g" unicode="g" horiz-adv-x="465" 
d="M178 -351c-6 -17.333 -14.832 -31.6729 -26.499 -43.0059s-24.667 -19.833 -39 -25.5s-29.833 -8.5 -46.5 -8.5s-33.334 2.66699 -50.001 8c-18.667 6 -36.5 15.167 -53.5 27.5s-32.167 27 -45.5 44s-24 36.167 -32 57.5s-12 43.666 -12 66.999c0 24.667 6 46.667 18 66
s27.5 35.5 46.5 48.5s39.833 22.833 62.5 29.5s45 10 67 10c14.667 0 30.167 -1 46.5 -3s33.5 -4.66699 51.5 -8l33 137c-19.333 -17.333 -40.5 -31.166 -63.5 -41.499s-48.167 -15.166 -75.5 -14.499c-34 1.33301 -60.333 14.333 -79 39s-29 55.667 -31 93
c-1.33301 30 2.33398 61.5 11.001 94.5s20 64.5 34 94.5c16 32.667 34.167 64 54.5 94s42.5 56.167 66.5 78.5s49 40.166 75 53.499s52.333 20 79 20c30 0 54.333 -4.5 73 -13.5s33.167 -20.167 43.5 -33.5s17.333 -28.166 21 -44.499s5.5 -31.833 5.5 -46.5
c0 -19.333 -7 -35.5 -21 -48.5s-30.333 -18.5 -49 -16.5c-17.333 2 -31.333 9.66699 -42 23s-15 28.666 -13 45.999c0.666992 4 1.5 7 2.5 9s-0.5 3.33301 -4.5 4c-28 4.66699 -57.833 -4.5 -89.5 -27.5s-63.834 -62.167 -96.501 -117.5c-15.333 -26 -28 -52.167 -38 -78.5
s-16.5 -50 -19.5 -71s-2.33301 -38 2 -51s12.833 -19.5 25.5 -19.5c22.667 0 44.334 8.5 65.001 25.5s39 37 55 60s29.667 46.5 41 70.5s19.666 43.333 24.999 58c0 1.33301 0.666992 4 2 8c4.66699 17.333 14.334 30.333 29.001 39s30.667 11 48 7
c16.667 -4.66699 29.667 -14.5 39 -29.5s11.333 -30.5 6 -46.5c-14.667 -43.333 -27.334 -82.333 -38.001 -117l-29.5 -96l-25 -84c-7.66699 -26.667 -15.834 -53.667 -24.501 -81c40 -11.333 79.5 -23.666 118.5 -36.999s73.5 -24.666 103.5 -33.999
c42.667 -14 83.834 -26 123.501 -36s75.667 -17.167 108 -21.5s60.333 -5 84 -2s41.167 10.833 52.5 23.5c4 4 6.83301 9 8.5 15s2.66699 12 3 18s0.5 11.5 0.5 16.5v10.5c-0.666992 18.667 5 33.834 17 45.501s26.667 17.834 44 18.501s32.166 -5 44.499 -17
s18.833 -26.667 19.5 -44c0 -3.33301 -0.333008 -9.5 -1 -18.5s-2 -19 -4 -30s-4.66699 -22.333 -8 -34s-7.66602 -21.834 -12.999 -30.501c-20 -34 -45.667 -57.667 -77 -71s-66.333 -19.833 -105 -19.5s-79.667 5.83301 -123 16.5s-87.333 23.334 -132 38.001
c-50 16.667 -100.167 34.334 -150.5 53.001s-97.833 35.334 -142.5 50.001c-7.33301 -22.667 -15.5 -46.667 -24.5 -72zM63.001 -157.007c-13.333 0 -26.501 -1.33008 -39.501 -3.99707s-24.667 -6.83398 -35 -12.501s-18.833 -13 -25.5 -22s-10 -19.833 -10 -32.5
c0 -20 6.33301 -39.333 19 -58s27.334 -33.334 44.001 -44.001s33 -15.834 49 -15.501s27 9.5 33 27.5c15.333 46 30.333 95.667 45 149c-31.333 8 -58 12 -80 12z" />
    <glyph glyph-name="h" unicode="h" horiz-adv-x="535" 
d="M-74 53c1.33301 1.33301 2.00098 2.99902 2.00098 4.99902l20 71.5l29 105l34 125.5l36.5 134.5l36 131l31.5 116l24 89c6.66699 24.333 11 40.833 13 49.5c4.66699 17.333 14.334 30.166 29.001 38.499s30.334 10.5 47.001 6.5
c17.333 -4.66699 30.5 -14.834 39.5 -30.501s10.833 -31.5 5.5 -47.5l-150 -455c20 26.667 40.167 51.167 60.5 73.5s40.166 41.5 59.499 57.5s37.666 28 54.999 36s33.333 11 48 9c44 -6.66699 66.667 -34.834 68 -84.501s-12.667 -119.5 -42 -209.5
c-20.667 -62.667 -33.334 -110.334 -38.001 -143.001s-1.33398 -49 9.99902 -49c13.333 0 27 4.83301 41 14.5s27.5 21.834 40.5 36.501s25 30.167 36 46.5s20.167 31.5 27.5 45.5c14 25.333 25.833 49.166 35.5 71.499s16.5 39.166 20.5 50.499
c4 10.667 10.833 18.167 20.5 22.5s19.834 4.83301 30.501 1.5c10.667 -4 18.167 -11.167 22.5 -21.5s4.83301 -20.166 1.5 -29.499c-12 -32 -26.833 -66.5 -44.5 -103.5s-38.334 -71.5 -62.001 -103.5s-50.167 -58.667 -79.5 -80s-61.666 -32 -96.999 -32
c-25.333 0 -46.166 7 -62.499 21s-28.5 32.333 -36.5 55s-12.333 48.334 -13 77.001s2 57.667 8 87c6 30.667 14.667 60.5 26 89.5s22.166 54.833 32.499 77.5l25 54.5c6.33301 13.667 8.16602 20.5 5.49902 20.5c-10 0 -23 -7 -39 -21s-33.667 -32.667 -53 -56
s-39.666 -50.166 -60.999 -80.499s-42 -61.666 -62 -93.999s-38.667 -64.666 -56 -96.999s-31.666 -62.166 -42.999 -89.499l-5 -17c-4 -12.667 -11.333 -21 -22 -25c-10 -4 -20.333 -4.66699 -31 -2c-10.667 4 -18.334 11.167 -23.001 21.5s-5 20.5 -1 30.5z" />
    <glyph glyph-name="i" unicode="i" horiz-adv-x="293" 
d="M144 585c-11.333 0 -21.334 3.33203 -30.001 9.99902s-14.667 15.667 -18 27c-2.66699 9.33301 -2.66699 18.5 0 27.5s7.33398 16.5 14.001 22.5c-6.66699 8.66699 -10 18.667 -10 30c0 14 5 25.833 15 35.5s21.667 14.5 35 14.5c19.333 0 35.333 -5.5 48 -16.5
s20.334 -25.167 23.001 -42.5c1.33301 -12 0.166016 -23.667 -3.50098 -35s-7.5 -20.666 -11.5 -27.999c-4.66699 -8 -11 -16.333 -19 -25s-18 -14.667 -30 -18c-2.66699 -1.33301 -7 -2 -13 -2zM102.999 78.999c12 0 24.8311 4.99805 38.498 14.998
s27.167 22.833 40.5 38.5s26.5 33.5 39.5 53.5s24.833 39.833 35.5 59.5s19.834 38.167 27.501 55.5s13.167 31.666 16.5 42.999c3.33301 12.667 10.666 21 21.999 25s21.333 4.33301 30 1c10.667 -3.33301 18.5 -10.166 23.5 -20.499s4.83301 -21.833 -0.5 -34.5
c-7.33301 -18 -16 -38.167 -26 -60.5s-21.333 -45.166 -34 -68.499s-26.834 -46.166 -42.501 -68.499s-32.5 -42.166 -50.5 -59.499s-37 -31.333 -57 -42s-41 -16 -63 -16s-40.833 4.16699 -56.5 12.5s-28.167 20 -37.5 35s-16.166 32.333 -20.499 52s-6.5 41.167 -6.5 64.5
c0 30.667 2.5 63.167 7.5 97.5s11.167 67.666 18.5 99.999s14.833 62.833 22.5 91.5l19.5 72c4.66699 16.667 14.667 29 30 37s31.333 9.33301 48 4s29.334 -15.833 38.001 -31.5s9.66699 -31.5 3 -47.5c-11.333 -27.333 -22.5 -56.333 -33.5 -87s-21 -61.167 -30 -91.5
s-16.667 -59.333 -23 -87s-10 -52 -11 -73s0.833008 -37.833 5.5 -50.5s13.334 -19 26.001 -19z" />
    <glyph glyph-name="j" unicode="j" horiz-adv-x="216" 
d="M-102 -351c-6 -17.333 -14.833 -31.6729 -26.5 -43.0059s-24.667 -19.833 -39 -25.5s-29.833 -8.5 -46.5 -8.5s-33.334 2.66699 -50.001 8c-18.667 6 -36.5 15.167 -53.5 27.5s-32.167 27 -45.5 44s-24 36.167 -32 57.5s-12 43.666 -12 66.999c0 24.667 6 46.667 18 66
s27.5 35.5 46.5 48.5s39.833 22.833 62.5 29.5s45 10 67 10c15.333 0 31.666 -1.16699 48.999 -3.5s35.333 -5.16602 54 -8.49902l45 161l44.5 164.5l40 152l32.5 124.5c4.66699 17.333 14.334 30.333 29.001 39s30.667 11 48 7c16.667 -4.66699 29.667 -14.5 39 -29.5
s11.333 -30.5 6 -46.5l-96 -298.5l-95 -296.5c40 -11.333 79.333 -23.666 118 -36.999s73 -24.666 103 -33.999c42.667 -14 83.834 -26 123.501 -36s75.667 -17.167 108 -21.5s60.333 -5 84 -2s41.167 10.833 52.5 23.5c4 4 6.83301 9 8.5 15s2.66699 12 3 18
s0.5 11.5 0.5 16.5v10.5c-0.666992 18.667 5 33.834 17 45.501s26.667 17.834 44 18.501s32.166 -5 44.499 -17s18.833 -26.667 19.5 -44c0 -3.33301 -0.333008 -9.5 -1 -18.5s-2 -19 -4 -30s-4.66699 -22.333 -8 -34s-7.66602 -21.834 -12.999 -30.501
c-20 -34 -45.667 -57.667 -77 -71s-66.333 -19.833 -105 -19.5s-79.667 5.83301 -123 16.5s-87.333 23.334 -132 38.001c-50 16.667 -100.167 34.334 -150.5 53.001s-97.833 35.334 -142.5 50.001l-27.5 -78zM-217 -157.007c-13.333 0 -26.501 -1.32812 -39.501 -3.99512
s-24.667 -6.83398 -35 -12.501s-18.833 -13 -25.5 -22s-10 -19.833 -10 -32.5c0 -20 6.33301 -39.333 19 -58s27.334 -33.334 44.001 -44.001s33 -15.834 49 -15.501s27 9.5 33 27.5c7.33301 19.333 14.833 41.666 22.5 66.999l24.5 82
c-15.333 3.33301 -30 6.16602 -44 8.49902s-26.667 3.5 -38 3.5zM146.999 584.998c-11.333 0 -21.334 3.33203 -30.001 9.99902s-14.667 15.667 -18 27c-2.66699 9.33301 -2.66699 18.5 0 27.5s7.33398 16.5 14.001 22.5c-6.66699 8.66699 -10 18.667 -10 30
c0 14 5 25.833 15 35.5s21.667 14.5 35 14.5c19.333 0 35.333 -5.5 48 -16.5s20.334 -25.167 23.001 -42.5c1.33301 -12 0.166016 -23.667 -3.50098 -35s-7.5 -20.666 -11.5 -27.999c-4.66699 -8 -11 -16.333 -19 -25s-18 -14.667 -30 -18c-2.66699 -1.33301 -7 -2 -13 -2z
" />
    <glyph glyph-name="k" unicode="k" horiz-adv-x="534" 
d="M2 28c-3.33301 -10.667 -9.83008 -18.4951 -19.4971 -23.4951s-19.834 -5.83301 -30.501 -2.5s-18.5 9.66602 -23.5 18.999s-6.16699 19.333 -3.5 30c4 15.333 10.167 37.833 18.5 67.5l28.5 103l35 126.5l37.5 136.5l36.5 134l32.5 119.5l24.5 91.5
c6.66699 25 11 41.833 13 50.5c4.66699 17.333 14.334 30.166 29.001 38.499s30.334 10.5 47.001 6.5c17.333 -4.66699 30.5 -14.834 39.5 -30.501s10.833 -31.5 5.5 -47.5l-183 -553l117 104c39.333 33.333 73 64 101 92c16 16.667 29.833 32 41.5 46s17.5 26.667 17.5 38
c0 17.333 6 32.166 18 44.499s26.667 18.5 44 18.5s32.166 -6 44.499 -18s18.5 -26.667 18.5 -44c0 -20.667 -5.16699 -41 -15.5 -61s-24.166 -40 -41.499 -60s-37.5 -39.667 -60.5 -59s-47.167 -38.666 -72.5 -57.999c12 -4.66699 24 -11.334 36 -20.001
c27.333 -20.667 42.666 -47.334 45.999 -80.001c2 -19.333 1 -38 -3 -56s-8.5 -34.333 -13.5 -49l-12.5 -36c-3.33301 -9.33301 -3.33301 -14.666 0 -15.999c2.66699 -1.33301 10.5 3.5 23.5 14.5s28.667 27.833 47 50.5s37.833 50.667 58.5 84s40 71.666 58 114.999
c4.66699 10.667 11.667 18.5 21 23.5s19.666 5.83301 30.999 2.5c10.667 -3.33301 18.167 -10 22.5 -20s4.83301 -20.333 1.5 -31c-7.33301 -18.667 -16.5 -39.5 -27.5 -62.5s-23.5 -46.333 -37.5 -70s-29.167 -46.834 -45.5 -69.501s-33.333 -42.667 -51 -60
s-35.834 -31.333 -54.501 -42s-37.334 -16 -56.001 -16c-24 0 -43.333 7.5 -58 22.5s-23 33.833 -25 56.5c-1.33301 16 -0.833008 31 1.5 45s5.16602 27.167 8.49902 39.5l9 34.5c2.66699 10.667 4 20.334 4 29.001c0 8 -3.66699 14.5 -11 19.5s-15.5 8.83301 -24.5 11.5
s-17.667 4.66699 -26 6s-13.833 2.33301 -16.5 3l-61.5 -49.5c-19.667 -16.333 -37.667 -32.333 -54 -48s-30.666 -30.667 -42.999 -45s-21.5 -27.5 -27.5 -39.5l-2 -3z" />
    <glyph glyph-name="l" unicode="l" horiz-adv-x="284" 
d="M94 79c13.333 0 26.9971 4.99707 40.9971 14.9971s27.667 23 41 39s26.166 34 38.499 54s23.666 39.833 33.999 59.5s19.166 38.167 26.499 55.5s13 31.333 17 42c4.66699 12.667 12.334 21 23.001 25s20.334 4.33301 29.001 1c10.667 -3.33301 18.5 -10.333 23.5 -21
s4.83301 -22 -0.5 -34l-27.5 -60.5c-10.333 -22.333 -22 -45.166 -35 -68.499s-27.167 -46.166 -42.5 -68.499s-31.666 -42.166 -48.999 -59.499s-36 -31.333 -56 -42s-41 -16 -63 -16c-27.333 0 -49.333 6 -66 18s-29 28.5 -37 49.5s-12.333 46 -13 75s1.5 60.667 6.5 95
s12 70.5 21 108.5s18.833 76.667 29.5 116l35.5 120l36 115l33 103l26.5 84c5.33301 16.667 15.5 29 30.5 37s30.833 9.33301 47.5 4s29.334 -15.833 38.001 -31.5s9.66699 -31.5 3 -47.5l-69.5 -176c-23 -60 -44.333 -118.5 -64 -175.5s-37 -110.667 -52 -161
s-25.667 -94.333 -32 -132s-7.66602 -67.5 -3.99902 -89.5s13.834 -33 30.501 -33z" />
    <glyph glyph-name="m" unicode="m" horiz-adv-x="842" 
d="M295 489c-10.667 0 -23.6592 -7.8291 -38.9922 -23.4961s-31.5 -36.167 -48.5 -61.5s-34.333 -53.833 -52 -85.5s-34.5 -63.334 -50.5 -95.001s-30.5 -61.667 -43.5 -90s-23.167 -51.833 -30.5 -70.5l-1 -2l-10 -33c-3.33301 -10.667 -9.83301 -18.5 -19.5 -23.5
s-19.834 -5.83301 -30.501 -2.5c-12.667 4 -21.334 12.667 -26.001 26v1l-2 7c-1.33301 7.33301 -0.333008 15.666 3 24.999h1l97 461c4.66699 17.333 14.334 30.166 29.001 38.499s30.334 10.5 47.001 6.5c17.333 -4.66699 30.5 -14.834 39.5 -30.501
s10.833 -31.5 5.5 -47.5l-9 -29c23.333 32 47 58 71 78s47 30 69 30s40.833 -3.83301 56.5 -11.5s28.167 -18.334 37.5 -32.001s16.166 -30.167 20.499 -49.5s6.5 -40.333 6.5 -63c0 -8.66699 -0.333008 -17.167 -1 -25.5s-1.66699 -16.833 -3 -25.5
c20.667 30 42 58.167 64 84.5s43.5 49 64.5 68s41.167 33.333 60.5 43s37 13.5 53 11.5c44 -6.66699 66.667 -34.834 68 -84.501s-12.667 -119.5 -42 -209.5c-20.667 -62.667 -33.334 -110.334 -38.001 -143.001s-1.33398 -49 9.99902 -49c13.333 0 27 4.83301 41 14.5
s27.5 21.834 40.5 36.501s25 30.167 36 46.5s20.167 31.5 27.5 45.5c14 25.333 25.833 49.166 35.5 71.499s16.5 39.166 20.5 50.499c4 10.667 10.833 18.167 20.5 22.5s19.834 4.83301 30.501 1.5c10.667 -4 18.167 -11.167 22.5 -21.5s4.83301 -20.166 1.5 -29.499
c-12 -32 -26.833 -66.5 -44.5 -103.5s-38.334 -71.5 -62.001 -103.5s-50.167 -58.667 -79.5 -80s-61.666 -32 -96.999 -32c-25.333 0 -46.166 7 -62.499 21s-28.5 32.333 -36.5 55s-12.333 48.334 -13 77.001s2 57.667 8 87c6 30.667 14.667 60.5 26 89.5
s22.166 54.833 32.499 77.5l25 54.5c6.33301 13.667 8.16602 20.5 5.49902 20.5c-10 0 -22.833 -7 -38.5 -21s-32.834 -32.5 -51.501 -55.5s-38 -49.5 -58 -79.5s-39.5 -61.167 -58.5 -93.5s-36.833 -64.5 -53.5 -96.5s-30.334 -61.667 -41.001 -89
c0 -1.33301 -0.166992 -2.16602 -0.5 -2.49902s-0.5 -1.16602 -0.5 -2.49902c-4.66699 -16.667 -14.667 -29 -30 -37s-31.333 -9.33301 -48 -4s-29.334 15.833 -38.001 31.5s-9.66699 31.5 -3 47.5l34.5 87c12.333 30.667 23.666 61.167 33.999 91.5s19.5 59.333 27.5 87
s13.333 52 16 73s2.16699 37.833 -1.5 50.5s-11.834 19 -24.501 19z" />
    <glyph glyph-name="n" unicode="n" horiz-adv-x="552" 
d="M-56 53c9.33301 23.333 20.668 48.5078 34.001 75.5078s28 54.5 44 82.5s32.833 55.833 50.5 83.5s36.167 54.5 55.5 80.5l-108 -345c0 -0.666992 -0.166992 -1.33398 -0.5 -2.00098s-0.5 -1.33398 -0.5 -2.00098l-5 -10
c-5.33301 -6.66699 -11.833 -11.334 -19.5 -14.001s-15.834 -2.66699 -24.501 0c-10.667 3.33301 -18.5 9.66602 -23.5 18.999s-6.16699 19.333 -3.5 30l100 471c4.66699 17.333 14.334 30.166 29.001 38.499s30.334 10.5 47.001 6.5
c17.333 -4.66699 30.5 -14.834 39.5 -30.501s10.833 -31.5 5.5 -47.5l-36 -114c20.667 28.667 41.834 55.167 63.501 79.5s42.667 45.333 63 63s39.833 31 58.5 40s35.667 12.5 51 10.5c44 -6.66699 66.667 -34.834 68 -84.501s-12.667 -119.5 -42 -209.5
c-20.667 -62.667 -33.334 -110.334 -38.001 -143.001s-1.33398 -49 9.99902 -49c13.333 0 27 4.83301 41 14.5s27.5 21.834 40.5 36.501s25 30.167 36 46.5s20.167 31.5 27.5 45.5c14 25.333 25.833 49.166 35.5 71.499s16.5 39.166 20.5 50.499
c4 10.667 10.833 18.167 20.5 22.5s19.834 4.83301 30.501 1.5c10.667 -4 18.167 -11.167 22.5 -21.5s4.83301 -20.166 1.5 -29.499c-12 -32 -26.833 -66.5 -44.5 -103.5s-38.334 -71.5 -62.001 -103.5s-50.167 -58.667 -79.5 -80s-61.666 -32 -96.999 -32
c-25.333 0 -46.166 7 -62.499 21s-28.5 32.333 -36.5 55s-12.333 48.334 -13 77.001s2 57.667 8 87c6 30.667 14.667 60.5 26 89.5s22.166 54.833 32.499 77.5l25 54.5c6.33301 13.667 8.16602 20.5 5.49902 20.5c-10 0 -23.333 -7.5 -40 -22.5s-35.167 -34.667 -55.5 -59
s-41.5 -52.333 -63.5 -84s-43.167 -64.334 -63.5 -98.001s-39 -67 -56 -100s-30.833 -62.833 -41.5 -89.5v-2l-6 -12c-5.33301 -7.33301 -12 -12.5 -20 -15.5s-16.667 -2.83301 -26 0.5c-10.667 4 -18.334 11.167 -23.001 21.5s-5 20.5 -1 30.5z" />
    <glyph glyph-name="o" unicode="o" horiz-adv-x="467" 
d="M352 283c16.667 -2 32.5 -1.50293 47.5 1.49707s28.167 7.66699 39.5 14s20.666 13.833 27.999 22.5s12 17.334 14 26.001c3.33301 11.333 10.166 19.166 20.499 23.499s20.833 4.83301 31.5 1.5c10 -4 17.333 -11 22 -21s5 -20.333 1 -31
c-9.33301 -24 -22.166 -44.167 -38.499 -60.5s-35 -29.166 -56 -38.499s-43.333 -15.166 -67 -17.499s-46.834 -1.5 -69.501 2.5c-10 -28 -23.167 -54.5 -39.5 -79.5s-34.666 -46.833 -54.999 -65.5s-42 -33.334 -65 -44.001s-45.833 -16 -68.5 -16
c-42 0 -75.833 12.833 -101.5 38.5s-40.167 58.5 -43.5 98.5c-2.66699 31.333 1.33301 65 12 101s24.667 71.667 42 107c14.667 30 32 58.333 52 85s42.5 50.334 67.5 71.001s52.333 37 82 49s61.167 18 94.5 18c17.333 0 32.5 -6.66699 45.5 -20
s18.833 -28.666 17.5 -45.999c-0.666992 -9.33301 -3 -18 -7 -26s-9.33301 -14.667 -16 -20c9.33301 -12.667 15.833 -26.167 19.5 -40.5s5.33398 -29 5.00098 -44s-2 -30 -5 -45s-6.16699 -29.833 -9.5 -44.5zM197 410.997
c-17.333 -12.667 -33.834 -27.835 -49.501 -45.502s-29.834 -36.5 -42.501 -56.5s-23.834 -40.667 -33.501 -62s-17.167 -41.666 -22.5 -60.999c-8 -28.667 -9.16699 -53 -3.5 -73s22.834 -30.333 51.501 -31c28 -0.666992 57.5 15.333 88.5 48s52.5 67.334 64.5 104.001
c-23.333 15.333 -39.666 31.833 -48.999 49.5s-14.666 34.667 -15.999 51s-0.5 30.833 2.5 43.5s5.5 21.667 7.5 27zM282.999 398.996c-2 0 -5.16797 -4.50098 -9.50098 -13.501s-7.16602 -19.167 -8.49902 -30.5c-1.33301 -18 2.66699 -32 12 -42
c1.33301 6 2.83301 13.333 4.5 22s3.16699 17 4.5 25c1.33301 10.667 1.5 19.834 0.5 27.501s-2.16699 11.5 -3.5 11.5z" />
    <glyph glyph-name="p" unicode="p" horiz-adv-x="427" 
d="M169 567c54 0 96.666 -11.6738 127.999 -35.0068s53.666 -52.333 66.999 -87c14 -36 19 -74.5 15 -115.5s-13 -81.167 -27 -120.5c-10 -28.667 -22 -55.667 -36 -81s-30 -47.5 -48 -66.5s-37.833 -34 -59.5 -45s-44.834 -16.5 -69.501 -16.5
c-19.333 0 -36.666 4.83301 -51.999 14.5s-28.666 22.167 -39.999 37.5l-47 -157c40 -11.333 79.5 -23.666 118.5 -36.999s73.5 -24.666 103.5 -33.999c42.667 -14 83.834 -26 123.501 -36s75.667 -17.167 108 -21.5s60.333 -5 84 -2s41.167 10.833 52.5 23.5
c4 4 6.83301 9 8.5 15s2.66699 12 3 18s0.5 11.5 0.5 16.5v10.5c-0.666992 18.667 5 33.834 17 45.501s26.667 17.834 44 18.501s32.166 -5 44.499 -17s18.833 -26.667 19.5 -44c0 -3.33301 -0.333008 -9.5 -1 -18.5s-2 -19 -4 -30s-4.66699 -22.333 -8 -34
s-7.66602 -21.834 -12.999 -30.501c-20 -34 -45.667 -57.667 -77 -71s-66.333 -19.833 -105 -19.5s-79.667 5.83301 -123 16.5s-87.333 23.334 -132 38.001c-50 16.667 -100.167 34.334 -150.5 53.001s-97.833 35.334 -142.5 50.001
c-7.33301 -23.333 -15.5 -47.666 -24.5 -72.999l-30.5 -83c-6 -17.333 -14.833 -31.666 -26.5 -42.999s-24.667 -19.833 -39 -25.5s-29.833 -8.5 -46.5 -8.5s-33.334 2.66699 -50.001 8c-18.667 6 -36.5 15.167 -53.5 27.5s-32.167 27 -45.5 44s-24 36.167 -32 57.5
s-12 43.666 -12 66.999c0 24.667 6 46.667 18 66s27.5 35.5 46.5 48.5s39.833 22.833 62.5 29.5s45 10 67 10c14.667 0 30.334 -1 47.001 -3s34 -4.66699 52 -8l48.5 206.5c15.667 69.667 31.5 135.834 47.5 198.501c2.66699 10 7.16699 18.667 13.5 26s14.166 13 23.499 17
c-12 4 -21.667 11.333 -29 22s-11.333 22.667 -12 36c-0.666992 22 4.16602 41.667 14.499 59s23.833 32.166 40.5 44.499s35.334 21.833 56.001 28.5s41.334 10 62.001 10zM122.999 293.993l-12.002 -36.0049c-0.666992 -0.666992 -1 -1.66699 -1 -3
c-13.333 -40 -25 -76.5 -35 -109.5l-28 -93.5c-12.667 18 -21.667 39.333 -27 64c-4 17.333 -5.66699 35.333 -5 54s2.33398 36.5 5.00098 53.5s6.16699 32.833 10.5 47.5s8.16602 26.667 11.499 36c3.33301 10.667 10 18.334 20 23.001s20.333 5.33398 31 2.00098
s18.334 -10 23.001 -20s5.33398 -20.333 2.00098 -31l-7 -23c-0.666992 -0.666992 -1 -1.66699 -1 -3c-2.66699 -9.33301 -5.16699 -19.666 -7.5 -30.999s-4.16602 -23 -5.49902 -35c-1.33301 -13.333 -1.5 -26.5 -0.5 -39.5s3.16699 -24.667 6.5 -35
s8.16602 -18.666 14.499 -24.999s14.5 -9.5 24.5 -9.5c11.333 0 22.666 4.16699 33.999 12.5s22 19.666 32 33.999s19.167 30.666 27.5 48.999s15.5 37.5 21.5 57.5c7.33301 25.333 12.5 50.833 15.5 76.5s2.33301 48.834 -2 69.501s-13 37.5 -26 50.5
s-31.833 19.5 -56.5 19.5c-4.66699 0 -10.834 -0.5 -18.501 -1.5s-15.167 -2.5 -22.5 -4.5s-13.666 -4.66699 -18.999 -8s-8 -7.33301 -8 -12c0 -11.333 -3.16699 -22.166 -9.5 -32.499s-15.166 -18.166 -26.499 -23.499c14.667 -6 26.167 -16 34.5 -30
s9.83301 -28.333 4.5 -43zM-199.003 -157.012c-13.333 0 -26.501 -1.33008 -39.501 -3.99707s-24.667 -6.83398 -35 -12.501s-18.833 -13 -25.5 -22s-10 -19.833 -10 -32.5c0 -20 6.33301 -39.333 19 -58s27.334 -33.334 44.001 -44.001s33 -15.834 49 -15.501
s27 9.5 33 27.5c8 23.333 15.667 47.5 23 72.5l22 76.5c-30 8 -56.667 12 -80 12z" />
    <glyph glyph-name="q" unicode="q" horiz-adv-x="467" 
d="M-43 -24c0 32.667 9.00195 57.9961 27.002 75.9961c-18.667 23.333 -29.334 52 -32.001 86c-2.66699 31.333 1.33301 65 12 101s24.667 71.667 42 107c14.667 30 32 58.333 52 85s42.5 50.334 67.5 71.001s52.333 37 82 49s61.167 18 94.5 18
c17.333 0 32.5 -6.66699 45.5 -20s18.833 -28.666 17.5 -45.999c-0.666992 -9.33301 -3 -18 -7 -26s-9.33301 -14.667 -16 -20c9.33301 -12.667 15.833 -26.167 19.5 -40.5s5.33398 -29 5.00098 -44s-2 -30 -5 -45s-6.16699 -29.833 -9.5 -44.5
c16.667 -2 32.5 -1.5 47.5 1.5s28.167 7.66699 39.5 14s20.666 13.833 27.999 22.5s12 17.334 14 26.001c3.33301 11.333 10.166 19.166 20.499 23.499s20.833 4.83301 31.5 1.5c10 -4 17.333 -11 22 -21s5 -20.333 1 -31c-9.33301 -24 -22.166 -44.167 -38.499 -60.5
s-35 -29.166 -56 -38.499s-43.333 -15.166 -67 -17.499s-46.834 -1.5 -69.501 2.5c-12.667 -35.333 -29.834 -67.666 -51.501 -96.999s-46.167 -53.333 -73.5 -72c11.333 -4.66699 22.666 -9.83398 33.999 -15.501s23 -11.167 35 -16.5l78 -40.5l78 -41.5
c38 -20.667 74 -39.167 108 -55.5s65 -29.833 93 -40.5c26.667 -10 49.334 -16.667 68.001 -20s32.667 -3.33301 42 0c2.66699 0.666992 4.66699 2.83398 6 6.50098s2.16602 7.5 2.49902 11.5s0.5 8.16699 0.5 12.5v10.5c0 18 6 33.167 18 45.5s26.667 18.833 44 19.5
c17.333 0 32.166 -6 44.499 -18s18.5 -26.667 18.5 -44c0 -25.333 -3.33301 -48 -10 -68s-15.834 -37 -27.501 -51s-25.167 -24.833 -40.5 -32.5s-32 -11.5 -50 -11.5c-23.333 0 -45.666 2.16699 -66.999 6.5s-42.166 10.333 -62.499 18s-40.5 16.5 -60.5 26.5l-61 32
l-115 65.5l-112 65.5c-56 32 -104.167 56.167 -144.5 72.5s-66.166 22.5 -77.499 18.5c-4 -1.33301 -5.83301 -5 -5.5 -11s0.5 -9.66699 0.5 -11c0 -10.667 -4.16699 -19.834 -12.5 -27.501s-18.166 -11.167 -29.499 -10.5c-10.667 0.666992 -19.667 5 -27 13s-11 18 -11 30
zM197.002 410.996c-17.333 -12.667 -33.834 -27.835 -49.501 -45.502s-29.834 -36.5 -42.501 -56.5s-23.834 -40.667 -33.501 -62s-17.167 -41.666 -22.5 -60.999c-8 -28.667 -9.16699 -53 -3.5 -73s22.834 -30.333 51.501 -31c28 -0.666992 57.5 15.333 88.5 48
s52.5 67.334 64.5 104.001c-23.333 15.333 -39.666 31.833 -48.999 49.5s-14.666 34.667 -15.999 51s-0.5 30.833 2.5 43.5s5.5 21.667 7.5 27zM283.001 398.995c-2 0 -5.16797 -4.50098 -9.50098 -13.501s-7.16602 -19.167 -8.49902 -30.5c-1.33301 -18 2.66699 -32 12 -42
c1.33301 6 2.83301 13.333 4.5 22s3.16699 17 4.5 25c1.33301 10.667 1.5 19.834 0.5 27.501s-2.16699 11.5 -3.5 11.5z" />
    <glyph glyph-name="r" unicode="r" horiz-adv-x="529" 
d="M339 79c12 0 24.835 4.99219 38.502 14.9922s27.167 22.833 40.5 38.5s26.5 33.5 39.5 53.5s24.833 39.833 35.5 59.5s19.834 38.167 27.501 55.5s13.167 31.666 16.5 42.999c3.33301 12.667 10.666 21 21.999 25s21.333 4.33301 30 1
c10.667 -3.33301 18.5 -10.166 23.5 -20.499s4.83301 -21.833 -0.5 -34.5l-26 -60c-10 -22.667 -21.333 -45.667 -34 -69s-26.834 -46.166 -42.501 -68.499s-32.5 -42.166 -50.5 -59.499s-37 -31.333 -57 -42s-41 -16 -63 -16s-40.833 4.16699 -56.5 12.5
s-28.167 20 -37.5 35s-16.166 32.333 -20.499 52s-6.5 41.167 -6.5 64.5c0 40.667 4.16699 83.667 12.5 129s17.5 88 27.5 128c-26 -4 -51.5 -5.5 -76.5 -4.5s-45.167 3.83301 -60.5 8.5l-38 -106c-6.66699 -18 -19.334 -27 -38.001 -27c-2 0 -4 0.166992 -6 0.5
s-4.33301 0.833008 -7 1.5c-10.667 3.33301 -18.334 10 -23.001 20s-5 20.333 -1 31l39 112c-18 13.333 -31.667 29.833 -41 49.5s-14.666 40.5 -15.999 62.5c-0.666992 8.66699 0.5 16.834 3.5 24.501s7.16699 14.5 12.5 20.5s11.666 10.833 18.999 14.5
s15.333 5.83398 24 6.50098s17 -0.666016 25 -3.99902s15 -7.66602 21 -12.999s10.833 -11.833 14.5 -19.5s5.16699 -15.834 4.5 -24.501c-0.666992 -11.333 2.16602 -19.666 8.49902 -24.999s15.5 -9.66602 27.5 -12.999c11.333 -3.33301 24.166 -5.66602 38.499 -6.99902
s28.166 -1.66602 41.499 -0.999023s25.333 1.66699 36 3s18.667 3 24 5c7.33301 13.333 17.833 22.666 31.5 27.999s27.834 6 42.501 2c16.667 -5.33301 29.334 -15.833 38.001 -31.5s9.66699 -31.5 3 -47.5c-11.333 -27.333 -22.5 -56.333 -33.5 -87s-21 -61.167 -30 -91.5
s-16.667 -59.333 -23 -87s-10 -52 -11 -73s0.833008 -37.833 5.5 -50.5s13.334 -19 26.001 -19z" />
    <glyph glyph-name="s" unicode="s" horiz-adv-x="510" 
d="M241 423c0 -6 4.83008 -12.8389 14.4971 -20.5059s21.834 -16.5 36.501 -26.5l47.5 -33.5c17 -12.333 32.833 -25.833 47.5 -40.5s26.834 -30.5 36.501 -47.5s14.5 -35.5 14.5 -55.5c0 -28 -6.16699 -54 -18.5 -78s-29 -45 -50 -63s-45.333 -32.167 -73 -42.5
s-56.834 -15.5 -87.501 -15.5c-28 0 -54.333 4 -79 12s-46.5 19.333 -65.5 34s-35 32.667 -48 54s-21.833 45 -26.5 71c-9.33301 50 -2.66602 108 20.001 174c3.33301 10.667 10 18.334 20 23.001s20.333 5.33398 31 2.00098s18.5 -10 23.5 -20s5.5 -20 1.5 -30
c-9.33301 -25.333 -15.5 -49 -18.5 -71s-2.83301 -42.333 0.5 -61c5.33301 -32 18.333 -57.167 39 -75.5s46.334 -27.5 77.001 -27.5c30 0 54.667 4.66699 74 14s34.833 20 46.5 32s19.834 23.833 24.501 35.5s7 19.5 7 23.5c0 14 -5 26.667 -15 38s-22.5 22 -37.5 32
s-31.167 20.167 -48.5 30.5s-33.5 21.833 -48.5 34.5s-27.5 27.334 -37.5 44.001s-15 36.334 -15 59.001c0 25.333 6.33301 48 19 68s28.334 36.833 47.001 50.5s38.5 24.167 59.5 31.5s39.833 11 56.5 11c24 0 44.667 -4 62 -12s31 -18.833 41 -32.5
s16.167 -29.5 18.5 -47.5s0.166016 -37 -6.50098 -57c-5.33301 -16.667 -15.333 -29.167 -30 -37.5s-30.334 -10.166 -47.001 -5.49902s-29.167 14.334 -37.5 29.001s-10.5 30 -6.5 46c-7.33301 -0.666992 -15 -2.16699 -23 -4.5s-15.5 -5.5 -22.5 -9.5s-12.667 -9 -17 -15
s-6.5 -12.667 -6.5 -20z" />
    <glyph glyph-name="t" unicode="t" horiz-adv-x="284" 
d="M-73 737c0.666992 24.667 8.33789 43.6621 23.0049 56.9951s32.667 22.666 54 27.999s44.833 8 70.5 8s50.167 -1.33301 73.5 -4l18 58c5.33301 16.667 15.5 29 30.5 37s30.833 9.33301 47.5 4s29.334 -15.833 38.001 -31.5s9.66699 -31.5 3 -47.5l-15 -36
c92 -13.333 173.5 -24.5 244.5 -33.5s130.667 -12.833 179 -11.5s85 9.66602 110 24.999s37.5 41 37.5 77c0 17.333 6 32.166 18 44.499s26.667 18.833 44 19.5c17.333 0 32.166 -6 44.499 -18s18.5 -26.667 18.5 -44c0 -6.66699 -0.333008 -15 -1 -25
s-2.33398 -20.667 -5.00098 -32s-6.83398 -23.5 -12.501 -36.5s-13.5 -25.833 -23.5 -38.5c-18.667 -23.333 -42.334 -41 -71.001 -53s-60.667 -20 -96 -24s-73 -4.66699 -113 -2s-80.833 7.16699 -122.5 13.5s-83.5 13.666 -125.5 21.999l-121 23.5l-20 3.5
c-6 1 -12.333 2.16699 -19 3.5l-59.5 -157c-19 -52 -36.167 -101.833 -51.5 -149.5s-28.5 -92.167 -39.5 -133.5s-18.333 -77.166 -22 -107.499s-3.33398 -54.166 0.999023 -71.499s14.166 -26 29.499 -26c13.333 0 27 5 41 15s27.667 23 41 39s26.166 34 38.499 54
s23.666 39.833 33.999 59.5s19.166 38.167 26.499 55.5s13 31.333 17 42c4.66699 12.667 12.334 21 23.001 25s20.334 4.33301 29.001 1c10.667 -3.33301 18.5 -10.333 23.5 -21s4.83301 -22 -0.5 -34l-27.5 -60.5c-10.333 -22.333 -22 -45.166 -35 -68.499
s-27.167 -46.166 -42.5 -68.499s-31.666 -42.166 -48.999 -59.499s-36 -31.333 -56 -42s-41 -16 -63 -16c-27.333 0 -49.333 6 -66 18s-29 28.5 -37 49.5s-12.333 46 -13 75s1.5 60.667 6.5 95s12 70.5 21 108.5s18.833 76.667 29.5 116
c13.333 48.667 27.5 96.834 42.5 144.501l42.5 134.5c-34.667 3.33301 -62.167 4.33301 -82.5 3s-30.5 -5.66602 -30.5 -12.999c0 -11.333 -4.16699 -20.666 -12.5 -27.999s-18.166 -10.666 -29.499 -9.99902c-10.667 1.33301 -19.834 6 -27.501 14s-11.167 18 -10.5 30z
" />
    <glyph glyph-name="u" unicode="u" horiz-adv-x="571" 
d="M380 79c12 0 24.8301 4.99805 38.4971 14.998s27.167 22.833 40.5 38.5s26.5 33.5 39.5 53.5s24.833 39.833 35.5 59.5s19.834 38.167 27.501 55.5s13.167 31.666 16.5 42.999c3.33301 12.667 10.666 21 21.999 25s21.333 4.33301 30 1
c10.667 -3.33301 18.5 -10.166 23.5 -20.499s4.83301 -21.833 -0.5 -34.5c-7.33301 -18 -16 -38.167 -26 -60.5s-21.333 -45.166 -34 -68.499s-26.834 -46.166 -42.501 -68.499s-32.5 -42.166 -50.5 -59.499s-37 -31.333 -57 -42s-41 -16 -63 -16
c-36.667 0 -64.167 10.667 -82.5 32s-30.166 49 -35.499 83c-20.667 -32 -44.167 -59.167 -70.5 -81.5s-55.833 -33.5 -88.5 -33.5c-22 0 -40.833 4.16699 -56.5 12.5s-28.167 20 -37.5 35s-16.166 32.333 -20.499 52s-6.5 41.167 -6.5 64.5c0 30.667 2.5 63.167 7.5 97.5
s11.167 67.666 18.5 99.999s14.833 62.833 22.5 91.5l19.5 72c4.66699 16.667 14.667 29 30 37s31.333 9.33301 48 4s29.334 -15.833 38.001 -31.5s9.66699 -31.5 3 -47.5c-11.333 -27.333 -22.5 -56.333 -33.5 -87s-21 -61.167 -30 -91.5s-16.667 -59.333 -23 -87
s-10 -52 -11 -73s0.833008 -37.833 5.5 -50.5s13.334 -19 26.001 -19c17.333 0 35.166 10 53.499 30s35.666 43.833 51.999 71.5s30.833 56 43.5 85s22 52.833 28 71.5c7.33301 37.333 15.5 72.5 24.5 105.5l22.5 82.5c4.66699 16.667 14.667 29 30 37s31.333 9.33301 48 4
s29.334 -15.833 38.001 -31.5s9.66699 -31.5 3 -47.5c-11.333 -27.333 -22.5 -56.333 -33.5 -87s-21 -61.167 -30 -91.5s-16.667 -59.333 -23 -87s-10 -52 -11 -73s0.833008 -37.833 5.5 -50.5s13.334 -19 26.001 -19z" />
    <glyph glyph-name="v" unicode="v" horiz-adv-x="485" 
d="M277 258c-17.333 13.333 -31.3301 29.998 -41.9971 49.998s-17.334 41 -20.001 63c-2 16 -1.83301 31.5 0.5 46.5s6.83301 28.833 13.5 41.5s15.167 23.334 25.5 32.001s22.833 14.334 37.5 17.001c25.333 4.66699 46.166 -0.5 62.499 -15.5s27.5 -35.167 33.5 -60.5
c5.33301 -20.667 6.66602 -43.167 3.99902 -67.5s-8.33398 -48.833 -17.001 -73.5c22.667 -6.66699 41.5 -8.5 56.5 -5.5s26.5 7.83301 34.5 14.5c6.66699 5.33301 12.5 12.166 17.5 20.499s8.5 15.833 10.5 22.5c3.33301 11.333 10.333 19.5 21 24.5s21.334 5.5 32.001 1.5
c10 -3.33301 17.167 -10 21.5 -20s4.83301 -20.333 1.5 -31c-12 -36 -30.667 -63.333 -56 -82s-53 -29 -83 -31c-13.333 -1.33301 -27.5 -0.833008 -42.5 1.5s-29.167 5.83301 -42.5 10.5c-12 -28 -25.667 -55.167 -41 -81.5s-32 -49.666 -50 -69.999
s-37.667 -36.5 -59 -48.5s-44 -18 -68 -18c-25.333 0 -46.666 5.66699 -63.999 17s-31.333 26.666 -42 45.999s-18.5 41.666 -23.5 66.999s-7.5 52.333 -7.5 81c0 28 1.83301 56.833 5.5 86.5s8.16699 58.334 13.5 86.001s11.166 53.667 17.499 78l16.5 62.5
c4.66699 16.667 14.5 29.167 29.5 37.5s31.167 10.166 48.5 5.49902c8 -2.66699 15.333 -7 22 -13s12 -13 16 -21s6.33301 -16.5 7 -25.5s-1 -17.833 -5 -26.5c-8 -18.667 -17.5 -43.5 -28.5 -74.5s-20.833 -63.833 -29.5 -98.5c-6.66699 -28 -11.667 -55.667 -15 -83
s-4.33301 -51.666 -3 -72.999s5.33301 -38.666 12 -51.999s16.667 -20 30 -20c16 0 31.833 7 47.5 21s30.167 30.833 43.5 50.5s25 39.5 35 59.5s17.667 36 23 48zM294.003 387.998c0 -17.333 4.33301 -32 13 -44c4 14.667 6 30.334 6 47.001c0 14 -1 23.5 -3 28.5
s-4.16699 6.66699 -6.5 5s-4.5 -5.83398 -6.5 -12.501s-3 -14.667 -3 -24z" />
    <glyph glyph-name="w" unicode="w" horiz-adv-x="766" 
d="M558 258c-17.333 13.333 -31.335 29.999 -42.002 49.999s-17.334 41 -20.001 63c-2 16 -1.83301 31.5 0.5 46.5s6.83301 28.833 13.5 41.5s15.167 23.334 25.5 32.001s22.833 14.334 37.5 17.001c25.333 4.66699 46.166 -0.5 62.499 -15.5s27.5 -35.167 33.5 -60.5
c5.33301 -20.667 6.66602 -43.167 3.99902 -67.5s-8.33398 -48.833 -17.001 -73.5c22.667 -6.66699 41.5 -8.5 56.5 -5.5s26.5 7.83301 34.5 14.5c6.66699 5.33301 12.5 12.166 17.5 20.499s8.5 15.833 10.5 22.5c3.33301 11.333 10.333 19.5 21 24.5s21.334 5.5 32.001 1.5
c10 -3.33301 17.167 -10 21.5 -20s4.83301 -20.333 1.5 -31c-12 -36 -30.667 -63.333 -56 -82s-53 -29 -83 -31c-13.333 -1.33301 -27.5 -0.833008 -42.5 1.5s-29.167 5.83301 -42.5 10.5c-12 -28 -25.667 -55.167 -41 -81.5s-32 -49.666 -50 -69.999
s-37.667 -36.5 -59 -48.5s-44 -18 -68 -18c-20 0 -37.5 3.66699 -52.5 11s-27.833 17.166 -38.5 29.499s-19.334 26.833 -26.001 43.5s-12 34.334 -16 53.001c-11.333 -18.667 -23.166 -36.167 -35.499 -52.5s-25.666 -30.666 -39.999 -42.999s-29.5 -22.166 -45.5 -29.499
s-33 -11 -51 -11c-22 0 -40.833 4.16699 -56.5 12.5s-28.167 20 -37.5 35s-16.166 32.333 -20.499 52s-6.5 41.167 -6.5 64.5c0 30.667 2.5 63.167 7.5 97.5s11.167 67.666 18.5 99.999s14.833 62.833 22.5 91.5l19.5 72c4.66699 16.667 14.667 29 30 37
s31.333 9.33301 48 4s29.334 -15.833 38.001 -31.5s9.66699 -31.5 3 -47.5c-11.333 -27.333 -22.5 -56.333 -33.5 -87s-21 -61.167 -30 -91.5s-16.5 -59.333 -22.5 -87s-9.66699 -52 -11 -73s0.333984 -37.833 5.00098 -50.5s13.334 -19 26.001 -19c11.333 0 23 4.5 35 13.5
s23.833 21 35.5 36s23 31.667 34 50s21 37 30 56s17.167 37.167 24.5 54.5s13 32.333 17 45l3 12c4.66699 16.667 14.5 29.167 29.5 37.5s31.167 10.166 48.5 5.49902c8 -2.66699 15.333 -7 22 -13s12 -13 16 -21s6.33301 -16.5 7 -25.5s-1 -17.833 -5 -26.5
c-4 -9.33301 -8.33301 -21.5 -13 -36.5s-8.5 -30.667 -11.5 -47s-5.16699 -32.833 -6.5 -49.5s-1 -31.834 1 -45.501s6 -24.667 12 -33s14.667 -12.5 26 -12.5c16 0 31.833 7 47.5 21s30.167 30.833 43.5 50.5s25 39.5 35 59.5s17.667 36 23 48zM574.998 387.999
c0 -17.333 4.33301 -32 13 -44c4 14.667 6 30.334 6 47.001c0 14 -1 23.5 -3 28.5s-4.16699 6.66699 -6.5 5s-4.5 -5.83398 -6.5 -12.501s-3 -14.667 -3 -24z" />
    <glyph glyph-name="x" unicode="x" horiz-adv-x="528" 
d="M10 345l31.0029 86.5c10 27 20.167 50.5 30.5 70.5s21.333 35.833 33 47.5s24.5 17.5 38.5 17.5c20.667 0 37.667 -6.83301 51 -20.5s25.666 -31.167 36.999 -52.5c9.33301 -19.333 18 -40 26 -62s15.333 -44.667 22 -68l160 189c7.33301 8.66699 16.333 13.5 27 14.5
s20.334 -2.16699 29.001 -9.5s13.5 -16.5 14.5 -27.5s-2.16699 -20.5 -9.5 -28.5l-198 -234l14 -72c4 -20.667 7.83301 -39.334 11.5 -56.001s8.33398 -29.334 14.001 -38.001s13.167 -12.167 22.5 -10.5s22 11.167 38 28.5c10 10.667 21 24.167 33 40.5s24 34.5 36 54.5
s23.833 41.333 35.5 64s22.167 45.334 31.5 68.001c4 10 10.833 17.333 20.5 22s19.834 5 30.501 1c10.667 -3.33301 18.167 -10.333 22.5 -21s4.5 -21 0.5 -31c-16 -38 -34.5 -76 -55.5 -114s-42.833 -72 -65.5 -102s-45.5 -54.5 -68.5 -73.5s-44.5 -28.5 -64.5 -28.5
c-18 0 -34.5 4.16699 -49.5 12.5s-28.833 19.5 -41.5 33.5s-24 30.5 -34 49.5s-19 39.167 -27 60.5l-120 -142c-8 -10 -18.333 -15 -31 -15c-8.66699 0 -17.334 3.33301 -26.001 10c-8.66699 7.33301 -13.334 16.333 -14.001 27s2.66602 20.334 9.99902 29.001l154 182
l-2 12c-6 26.667 -10.833 52.167 -14.5 76.5s-6.66699 46 -9 65s-4.33301 34.167 -6 45.5s-3.16699 17 -4.5 17c-2.66699 0 -7 -7.5 -13 -22.5l-19 -49.5l-25 -71c-3.33301 -10.667 -10 -18.5 -20 -23.5s-20.333 -5.83301 -31 -2.5s-18.334 10 -23.001 20
s-5.33398 20.333 -2.00098 31z" />
    </font>
</defs>
</svg>
